<svg width="551" height="200" viewBox="0 0 551 200" fill="none" xmlns="http://www.w3.org/2000/svg">
<mask id="mask0_2564_5176" style="mask-type:alpha" maskUnits="userSpaceOnUse" x="0" y="0" width="198" height="200">
<path fill-rule="evenodd" clip-rule="evenodd" d="M59.3572 0C91.9425 0 118.371 26.4881 118.371 59.1734V81.6633H138.012C170.597 81.6633 197.025 108.151 197.025 140.837C197.025 173.522 170.607 200 138.012 200H0.34375V59.1634C0.34375 26.4981 26.7619 0 59.3572 0Z" fill="url(#paint0_linear_2564_5176)" style=""/>
</mask>
<g mask="url(#mask0_2564_5176)">
<g filter="url(#filter0_f_2564_5176)">
<path d="M86.6323 239.905C160.164 239.905 219.772 180.296 219.772 106.765C219.772 33.2338 160.164 -26.375 86.6323 -26.375C13.101 -26.375 -46.5078 33.2338 -46.5078 106.765C-46.5078 180.296 13.101 239.905 86.6323 239.905Z" fill="#4B73FF" style="fill:#4B73FF;fill:color(display-p3 0.2941 0.4510 1.0000);fill-opacity:1;"/>
</g>
<g filter="url(#filter1_f_2564_5176)">
<path d="M101.24 166.854C195.412 166.854 271.753 107.246 271.753 33.7143C271.753 -39.8169 195.412 -99.4258 101.24 -99.4258C7.06796 -99.4258 -69.2734 -39.8169 -69.2734 33.7143C-69.2734 107.246 7.06796 166.854 101.24 166.854Z" fill="#FF66F4" style="fill:#FF66F4;fill:color(display-p3 1.0000 0.4000 0.9569);fill-opacity:1;"/>
</g>
<g filter="url(#filter2_f_2564_5176)">
<path d="M129.031 125.585C202.562 125.585 262.171 73.2351 262.171 8.65786C262.171 -55.9194 202.562 -108.27 129.031 -108.27C55.4995 -108.27 -4.10938 -55.9194 -4.10938 8.65786C-4.10938 73.2351 55.4995 125.585 129.031 125.585Z" fill="#FF0105" style="fill:#FF0105;fill:color(display-p3 1.0000 0.0039 0.0196);fill-opacity:1;"/>
</g>
<g filter="url(#filter3_f_2564_5176)">
<path d="M103.613 113.746C147.837 113.746 183.687 77.8953 183.687 33.6716C183.687 -10.552 147.837 -46.4023 103.613 -46.4023C59.3894 -46.4023 23.5391 -10.552 23.5391 33.6716C23.5391 77.8953 59.3894 113.746 103.613 113.746Z" fill="#FE7B02" style="fill:#FE7B02;fill:color(display-p3 0.9961 0.4824 0.0078);fill-opacity:1;"/>
</g>
</g>
<rect x="237.025" y="92" width="80" height="16" fill="#D9D9D9" style="fill:#D9D9D9;fill:color(display-p3 0.8510 0.8510 0.8510);fill-opacity:1;"/>
<rect x="285.025" y="60" width="80" height="16" transform="rotate(90 285.025 60)" fill="#D9D9D9" style="fill:#D9D9D9;fill:color(display-p3 0.8510 0.8510 0.8510);fill-opacity:1;"/>
<g clip-path="url(#clip0_2564_5176)">
<path fill-rule="evenodd" clip-rule="evenodd" d="M376.057 0H493.855L550.961 100H509.304L471.234 33.4258H395.093L376.057 0Z" fill="url(#paint1_linear_2564_5176)" style=""/>
<path fill-rule="evenodd" clip-rule="evenodd" d="M490.267 200H376.057L395.091 166.574H471.232L509.302 100H550.96L493.854 200H490.267Z" fill="url(#paint2_linear_2564_5176)" style=""/>
<path fill-rule="evenodd" clip-rule="evenodd" d="M395.097 33.4258L357.025 100.002H433.166L471.238 33.4258H395.097Z" fill="url(#paint3_linear_2564_5176)" style=""/>
<path fill-rule="evenodd" clip-rule="evenodd" d="M395.097 166.574L357.025 100H433.166L471.238 166.574H395.097Z" fill="url(#paint4_linear_2564_5176)" style=""/>
</g>
<defs>
<filter id="filter0_f_2564_5176" x="-106.181" y="-86.0481" width="385.626" height="385.626" filterUnits="userSpaceOnUse" color-interpolation-filters="sRGB">
<feFlood flood-opacity="0" result="BackgroundImageFix"/>
<feBlend mode="normal" in="SourceGraphic" in2="BackgroundImageFix" result="shape"/>
<feGaussianBlur stdDeviation="29.8366" result="effect1_foregroundBlur_2564_5176"/>
</filter>
<filter id="filter1_f_2564_5176" x="-128.947" y="-159.099" width="460.374" height="385.626" filterUnits="userSpaceOnUse" color-interpolation-filters="sRGB">
<feFlood flood-opacity="0" result="BackgroundImageFix"/>
<feBlend mode="normal" in="SourceGraphic" in2="BackgroundImageFix" result="shape"/>
<feGaussianBlur stdDeviation="29.8366" result="effect1_foregroundBlur_2564_5176"/>
</filter>
<filter id="filter2_f_2564_5176" x="-63.7825" y="-167.943" width="385.626" height="353.202" filterUnits="userSpaceOnUse" color-interpolation-filters="sRGB">
<feFlood flood-opacity="0" result="BackgroundImageFix"/>
<feBlend mode="normal" in="SourceGraphic" in2="BackgroundImageFix" result="shape"/>
<feGaussianBlur stdDeviation="29.8366" result="effect1_foregroundBlur_2564_5176"/>
</filter>
<filter id="filter3_f_2564_5176" x="-36.1341" y="-106.075" width="279.495" height="279.495" filterUnits="userSpaceOnUse" color-interpolation-filters="sRGB">
<feFlood flood-opacity="0" result="BackgroundImageFix"/>
<feBlend mode="normal" in="SourceGraphic" in2="BackgroundImageFix" result="shape"/>
<feGaussianBlur stdDeviation="29.8366" result="effect1_foregroundBlur_2564_5176"/>
</filter>
<linearGradient id="paint0_linear_2564_5176" x1="66.534" y1="35.1442" x2="126.457" y2="199.92" gradientUnits="userSpaceOnUse">
<stop offset="0.025" stop-color="#FF8E63" style="stop-color:#FF8E63;stop-color:color(display-p3 1.0000 0.5569 0.3882);stop-opacity:1;"/>
<stop offset="0.56" stop-color="#FF7EB0" style="stop-color:#FF7EB0;stop-color:color(display-p3 1.0000 0.4941 0.6902);stop-opacity:1;"/>
<stop offset="0.95" stop-color="#4B73FF" style="stop-color:#4B73FF;stop-color:color(display-p3 0.2941 0.4510 1.0000);stop-opacity:1;"/>
</linearGradient>
<linearGradient id="paint1_linear_2564_5176" x1="463.51" y1="0" x2="463.51" y2="100" gradientUnits="userSpaceOnUse">
<stop stop-color="#842EFF" style="stop-color:#842EFF;stop-color:color(display-p3 0.5176 0.1804 1.0000);stop-opacity:1;"/>
<stop offset="0.995" stop-color="#3D04BD" style="stop-color:#3D04BD;stop-color:color(display-p3 0.2392 0.0157 0.7412);stop-opacity:1;"/>
</linearGradient>
<linearGradient id="paint2_linear_2564_5176" x1="463.508" y1="100" x2="463.508" y2="200" gradientUnits="userSpaceOnUse">
<stop stop-color="#BA89FF" style="stop-color:#BA89FF;stop-color:color(display-p3 0.7294 0.5373 1.0000);stop-opacity:1;"/>
<stop offset="1" stop-color="#EBDCFF" style="stop-color:#EBDCFF;stop-color:color(display-p3 0.9216 0.8627 1.0000);stop-opacity:1;"/>
</linearGradient>
<linearGradient id="paint3_linear_2564_5176" x1="414.131" y1="33.4258" x2="414.131" y2="100" gradientUnits="userSpaceOnUse">
<stop stop-color="#FFACCF" style="stop-color:#FFACCF;stop-color:color(display-p3 1.0000 0.6745 0.8118);stop-opacity:1;"/>
<stop offset="1" stop-color="#FFCEE3" style="stop-color:#FFCEE3;stop-color:color(display-p3 1.0000 0.8078 0.8902);stop-opacity:1;"/>
</linearGradient>
<linearGradient id="paint4_linear_2564_5176" x1="414.131" y1="100" x2="414.131" y2="166.574" gradientUnits="userSpaceOnUse">
<stop stop-color="#F685B6" style="stop-color:#F685B6;stop-color:color(display-p3 0.9647 0.5216 0.7137);stop-opacity:1;"/>
<stop offset="1" stop-color="#CA4A87" style="stop-color:#CA4A87;stop-color:color(display-p3 0.7922 0.2902 0.5294);stop-opacity:1;"/>
</linearGradient>
<clipPath id="clip0_2564_5176">
<rect width="193.939" height="200" fill="white" style="fill:white;fill-opacity:1;" transform="translate(357.025)"/>
</clipPath>
</defs>
</svg>
