<svg width="371" height="76" viewBox="0 0 371 76" fill="none" xmlns="http://www.w3.org/2000/svg">
<rect width="371" height="76" rx="38" fill="url(#paint0_linear_1889_807)"/>
<path d="M51.8638 42.5431C52.1545 42.6163 59.0001 44.4444 59.0001 54.5C59.0001 54.8978 58.842 55.2794 58.5607 55.5607C58.2794 55.842 57.8979 56 57.5001 56C47.4445 56 45.6163 49.1544 45.5432 48.8638C45.4467 48.4776 45.5076 48.069 45.7124 47.7277C45.9173 47.3865 46.2493 47.1406 46.6354 47.0441C47.0215 46.9476 47.4302 47.0085 47.7714 47.2133C48.1127 47.4181 48.3586 47.7501 48.4551 48.1363C48.502 48.305 49.6813 52.34 55.9288 52.9288C55.3401 46.6813 51.3126 45.5 51.1251 45.4513C50.7394 45.3518 50.4091 45.1032 50.2067 44.7602C50.0044 44.4172 49.9466 44.0078 50.046 43.6222C50.1455 43.2366 50.3941 42.9062 50.7371 42.7039C51.0801 42.5015 51.4894 42.4437 51.8751 42.5431L51.8638 42.5431ZM39.2263 25.1056L40.1207 26L51.0576 26C51.4531 25.9978 51.845 26.0742 52.2107 26.2249C52.5764 26.3755 52.9084 26.5974 53.1876 26.8775L59.6188 33.3125C59.8983 33.59 60.1201 33.9201 60.2713 34.2838C60.4226 34.6474 60.5003 35.0374 60.5001 35.4313C60.5 35.7563 60.4474 36.0792 60.3445 36.3875C60.1694 36.9168 59.8497 37.3867 59.4216 37.7438C58.9936 38.101 58.4741 38.3313 57.922 38.4088L50.7051 39.4156L42.4157 47.705L41.4088 54.9181C41.3313 55.471 41.101 55.9913 40.7439 56.4204C40.3868 56.8495 39.9171 57.1705 39.3875 57.3472C38.858 57.5239 38.2896 57.5494 37.7464 57.4207C37.2031 57.292 36.7066 57.0143 36.3126 56.6188L29.8776 50.1875C29.5974 49.9084 29.3756 49.5763 29.2249 49.2106C29.0743 48.845 28.9979 48.453 29.0001 48.0575L29.0001 37.1206L28.1057 36.2263C23.1051 31.2238 22.8895 25.1956 23.0301 22.8369C23.0745 22.1055 23.3851 21.4157 23.9032 20.8975C24.4214 20.3794 25.1112 20.0688 25.8426 20.0244C28.1957 19.8875 34.2238 20.1031 39.2263 25.1038L39.2263 25.1056ZM38.4388 54.5L39.4101 47.5344L32.0001 40.1206L32.0001 48.0575L38.4388 54.5ZM41.0001 44.8775L47.8776 38L37.1057 27.2281C35.6638 25.7765 33.9279 24.6502 32.0146 23.9252C30.1014 23.2001 28.055 22.893 26.0132 23.0244C25.8867 25.0652 26.197 27.1094 26.9236 29.0207C27.6501 30.9319 28.7761 32.6662 30.2263 34.1075L41.0001 44.8775ZM43.1207 29L50.5326 36.4119L57.5001 35.4369L51.0576 29L43.1207 29Z" fill="white" fill-opacity="0.9"/>
<path d="M344.439 38.7518L334.877 48.3143C334.677 48.5137 334.407 48.6257 334.125 48.6257C333.843 48.6257 333.573 48.5137 333.373 48.3143C333.174 48.115 333.062 47.8446 333.062 47.5626C333.062 47.2807 333.174 47.0103 333.373 46.8109L341.123 39.0626H320.312C320.031 39.0626 319.76 38.9507 319.561 38.7514C319.362 38.5521 319.25 38.2819 319.25 38.0001C319.25 37.7183 319.362 37.4481 319.561 37.2488C319.76 37.0495 320.031 36.9376 320.312 36.9376H341.123L333.373 29.1893C333.174 28.99 333.062 28.7196 333.062 28.4376C333.062 28.1557 333.174 27.8853 333.373 27.6859C333.573 27.4865 333.843 27.3745 334.125 27.3745C334.407 27.3745 334.677 27.4865 334.877 27.6859L344.439 37.2484C344.538 37.3471 344.616 37.4642 344.67 37.5932C344.723 37.7222 344.751 37.8605 344.751 38.0001C344.751 38.1397 344.723 38.278 344.67 38.407C344.616 38.536 344.538 38.6531 344.439 38.7518Z" fill="white" fill-opacity="0.87"/>
<path d="M79.66 34V20H82.9V31.36H89.92V34H79.66ZM98.208 34V31.9L98.008 31.44V27.68C98.008 27.0133 97.8013 26.4933 97.388 26.12C96.988 25.7467 96.368 25.56 95.528 25.56C94.9546 25.56 94.388 25.6533 93.828 25.84C93.2813 26.0133 92.8146 26.2533 92.428 26.56L91.308 24.38C91.8946 23.9667 92.6013 23.6467 93.428 23.42C94.2546 23.1933 95.0946 23.08 95.948 23.08C97.588 23.08 98.8613 23.4667 99.768 24.24C100.675 25.0133 101.128 26.22 101.128 27.86V34H98.208ZM94.928 34.16C94.088 34.16 93.368 34.02 92.768 33.74C92.168 33.4467 91.708 33.0533 91.388 32.56C91.068 32.0667 90.908 31.5133 90.908 30.9C90.908 30.26 91.0613 29.7 91.368 29.22C91.688 28.74 92.188 28.3667 92.868 28.1C93.548 27.82 94.4346 27.68 95.528 27.68H98.388V29.5H95.868C95.1346 29.5 94.628 29.62 94.348 29.86C94.0813 30.1 93.948 30.4 93.948 30.76C93.948 31.16 94.1013 31.48 94.408 31.72C94.728 31.9467 95.1613 32.06 95.708 32.06C96.228 32.06 96.6946 31.94 97.108 31.7C97.5213 31.4467 97.8213 31.08 98.008 30.6L98.488 32.04C98.2613 32.7333 97.848 33.26 97.248 33.62C96.648 33.98 95.8746 34.16 94.928 34.16ZM108.492 34.16C107.598 34.16 106.798 33.9867 106.092 33.64C105.398 33.2933 104.858 32.7667 104.472 32.06C104.085 31.34 103.892 30.4267 103.892 29.32V23.24H107.012V28.86C107.012 29.7533 107.198 30.4133 107.572 30.84C107.958 31.2533 108.498 31.46 109.192 31.46C109.672 31.46 110.098 31.36 110.472 31.16C110.845 30.9467 111.138 30.6267 111.352 30.2C111.565 29.76 111.672 29.2133 111.672 28.56V23.24H114.792V34H111.832V31.04L112.372 31.9C112.012 32.6467 111.478 33.2133 110.772 33.6C110.078 33.9733 109.318 34.16 108.492 34.16ZM124.222 23.08C125.076 23.08 125.836 23.2533 126.502 23.6C127.182 23.9333 127.716 24.4533 128.102 25.16C128.489 25.8533 128.682 26.7467 128.682 27.84V34H125.562V28.32C125.562 27.4533 125.369 26.8133 124.982 26.4C124.609 25.9867 124.076 25.78 123.382 25.78C122.889 25.78 122.442 25.8867 122.042 26.1C121.656 26.3 121.349 26.6133 121.122 27.04C120.909 27.4667 120.802 28.0133 120.802 28.68V34H117.682V23.24H120.662V26.22L120.102 25.32C120.489 24.6 121.042 24.0467 121.762 23.66C122.482 23.2733 123.302 23.08 124.222 23.08ZM136.788 34.16C135.628 34.16 134.595 33.9267 133.688 33.46C132.782 32.98 132.068 32.32 131.548 31.48C131.042 30.64 130.788 29.6867 130.788 28.62C130.788 27.54 131.042 26.5867 131.548 25.76C132.068 24.92 132.782 24.2667 133.688 23.8C134.595 23.32 135.628 23.08 136.788 23.08C137.922 23.08 138.908 23.32 139.748 23.8C140.588 24.2667 141.208 24.94 141.608 25.82L139.188 27.12C138.908 26.6133 138.555 26.24 138.128 26C137.715 25.76 137.262 25.64 136.768 25.64C136.235 25.64 135.755 25.76 135.328 26C134.902 26.24 134.562 26.58 134.308 27.02C134.068 27.46 133.948 27.9933 133.948 28.62C133.948 29.2467 134.068 29.78 134.308 30.22C134.562 30.66 134.902 31 135.328 31.24C135.755 31.48 136.235 31.6 136.768 31.6C137.262 31.6 137.715 31.4867 138.128 31.26C138.555 31.02 138.908 30.64 139.188 30.12L141.608 31.44C141.208 32.3067 140.588 32.98 139.748 33.46C138.908 33.9267 137.922 34.16 136.788 34.16ZM149.886 23.08C150.74 23.08 151.5 23.2533 152.166 23.6C152.846 23.9333 153.38 24.4533 153.766 25.16C154.153 25.8533 154.346 26.7467 154.346 27.84V34H151.226V28.32C151.226 27.4533 151.033 26.8133 150.646 26.4C150.273 25.9867 149.74 25.78 149.046 25.78C148.553 25.78 148.106 25.8867 147.706 26.1C147.32 26.3 147.013 26.6133 146.786 27.04C146.573 27.4667 146.466 28.0133 146.466 28.68V34H143.346V19.16H146.466V26.22L145.766 25.32C146.153 24.6 146.706 24.0467 147.426 23.66C148.146 23.2733 148.966 23.08 149.886 23.08ZM165.958 34V22.64H161.478V20H173.678V22.64H169.198V34H165.958ZM179.448 34.16C178.221 34.16 177.141 33.92 176.208 33.44C175.288 32.96 174.575 32.3067 174.068 31.48C173.561 30.64 173.308 29.6867 173.308 28.62C173.308 27.54 173.555 26.5867 174.048 25.76C174.555 24.92 175.241 24.2667 176.108 23.8C176.975 23.32 177.955 23.08 179.048 23.08C180.101 23.08 181.048 23.3067 181.888 23.76C182.741 24.2 183.415 24.84 183.908 25.68C184.401 26.5067 184.648 27.5 184.648 28.66C184.648 28.78 184.641 28.92 184.628 29.08C184.615 29.2267 184.601 29.3667 184.588 29.5H175.848V27.68H182.948L181.748 28.22C181.748 27.66 181.635 27.1733 181.408 26.76C181.181 26.3467 180.868 26.0267 180.468 25.8C180.068 25.56 179.601 25.44 179.068 25.44C178.535 25.44 178.061 25.56 177.648 25.8C177.248 26.0267 176.935 26.3533 176.708 26.78C176.481 27.1933 176.368 27.6867 176.368 28.26V28.74C176.368 29.3267 176.495 29.8467 176.748 30.3C177.015 30.74 177.381 31.08 177.848 31.32C178.328 31.5467 178.888 31.66 179.528 31.66C180.101 31.66 180.601 31.5733 181.028 31.4C181.468 31.2267 181.868 30.9667 182.228 30.62L183.888 32.42C183.395 32.98 182.775 33.4133 182.028 33.72C181.281 34.0133 180.421 34.16 179.448 34.16ZM200.505 23.08C201.358 23.08 202.112 23.2533 202.765 23.6C203.432 23.9333 203.952 24.4533 204.325 25.16C204.712 25.8533 204.905 26.7467 204.905 27.84V34H201.785V28.32C201.785 27.4533 201.605 26.8133 201.245 26.4C200.885 25.9867 200.378 25.78 199.725 25.78C199.272 25.78 198.865 25.8867 198.505 26.1C198.145 26.3 197.865 26.6067 197.665 27.02C197.465 27.4333 197.365 27.96 197.365 28.6V34H194.245V28.32C194.245 27.4533 194.065 26.8133 193.705 26.4C193.358 25.9867 192.858 25.78 192.205 25.78C191.752 25.78 191.345 25.8867 190.985 26.1C190.625 26.3 190.345 26.6067 190.145 27.02C189.945 27.4333 189.845 27.96 189.845 28.6V34H186.725V23.24H189.705V26.18L189.145 25.32C189.518 24.5867 190.045 24.0333 190.725 23.66C191.418 23.2733 192.205 23.08 193.085 23.08C194.072 23.08 194.932 23.3333 195.665 23.84C196.412 24.3333 196.905 25.0933 197.145 26.12L196.045 25.82C196.405 24.98 196.978 24.3133 197.765 23.82C198.565 23.3267 199.478 23.08 200.505 23.08ZM214.062 34.16C213.155 34.16 212.362 33.96 211.682 33.56C211.002 33.16 210.468 32.5533 210.082 31.74C209.708 30.9133 209.522 29.8733 209.522 28.62C209.522 27.3533 209.702 26.3133 210.062 25.5C210.422 24.6867 210.942 24.08 211.622 23.68C212.302 23.28 213.115 23.08 214.062 23.08C215.075 23.08 215.982 23.3133 216.782 23.78C217.595 24.2333 218.235 24.8733 218.702 25.7C219.182 26.5267 219.422 27.5 219.422 28.62C219.422 29.7533 219.182 30.7333 218.702 31.56C218.235 32.3867 217.595 33.0267 216.782 33.48C215.982 33.9333 215.075 34.16 214.062 34.16ZM207.702 37.88V23.24H210.682V25.44L210.622 28.64L210.822 31.82V37.88H207.702ZM213.522 31.6C214.042 31.6 214.502 31.48 214.902 31.24C215.315 31 215.642 30.66 215.882 30.22C216.135 29.7667 216.262 29.2333 216.262 28.62C216.262 27.9933 216.135 27.46 215.882 27.02C215.642 26.58 215.315 26.24 214.902 26C214.502 25.76 214.042 25.64 213.522 25.64C213.002 25.64 212.535 25.76 212.122 26C211.708 26.24 211.382 26.58 211.142 27.02C210.902 27.46 210.782 27.9933 210.782 28.62C210.782 29.2333 210.902 29.7667 211.142 30.22C211.382 30.66 211.708 31 212.122 31.24C212.535 31.48 213.002 31.6 213.522 31.6ZM221.51 34V19.16H224.63V34H221.51ZM234.126 34V31.9L233.926 31.44V27.68C233.926 27.0133 233.719 26.4933 233.306 26.12C232.906 25.7467 232.286 25.56 231.446 25.56C230.873 25.56 230.306 25.6533 229.746 25.84C229.199 26.0133 228.733 26.2533 228.346 26.56L227.226 24.38C227.813 23.9667 228.519 23.6467 229.346 23.42C230.173 23.1933 231.013 23.08 231.866 23.08C233.506 23.08 234.779 23.4667 235.686 24.24C236.593 25.0133 237.046 26.22 237.046 27.86V34H234.126ZM230.846 34.16C230.006 34.16 229.286 34.02 228.686 33.74C228.086 33.4467 227.626 33.0533 227.306 32.56C226.986 32.0667 226.826 31.5133 226.826 30.9C226.826 30.26 226.979 29.7 227.286 29.22C227.606 28.74 228.106 28.3667 228.786 28.1C229.466 27.82 230.353 27.68 231.446 27.68H234.306V29.5H231.786C231.053 29.5 230.546 29.62 230.266 29.86C229.999 30.1 229.866 30.4 229.866 30.76C229.866 31.16 230.019 31.48 230.326 31.72C230.646 31.9467 231.079 32.06 231.626 32.06C232.146 32.06 232.613 31.94 233.026 31.7C233.439 31.4467 233.739 31.08 233.926 30.6L234.406 32.04C234.179 32.7333 233.766 33.26 233.166 33.62C232.566 33.98 231.793 34.16 230.846 34.16ZM244.27 34.16C243.003 34.16 242.016 33.84 241.31 33.2C240.603 32.5467 240.25 31.58 240.25 30.3V20.86H243.37V30.26C243.37 30.7133 243.49 31.0667 243.73 31.32C243.97 31.56 244.296 31.68 244.71 31.68C245.203 31.68 245.623 31.5467 245.97 31.28L246.81 33.48C246.49 33.7067 246.103 33.88 245.65 34C245.21 34.1067 244.75 34.16 244.27 34.16ZM238.59 25.88V23.48H246.05V25.88H238.59ZM253.569 34.16C252.342 34.16 251.262 33.92 250.329 33.44C249.409 32.96 248.696 32.3067 248.189 31.48C247.682 30.64 247.429 29.6867 247.429 28.62C247.429 27.54 247.676 26.5867 248.169 25.76C248.676 24.92 249.362 24.2667 250.229 23.8C251.096 23.32 252.076 23.08 253.169 23.08C254.222 23.08 255.169 23.3067 256.009 23.76C256.862 24.2 257.536 24.84 258.029 25.68C258.522 26.5067 258.769 27.5 258.769 28.66C258.769 28.78 258.762 28.92 258.749 29.08C258.736 29.2267 258.722 29.3667 258.709 29.5H249.969V27.68H257.069L255.869 28.22C255.869 27.66 255.756 27.1733 255.529 26.76C255.302 26.3467 254.989 26.0267 254.589 25.8C254.189 25.56 253.722 25.44 253.189 25.44C252.656 25.44 252.182 25.56 251.769 25.8C251.369 26.0267 251.056 26.3533 250.829 26.78C250.602 27.1933 250.489 27.6867 250.489 28.26V28.74C250.489 29.3267 250.616 29.8467 250.869 30.3C251.136 30.74 251.502 31.08 251.969 31.32C252.449 31.5467 253.009 31.66 253.649 31.66C254.222 31.66 254.722 31.5733 255.149 31.4C255.589 31.2267 255.989 30.9667 256.349 30.62L258.009 32.42C257.516 32.98 256.896 33.4133 256.149 33.72C255.402 34.0133 254.542 34.16 253.569 34.16Z" fill="white"/>
<path d="M83.568 55.192C82.64 55.192 81.8187 54.9787 81.104 54.552C80.4 54.1147 79.8453 53.4907 79.44 52.68C79.0347 51.8693 78.832 50.8933 78.832 49.752C78.832 48.9093 78.9493 48.152 79.184 47.48C79.4293 46.808 79.7653 46.2373 80.192 45.768C80.6293 45.288 81.1413 44.9253 81.728 44.68C82.3147 44.4347 82.9547 44.312 83.648 44.312C84.3733 44.312 84.9813 44.4453 85.472 44.712C85.9733 44.9787 86.3733 45.2773 86.672 45.608L85.936 46.44C85.68 46.1627 85.3707 45.9333 85.008 45.752C84.656 45.5707 84.2133 45.48 83.68 45.48C82.976 45.48 82.3627 45.656 81.84 46.008C81.3173 46.3493 80.912 46.8347 80.624 47.464C80.3467 48.0933 80.208 48.8453 80.208 49.72C80.208 50.6053 80.3413 51.368 80.608 52.008C80.8853 52.648 81.28 53.144 81.792 53.496C82.3147 53.848 82.9493 54.024 83.696 54.024C84.0693 54.024 84.4267 53.9707 84.768 53.864C85.1093 53.7467 85.3813 53.592 85.584 53.4V50.664H83.36V49.56H86.8V53.976C86.4693 54.328 86.0213 54.6213 85.456 54.856C84.9013 55.08 84.272 55.192 83.568 55.192ZM92.339 55.192C91.6457 55.192 91.011 55.032 90.435 54.712C89.8697 54.3813 89.4217 53.9173 89.091 53.32C88.7603 52.712 88.595 51.976 88.595 51.112C88.595 50.2693 88.7657 49.544 89.107 48.936C89.4483 48.328 89.8857 47.8587 90.419 47.528C90.9523 47.1973 91.5177 47.032 92.115 47.032C92.7763 47.032 93.3363 47.1867 93.795 47.496C94.2643 47.7947 94.6163 48.216 94.851 48.76C95.0857 49.304 95.203 49.944 95.203 50.68C95.203 50.8187 95.1977 50.952 95.187 51.08C95.187 51.208 95.171 51.336 95.139 51.464H89.539V50.424H94.019C94.019 49.6773 93.8537 49.1067 93.523 48.712C93.203 48.3067 92.739 48.104 92.131 48.104C91.779 48.104 91.4323 48.2053 91.091 48.408C90.7497 48.6 90.467 48.9147 90.243 49.352C90.0297 49.7893 89.923 50.3707 89.923 51.096C89.923 51.7573 90.035 52.312 90.259 52.76C90.4937 53.208 90.8083 53.5493 91.203 53.784C91.5977 54.008 92.0297 54.12 92.499 54.12C92.8723 54.12 93.219 54.0667 93.539 53.96C93.8697 53.8533 94.1683 53.7093 94.435 53.528L94.915 54.392C94.5737 54.6267 94.1897 54.8187 93.763 54.968C93.347 55.1173 92.8723 55.192 92.339 55.192ZM99.4163 55.144C98.5949 55.144 98.0189 54.904 97.6883 54.424C97.3576 53.944 97.1923 53.32 97.1923 52.552V48.296H96.0403V47.304L97.2563 47.224L97.4163 44.728H98.5203V47.224H100.632V48.296H98.5203V52.568C98.5203 53.0373 98.6056 53.4053 98.7763 53.672C98.9576 53.9387 99.2723 54.072 99.7203 54.072C99.8589 54.072 100.003 54.0613 100.152 54.04C100.302 54.008 100.451 53.9547 100.6 53.88L100.888 54.808C100.686 54.904 100.456 54.984 100.2 55.048C99.9443 55.112 99.6829 55.144 99.4163 55.144ZM107.37 55.192C106.943 55.192 106.554 55.1067 106.202 54.936C105.86 54.7547 105.588 54.504 105.386 54.184C105.183 53.8533 105.082 53.4533 105.082 52.984C105.082 52.1093 105.466 51.448 106.234 51C107.002 50.552 108.218 50.2373 109.882 50.056C109.871 49.736 109.818 49.4267 109.722 49.128C109.636 48.8293 109.476 48.5893 109.242 48.408C109.007 48.2267 108.682 48.136 108.266 48.136C107.818 48.136 107.396 48.2213 107.002 48.392C106.607 48.552 106.255 48.7333 105.946 48.936L105.434 48.04C105.668 47.88 105.946 47.7253 106.266 47.576C106.586 47.416 106.932 47.288 107.306 47.192C107.679 47.0853 108.074 47.032 108.49 47.032C109.119 47.032 109.631 47.1653 110.026 47.432C110.431 47.688 110.724 48.056 110.906 48.536C111.098 49.016 111.194 49.5813 111.194 50.232V55H110.106L109.994 54.072H109.946C109.572 54.3813 109.172 54.648 108.746 54.872C108.319 55.0853 107.86 55.192 107.37 55.192ZM107.738 54.104C108.122 54.104 108.479 54.0187 108.81 53.848C109.151 53.6773 109.508 53.4267 109.882 53.096V51C109.007 51.1067 108.314 51.2453 107.802 51.416C107.3 51.576 106.938 51.7787 106.714 52.024C106.49 52.2693 106.378 52.5627 106.378 52.904C106.378 53.3307 106.511 53.64 106.778 53.832C107.044 54.0133 107.364 54.104 107.738 54.104ZM113.64 55V47.224H114.728L114.84 48.344H114.888C115.261 47.9707 115.656 47.6613 116.072 47.416C116.488 47.16 116.963 47.032 117.496 47.032C118.317 47.032 118.915 47.2933 119.288 47.816C119.672 48.328 119.864 49.08 119.864 50.072V55H118.552V50.248C118.552 49.512 118.435 48.984 118.2 48.664C117.976 48.3333 117.603 48.168 117.08 48.168C116.685 48.168 116.328 48.2693 116.008 48.472C115.699 48.6747 115.347 48.9733 114.952 49.368V55H113.64ZM125.593 55V47.224H126.905V55H125.593ZM126.249 45.624C125.993 45.624 125.78 45.544 125.609 45.384C125.449 45.224 125.369 45.016 125.369 44.76C125.369 44.504 125.449 44.296 125.609 44.136C125.78 43.976 125.993 43.896 126.249 43.896C126.505 43.896 126.713 43.976 126.873 44.136C127.044 44.296 127.129 44.504 127.129 44.76C127.129 45.016 127.044 45.224 126.873 45.384C126.713 45.544 126.505 45.624 126.249 45.624ZM129.531 55V47.224H130.619L130.731 48.344H130.779C131.152 47.9707 131.547 47.6613 131.963 47.416C132.379 47.16 132.853 47.032 133.387 47.032C134.208 47.032 134.805 47.2933 135.179 47.816C135.563 48.328 135.755 49.08 135.755 50.072V55H134.443V50.248C134.443 49.512 134.325 48.984 134.091 48.664C133.867 48.3333 133.493 48.168 132.971 48.168C132.576 48.168 132.219 48.2693 131.899 48.472C131.589 48.6747 131.237 48.9733 130.843 49.368V55H129.531ZM140.313 55.192C139.747 55.192 139.209 55.096 138.697 54.904C138.195 54.7013 137.769 54.424 137.417 54.072L138.025 53.304C138.366 53.5813 138.718 53.7947 139.081 53.944C139.454 54.0933 139.881 54.168 140.361 54.168C140.873 54.168 141.257 54.0507 141.513 53.816C141.769 53.5707 141.897 53.2827 141.897 52.952C141.897 52.6853 141.806 52.4667 141.625 52.296C141.454 52.1147 141.235 51.9653 140.969 51.848C140.713 51.72 140.435 51.6027 140.137 51.496C139.753 51.3573 139.385 51.1973 139.033 51.016C138.681 50.824 138.393 50.5893 138.169 50.312C137.955 50.024 137.849 49.6667 137.849 49.24C137.849 48.6107 138.083 48.088 138.553 47.672C139.033 47.2453 139.694 47.032 140.537 47.032C141.017 47.032 141.465 47.1173 141.881 47.288C142.297 47.448 142.654 47.656 142.953 47.912L142.345 48.664C142.067 48.472 141.785 48.3227 141.497 48.216C141.209 48.1093 140.889 48.056 140.537 48.056C140.046 48.056 139.683 48.168 139.449 48.392C139.225 48.616 139.113 48.8773 139.113 49.176C139.113 49.4107 139.182 49.608 139.321 49.768C139.459 49.9173 139.651 50.0507 139.897 50.168C140.153 50.2853 140.441 50.3973 140.761 50.504C141.166 50.6533 141.55 50.824 141.913 51.016C142.286 51.1973 142.585 51.4373 142.809 51.736C143.043 52.024 143.161 52.4027 143.161 52.872C143.161 53.2987 143.049 53.688 142.825 54.04C142.611 54.3813 142.291 54.6587 141.865 54.872C141.449 55.0853 140.931 55.192 140.313 55.192ZM147.119 55.144C146.298 55.144 145.722 54.904 145.391 54.424C145.061 53.944 144.895 53.32 144.895 52.552V48.296H143.743V47.304L144.959 47.224L145.119 44.728H146.223V47.224H148.335V48.296H146.223V52.568C146.223 53.0373 146.309 53.4053 146.479 53.672C146.661 53.9387 146.975 54.072 147.423 54.072C147.562 54.072 147.706 54.0613 147.855 54.04C148.005 54.008 148.154 53.9547 148.303 53.88L148.591 54.808C148.389 54.904 148.159 54.984 147.903 55.048C147.647 55.112 147.386 55.144 147.119 55.144ZM151.526 55.192C151.099 55.192 150.71 55.1067 150.358 54.936C150.017 54.7547 149.745 54.504 149.542 54.184C149.339 53.8533 149.238 53.4533 149.238 52.984C149.238 52.1093 149.622 51.448 150.39 51C151.158 50.552 152.374 50.2373 154.038 50.056C154.027 49.736 153.974 49.4267 153.878 49.128C153.793 48.8293 153.633 48.5893 153.398 48.408C153.163 48.2267 152.838 48.136 152.422 48.136C151.974 48.136 151.553 48.2213 151.158 48.392C150.763 48.552 150.411 48.7333 150.102 48.936L149.59 48.04C149.825 47.88 150.102 47.7253 150.422 47.576C150.742 47.416 151.089 47.288 151.462 47.192C151.835 47.0853 152.23 47.032 152.646 47.032C153.275 47.032 153.787 47.1653 154.182 47.432C154.587 47.688 154.881 48.056 155.062 48.536C155.254 49.016 155.35 49.5813 155.35 50.232V55H154.262L154.15 54.072H154.102C153.729 54.3813 153.329 54.648 152.902 54.872C152.475 55.0853 152.017 55.192 151.526 55.192ZM151.894 54.104C152.278 54.104 152.635 54.0187 152.966 53.848C153.307 53.6773 153.665 53.4267 154.038 53.096V51C153.163 51.1067 152.47 51.2453 151.958 51.416C151.457 51.576 151.094 51.7787 150.87 52.024C150.646 52.2693 150.534 52.5627 150.534 52.904C150.534 53.3307 150.667 53.64 150.934 53.832C151.201 54.0133 151.521 54.104 151.894 54.104ZM157.796 55V47.224H158.884L158.996 48.344H159.044C159.418 47.9707 159.812 47.6613 160.228 47.416C160.644 47.16 161.119 47.032 161.652 47.032C162.474 47.032 163.071 47.2933 163.444 47.816C163.828 48.328 164.02 49.08 164.02 50.072V55H162.708V50.248C162.708 49.512 162.591 48.984 162.356 48.664C162.132 48.3333 161.759 48.168 161.236 48.168C160.842 48.168 160.484 48.2693 160.164 48.472C159.855 48.6747 159.503 48.9733 159.108 49.368V55H157.796ZM168.994 55.144C168.173 55.144 167.597 54.904 167.266 54.424C166.936 53.944 166.77 53.32 166.77 52.552V48.296H165.618V47.304L166.834 47.224L166.994 44.728H168.098V47.224H170.21V48.296H168.098V52.568C168.098 53.0373 168.184 53.4053 168.354 53.672C168.536 53.9387 168.85 54.072 169.298 54.072C169.437 54.072 169.581 54.0613 169.73 54.04C169.88 54.008 170.029 53.9547 170.178 53.88L170.466 54.808C170.264 54.904 170.034 54.984 169.778 55.048C169.522 55.112 169.261 55.144 168.994 55.144ZM177.812 55.192C176.83 55.192 176.046 54.84 175.46 54.136C174.884 53.4213 174.596 52.4187 174.596 51.128C174.596 50.2853 174.75 49.56 175.06 48.952C175.38 48.3333 175.796 47.8587 176.308 47.528C176.82 47.1973 177.374 47.032 177.972 47.032C178.43 47.032 178.82 47.112 179.14 47.272C179.47 47.4213 179.806 47.64 180.148 47.928L180.084 46.6V43.608H181.412V55H180.324L180.212 54.088H180.164C179.865 54.3867 179.513 54.648 179.108 54.872C178.702 55.0853 178.27 55.192 177.812 55.192ZM178.1 54.088C178.462 54.088 178.804 53.9973 179.124 53.816C179.444 53.6347 179.764 53.368 180.084 53.016V48.952C179.764 48.6533 179.449 48.4453 179.14 48.328C178.83 48.2 178.516 48.136 178.196 48.136C177.78 48.136 177.401 48.264 177.06 48.52C176.729 48.7653 176.462 49.112 176.26 49.56C176.057 49.9973 175.956 50.5147 175.956 51.112C175.956 52.04 176.142 52.7707 176.516 53.304C176.889 53.8267 177.417 54.088 178.1 54.088ZM187.183 55.192C186.489 55.192 185.855 55.032 185.279 54.712C184.713 54.3813 184.265 53.9173 183.935 53.32C183.604 52.712 183.439 51.976 183.439 51.112C183.439 50.2693 183.609 49.544 183.951 48.936C184.292 48.328 184.729 47.8587 185.263 47.528C185.796 47.1973 186.361 47.032 186.959 47.032C187.62 47.032 188.18 47.1867 188.639 47.496C189.108 47.7947 189.46 48.216 189.695 48.76C189.929 49.304 190.047 49.944 190.047 50.68C190.047 50.8187 190.041 50.952 190.031 51.08C190.031 51.208 190.015 51.336 189.983 51.464H184.383V50.424H188.863C188.863 49.6773 188.697 49.1067 188.367 48.712C188.047 48.3067 187.583 48.104 186.975 48.104C186.623 48.104 186.276 48.2053 185.935 48.408C185.593 48.6 185.311 48.9147 185.087 49.352C184.873 49.7893 184.767 50.3707 184.767 51.096C184.767 51.7573 184.879 52.312 185.103 52.76C185.337 53.208 185.652 53.5493 186.047 53.784C186.441 54.008 186.873 54.12 187.343 54.12C187.716 54.12 188.063 54.0667 188.383 53.96C188.713 53.8533 189.012 53.7093 189.279 53.528L189.759 54.392C189.417 54.6267 189.033 54.8187 188.607 54.968C188.191 55.1173 187.716 55.192 187.183 55.192ZM193.726 55L190.926 47.224H192.286L193.758 51.64C193.876 52.0133 193.993 52.3973 194.11 52.792C194.238 53.176 194.361 53.5547 194.478 53.928H194.542C194.649 53.5547 194.766 53.176 194.894 52.792C195.022 52.3973 195.14 52.0133 195.246 51.64L196.718 47.224H198.014L195.262 55H193.726ZM202.846 55V44.504H204.174V55H202.846ZM207.049 55V44.504H209.673C210.751 44.504 211.657 44.7067 212.393 45.112C213.129 45.5173 213.684 46.1093 214.057 46.888C214.441 47.656 214.633 48.5947 214.633 49.704C214.633 50.8133 214.441 51.768 214.057 52.568C213.684 53.3573 213.135 53.96 212.409 54.376C211.684 54.792 210.793 55 209.737 55H207.049ZM208.377 53.912H209.577C210.399 53.912 211.081 53.7467 211.625 53.416C212.169 53.0747 212.575 52.5947 212.841 51.976C213.108 51.3573 213.241 50.6 213.241 49.704C213.241 48.8293 213.108 48.0827 212.841 47.464C212.575 46.8453 212.169 46.3813 211.625 46.072C211.081 45.752 210.399 45.592 209.577 45.592H208.377V53.912ZM216.893 55V44.504H222.941V45.624H218.221V48.92H222.205V50.056H218.221V53.864H223.101V55H216.893ZM229.638 55L227.478 47.224H228.854L229.99 51.72C230.075 52.072 230.155 52.424 230.23 52.776C230.304 53.128 230.374 53.512 230.438 53.928H230.502C230.587 53.512 230.667 53.128 230.742 52.776C230.827 52.424 230.912 52.072 230.998 51.72L232.15 47.224H233.59L234.758 51.72C234.854 52.072 234.939 52.424 235.014 52.776C235.099 53.128 235.184 53.512 235.27 53.928H235.334C235.419 53.512 235.499 53.128 235.574 52.776C235.648 52.424 235.723 52.072 235.798 51.72L236.934 47.224H238.214L236.118 55H234.406L233.366 50.84C233.28 50.4773 233.195 50.12 233.11 49.768C233.035 49.4053 232.955 48.9947 232.87 48.536H232.806C232.731 48.9947 232.651 49.4053 232.566 49.768C232.491 50.1307 232.406 50.488 232.31 50.84L231.27 55H229.638ZM239.906 55V47.224H241.218V55H239.906ZM240.562 45.624C240.306 45.624 240.092 45.544 239.922 45.384C239.762 45.224 239.682 45.016 239.682 44.76C239.682 44.504 239.762 44.296 239.922 44.136C240.092 43.976 240.306 43.896 240.562 43.896C240.818 43.896 241.026 43.976 241.186 44.136C241.356 44.296 241.442 44.504 241.442 44.76C241.442 45.016 241.356 45.224 241.186 45.384C241.026 45.544 240.818 45.624 240.562 45.624ZM246.291 55.144C245.47 55.144 244.894 54.904 244.563 54.424C244.233 53.944 244.067 53.32 244.067 52.552V48.296H242.915V47.304L244.131 47.224L244.291 44.728H245.395V47.224H247.507V48.296H245.395V52.568C245.395 53.0373 245.481 53.4053 245.651 53.672C245.833 53.9387 246.147 54.072 246.595 54.072C246.734 54.072 246.878 54.0613 247.027 54.04C247.177 54.008 247.326 53.9547 247.475 53.88L247.763 54.808C247.561 54.904 247.331 54.984 247.075 55.048C246.819 55.112 246.558 55.144 246.291 55.144ZM249.25 55V43.608H250.562V46.712L250.514 48.312C250.887 47.96 251.276 47.6613 251.682 47.416C252.098 47.16 252.572 47.032 253.106 47.032C253.927 47.032 254.524 47.2933 254.898 47.816C255.282 48.328 255.474 49.08 255.474 50.072V55H254.162V50.248C254.162 49.512 254.044 48.984 253.81 48.664C253.586 48.3333 253.212 48.168 252.69 48.168C252.295 48.168 251.938 48.2693 251.618 48.472C251.308 48.6747 250.956 48.9733 250.562 49.368V55H249.25ZM261.284 55V44.504H263.908C264.985 44.504 265.892 44.7067 266.628 45.112C267.364 45.5173 267.918 46.1093 268.292 46.888C268.676 47.656 268.868 48.5947 268.868 49.704C268.868 50.8133 268.676 51.768 268.292 52.568C267.918 53.3573 267.369 53.96 266.644 54.376C265.918 54.792 265.028 55 263.972 55H261.284ZM262.612 53.912H263.812C264.633 53.912 265.316 53.7467 265.86 53.416C266.404 53.0747 266.809 52.5947 267.076 51.976C267.342 51.3573 267.476 50.6 267.476 49.704C267.476 48.8293 267.342 48.0827 267.076 47.464C266.809 46.8453 266.404 46.3813 265.86 46.072C265.316 45.752 264.633 45.592 263.812 45.592H262.612V53.912ZM271 55V47.224H272.312V55H271ZM271.656 45.624C271.4 45.624 271.186 45.544 271.016 45.384C270.856 45.224 270.776 45.016 270.776 44.76C270.776 44.504 270.856 44.296 271.016 44.136C271.186 43.976 271.4 43.896 271.656 43.896C271.912 43.896 272.12 43.976 272.28 44.136C272.45 44.296 272.536 44.504 272.536 44.76C272.536 45.016 272.45 45.224 272.28 45.384C272.12 45.544 271.912 45.624 271.656 45.624ZM274.937 58.28V47.224H276.025L276.137 48.12H276.185C276.537 47.8213 276.926 47.5653 277.353 47.352C277.78 47.1387 278.217 47.032 278.665 47.032C279.326 47.032 279.886 47.1973 280.345 47.528C280.804 47.848 281.15 48.3067 281.385 48.904C281.62 49.4907 281.737 50.1893 281.737 51C281.737 51.8747 281.577 52.6267 281.257 53.256C280.948 53.8853 280.537 54.3653 280.025 54.696C279.513 55.0267 278.964 55.192 278.377 55.192C278.025 55.192 277.668 55.112 277.305 54.952C276.942 54.792 276.58 54.5733 276.217 54.296L276.249 55.656V58.28H274.937ZM278.153 54.088C278.58 54.088 278.958 53.9653 279.289 53.72C279.63 53.4747 279.897 53.1227 280.089 52.664C280.281 52.1947 280.377 51.64 280.377 51C280.377 50.4347 280.308 49.9387 280.169 49.512C280.03 49.0747 279.812 48.7387 279.513 48.504C279.214 48.2587 278.82 48.136 278.329 48.136C278.009 48.136 277.678 48.2267 277.337 48.408C276.996 48.5787 276.633 48.84 276.249 49.192V53.272C276.612 53.5707 276.953 53.784 277.273 53.912C277.604 54.0293 277.897 54.088 278.153 54.088ZM285.204 55.144C284.873 55.144 284.607 55.08 284.404 54.952C284.201 54.8133 284.052 54.616 283.956 54.36C283.86 54.0933 283.812 53.7733 283.812 53.4V43.608H285.124V53.496C285.124 53.7093 285.161 53.8587 285.236 53.944C285.311 54.0187 285.401 54.056 285.508 54.056C285.551 54.056 285.588 54.056 285.62 54.056C285.663 54.0453 285.716 54.0347 285.78 54.024L285.972 55.016C285.876 55.048 285.764 55.0747 285.636 55.096C285.519 55.128 285.375 55.144 285.204 55.144ZM290.914 55.192C290.285 55.192 289.693 55.032 289.138 54.712C288.594 54.392 288.151 53.928 287.81 53.32C287.479 52.712 287.314 51.9813 287.314 51.128C287.314 50.2533 287.479 49.512 287.81 48.904C288.151 48.296 288.594 47.832 289.138 47.512C289.693 47.192 290.285 47.032 290.914 47.032C291.554 47.032 292.146 47.192 292.69 47.512C293.234 47.832 293.671 48.296 294.002 48.904C294.343 49.512 294.514 50.2533 294.514 51.128C294.514 51.9813 294.343 52.712 294.002 53.32C293.671 53.928 293.234 54.392 292.69 54.712C292.146 55.032 291.554 55.192 290.914 55.192ZM290.914 54.104C291.362 54.104 291.757 53.9813 292.098 53.736C292.439 53.48 292.701 53.128 292.882 52.68C293.063 52.232 293.154 51.7147 293.154 51.128C293.154 50.5307 293.063 50.008 292.882 49.56C292.701 49.1013 292.439 48.7493 292.098 48.504C291.757 48.248 291.362 48.12 290.914 48.12C290.466 48.12 290.071 48.248 289.73 48.504C289.399 48.7493 289.138 49.1013 288.946 49.56C288.765 50.008 288.674 50.5307 288.674 51.128C288.674 51.7147 288.765 52.232 288.946 52.68C289.138 53.128 289.399 53.48 289.73 53.736C290.071 53.9813 290.466 54.104 290.914 54.104ZM296.562 55V47.224H297.874V55H296.562ZM297.218 45.624C296.962 45.624 296.749 45.544 296.578 45.384C296.418 45.224 296.338 45.016 296.338 44.76C296.338 44.504 296.418 44.296 296.578 44.136C296.749 43.976 296.962 43.896 297.218 43.896C297.474 43.896 297.682 43.976 297.842 44.136C298.013 44.296 298.098 44.504 298.098 44.76C298.098 45.016 298.013 45.224 297.842 45.384C297.682 45.544 297.474 45.624 297.218 45.624Z" fill="white" fill-opacity="0.77"/>
<defs>
<linearGradient id="paint0_linear_1889_807" x1="0" y1="0" x2="256.434" y2="213.564" gradientUnits="userSpaceOnUse">
<stop stop-color="#6200EE"/>
<stop offset="1" stop-color="#EC609C"/>
</linearGradient>
</defs>
</svg>
