<svg width="292" height="64" viewBox="0 0 292 64" fill="none" xmlns="http://www.w3.org/2000/svg">
<rect width="292" height="64" rx="32" fill="url(#paint0_linear_1889_807)"/>
<path d="M42.874 35.0019C43.0981 35.0582 48.3749 36.4674 48.3749 44.2186C48.3749 44.5253 48.2531 44.8194 48.0362 45.0362C47.8194 45.253 47.5253 45.3749 47.2186 45.3749C39.4674 45.3749 38.0583 40.098 38.0019 39.874C37.9275 39.5764 37.9744 39.2614 38.1323 38.9983C38.2902 38.7352 38.5461 38.5457 38.8438 38.4713C39.1414 38.397 39.4564 38.4439 39.7195 38.6018C39.9825 38.7597 40.1721 39.0156 40.2465 39.3132C40.2826 39.4433 41.1917 42.5536 46.0075 43.0074C45.5536 38.1917 42.4491 37.2811 42.3046 37.2435C42.0073 37.1669 41.7527 36.9753 41.5967 36.7108C41.4407 36.4464 41.3961 36.1309 41.4728 35.8336C41.5495 35.5364 41.7411 35.2817 42.0055 35.1257C42.2699 34.9698 42.5854 34.9252 42.8827 35.0019L42.874 35.0019ZM33.1326 21.5604L33.822 22.2499L42.2525 22.2499C42.5574 22.2481 42.8595 22.3071 43.1414 22.4232C43.4233 22.5393 43.6792 22.7103 43.8944 22.9263L48.8518 27.8866C49.0673 28.1005 49.2382 28.3549 49.3548 28.6353C49.4714 28.9156 49.5313 29.2162 49.5311 29.5198C49.5311 29.7703 49.4906 30.0192 49.4112 30.2569C49.2762 30.6649 49.0298 31.0271 48.6998 31.3024C48.3699 31.5777 47.9694 31.7553 47.5438 31.8149L41.9808 32.5911L35.5911 38.9808L34.815 44.5409C34.7552 44.9671 34.5777 45.3681 34.3024 45.6989C34.0272 46.0297 33.6651 46.2771 33.2569 46.4133C32.8487 46.5495 32.4106 46.5691 31.9918 46.4699C31.5731 46.3708 31.1903 46.1567 30.8866 45.8518L25.9263 40.8944C25.7103 40.6792 25.5393 40.4233 25.4232 40.1414C25.3071 39.8595 25.2482 39.5574 25.2499 39.2525L25.2499 30.822L24.5605 30.1326C20.7058 26.2765 20.5396 21.6298 20.648 19.8116C20.6823 19.2478 20.9217 18.7161 21.3211 18.3167C21.7205 17.9173 22.2522 17.6779 22.816 17.6436C24.6299 17.5381 29.2765 17.7044 33.1326 21.559L33.1326 21.5604ZM32.5256 44.2186L33.2743 38.8493L27.5624 33.1345L27.5624 39.2525L32.5256 44.2186ZM34.4999 36.8013L39.8013 31.4999L31.498 23.1965C30.3865 22.0775 29.0484 21.2094 27.5736 20.6505C26.0988 20.0916 24.5214 19.8548 22.9475 19.9561C22.85 21.5292 23.0892 23.105 23.6492 24.5783C24.2093 26.0515 25.0772 27.3883 26.1951 28.4994L34.4999 36.8013ZM36.1345 24.5624L41.8479 30.2757L47.2186 29.5241L42.2525 24.5624L36.1345 24.5624Z" fill="white" fill-opacity="0.9"/>
<path d="M269.781 32.5306L263.031 39.2806C262.89 39.4213 262.699 39.5003 262.5 39.5003C262.301 39.5003 262.11 39.4213 261.969 39.2806C261.829 39.1398 261.75 38.949 261.75 38.7499C261.75 38.5509 261.829 38.36 261.969 38.2193L267.44 32.7499H252.75C252.551 32.7499 252.36 32.6709 252.22 32.5303C252.079 32.3896 252 32.1988 252 31.9999C252 31.801 252.079 31.6103 252.22 31.4696C252.36 31.3289 252.551 31.2499 252.75 31.2499H267.44L261.969 25.7806C261.829 25.6398 261.75 25.449 261.75 25.2499C261.75 25.0509 261.829 24.86 261.969 24.7193C262.11 24.5786 262.301 24.4995 262.5 24.4995C262.699 24.4995 262.89 24.5786 263.031 24.7193L269.781 31.4693C269.85 31.539 269.906 31.6217 269.943 31.7127C269.981 31.8038 270.001 31.9014 270.001 31.9999C270.001 32.0985 269.981 32.1961 269.943 32.2871C269.906 32.3782 269.85 32.4609 269.781 32.5306Z" fill="white" fill-opacity="0.87"/>
<path d="M65.328 29V17.8H67.92V26.888H73.536V29H65.328ZM80.1664 29V27.32L80.0064 26.952V23.944C80.0064 23.4107 79.841 22.9947 79.5104 22.696C79.1904 22.3973 78.6944 22.248 78.0224 22.248C77.5637 22.248 77.1104 22.3227 76.6624 22.472C76.225 22.6107 75.8517 22.8027 75.5424 23.048L74.6464 21.304C75.1157 20.9733 75.681 20.7173 76.3424 20.536C77.0037 20.3547 77.6757 20.264 78.3584 20.264C79.6704 20.264 80.689 20.5733 81.4144 21.192C82.1397 21.8107 82.5024 22.776 82.5024 24.088V29H80.1664ZM77.5424 29.128C76.8704 29.128 76.2944 29.016 75.8144 28.792C75.3344 28.5573 74.9664 28.2427 74.7104 27.848C74.4544 27.4533 74.3264 27.0107 74.3264 26.52C74.3264 26.008 74.449 25.56 74.6944 25.176C74.9504 24.792 75.3504 24.4933 75.8944 24.28C76.4384 24.056 77.1477 23.944 78.0224 23.944H80.3104V25.4H78.2944C77.7077 25.4 77.3024 25.496 77.0784 25.688C76.865 25.88 76.7584 26.12 76.7584 26.408C76.7584 26.728 76.881 26.984 77.1264 27.176C77.3824 27.3573 77.729 27.448 78.1664 27.448C78.5824 27.448 78.9557 27.352 79.2864 27.16C79.617 26.9573 79.857 26.664 80.0064 26.28L80.3904 27.432C80.209 27.9867 79.8784 28.408 79.3984 28.696C78.9184 28.984 78.2997 29.128 77.5424 29.128ZM88.3934 29.128C87.6787 29.128 87.0387 28.9893 86.4734 28.712C85.9187 28.4347 85.4867 28.0133 85.1774 27.448C84.868 26.872 84.7134 26.1413 84.7134 25.256V20.392H87.2094V24.888C87.2094 25.6027 87.3587 26.1307 87.6574 26.472C87.9667 26.8027 88.3987 26.968 88.9534 26.968C89.3374 26.968 89.6787 26.888 89.9774 26.728C90.276 26.5573 90.5107 26.3013 90.6814 25.96C90.852 25.608 90.9374 25.1707 90.9374 24.648V20.392H93.4334V29H91.0654V26.632L91.4974 27.32C91.2094 27.9173 90.7827 28.3707 90.2174 28.68C89.6627 28.9787 89.0547 29.128 88.3934 29.128ZM100.978 20.264C101.66 20.264 102.268 20.4027 102.802 20.68C103.346 20.9467 103.772 21.3627 104.082 21.928C104.391 22.4827 104.546 23.1973 104.546 24.072V29H102.05V24.456C102.05 23.7627 101.895 23.2507 101.586 22.92C101.287 22.5893 100.86 22.424 100.306 22.424C99.9111 22.424 99.5538 22.5093 99.2338 22.68C98.9244 22.84 98.6791 23.0907 98.4978 23.432C98.3271 23.7733 98.2418 24.2107 98.2418 24.744V29H95.7458V20.392H98.1298V22.776L97.6818 22.056C97.9911 21.48 98.4338 21.0373 99.0098 20.728C99.5858 20.4187 100.242 20.264 100.978 20.264ZM111.031 29.128C110.103 29.128 109.276 28.9413 108.551 28.568C107.825 28.184 107.255 27.656 106.839 26.984C106.433 26.312 106.231 25.5493 106.231 24.696C106.231 23.832 106.433 23.0693 106.839 22.408C107.255 21.736 107.825 21.2133 108.551 20.84C109.276 20.456 110.103 20.264 111.031 20.264C111.937 20.264 112.727 20.456 113.399 20.84C114.071 21.2133 114.567 21.752 114.887 22.456L112.951 23.496C112.727 23.0907 112.444 22.792 112.103 22.6C111.772 22.408 111.409 22.312 111.015 22.312C110.588 22.312 110.204 22.408 109.863 22.6C109.521 22.792 109.249 23.064 109.047 23.416C108.855 23.768 108.759 24.1947 108.759 24.696C108.759 25.1973 108.855 25.624 109.047 25.976C109.249 26.328 109.521 26.6 109.863 26.792C110.204 26.984 110.588 27.08 111.015 27.08C111.409 27.08 111.772 26.9893 112.103 26.808C112.444 26.616 112.727 26.312 112.951 25.896L114.887 26.952C114.567 27.6453 114.071 28.184 113.399 28.568C112.727 28.9413 111.937 29.128 111.031 29.128ZM121.509 20.264C122.192 20.264 122.8 20.4027 123.333 20.68C123.877 20.9467 124.304 21.3627 124.613 21.928C124.922 22.4827 125.077 23.1973 125.077 24.072V29H122.581V24.456C122.581 23.7627 122.426 23.2507 122.117 22.92C121.818 22.5893 121.392 22.424 120.837 22.424C120.442 22.424 120.085 22.5093 119.765 22.68C119.456 22.84 119.21 23.0907 119.029 23.432C118.858 23.7733 118.773 24.2107 118.773 24.744V29H116.277V17.128H118.773V22.776L118.213 22.056C118.522 21.48 118.965 21.0373 119.541 20.728C120.117 20.4187 120.773 20.264 121.509 20.264ZM134.367 29V19.912H130.783V17.8H140.543V19.912H136.959V29H134.367ZM145.158 29.128C144.177 29.128 143.313 28.936 142.566 28.552C141.83 28.168 141.26 27.6453 140.854 26.984C140.449 26.312 140.246 25.5493 140.246 24.696C140.246 23.832 140.444 23.0693 140.838 22.408C141.244 21.736 141.793 21.2133 142.486 20.84C143.18 20.456 143.964 20.264 144.838 20.264C145.681 20.264 146.438 20.4453 147.11 20.808C147.793 21.16 148.332 21.672 148.726 22.344C149.121 23.0053 149.318 23.8 149.318 24.728C149.318 24.824 149.313 24.936 149.302 25.064C149.292 25.1813 149.281 25.2933 149.27 25.4H142.278V23.944H147.958L146.998 24.376C146.998 23.928 146.908 23.5387 146.726 23.208C146.545 22.8773 146.294 22.6213 145.974 22.44C145.654 22.248 145.281 22.152 144.854 22.152C144.428 22.152 144.049 22.248 143.718 22.44C143.398 22.6213 143.148 22.8827 142.966 23.224C142.785 23.5547 142.694 23.9493 142.694 24.408V24.792C142.694 25.2613 142.796 25.6773 142.998 26.04C143.212 26.392 143.505 26.664 143.878 26.856C144.262 27.0373 144.71 27.128 145.222 27.128C145.681 27.128 146.081 27.0587 146.422 26.92C146.774 26.7813 147.094 26.5733 147.382 26.296L148.71 27.736C148.316 28.184 147.82 28.5307 147.222 28.776C146.625 29.0107 145.937 29.128 145.158 29.128ZM162.004 20.264C162.687 20.264 163.289 20.4027 163.812 20.68C164.345 20.9467 164.761 21.3627 165.06 21.928C165.369 22.4827 165.524 23.1973 165.524 24.072V29H163.028V24.456C163.028 23.7627 162.884 23.2507 162.596 22.92C162.308 22.5893 161.903 22.424 161.38 22.424C161.017 22.424 160.692 22.5093 160.404 22.68C160.116 22.84 159.892 23.0853 159.732 23.416C159.572 23.7467 159.492 24.168 159.492 24.68V29H156.996V24.456C156.996 23.7627 156.852 23.2507 156.564 22.92C156.287 22.5893 155.887 22.424 155.364 22.424C155.001 22.424 154.676 22.5093 154.388 22.68C154.1 22.84 153.876 23.0853 153.716 23.416C153.556 23.7467 153.476 24.168 153.476 24.68V29H150.98V20.392H153.364V22.744L152.916 22.056C153.215 21.4693 153.636 21.0267 154.18 20.728C154.735 20.4187 155.364 20.264 156.068 20.264C156.857 20.264 157.545 20.4667 158.132 20.872C158.729 21.2667 159.124 21.8747 159.316 22.696L158.436 22.456C158.724 21.784 159.183 21.2507 159.812 20.856C160.452 20.4613 161.183 20.264 162.004 20.264ZM172.849 29.128C172.124 29.128 171.489 28.968 170.945 28.648C170.401 28.328 169.975 27.8427 169.665 27.192C169.367 26.5307 169.217 25.6987 169.217 24.696C169.217 23.6827 169.361 22.8507 169.649 22.2C169.937 21.5493 170.353 21.064 170.897 20.744C171.441 20.424 172.092 20.264 172.849 20.264C173.66 20.264 174.385 20.4507 175.025 20.824C175.676 21.1867 176.188 21.6987 176.561 22.36C176.945 23.0213 177.137 23.8 177.137 24.696C177.137 25.6027 176.945 26.3867 176.561 27.048C176.188 27.7093 175.676 28.2213 175.025 28.584C174.385 28.9467 173.66 29.128 172.849 29.128ZM167.761 32.104V20.392H170.145V22.152L170.097 24.712L170.257 27.256V32.104H167.761ZM172.417 27.08C172.833 27.08 173.201 26.984 173.521 26.792C173.852 26.6 174.113 26.328 174.305 25.976C174.508 25.6133 174.609 25.1867 174.609 24.696C174.609 24.1947 174.508 23.768 174.305 23.416C174.113 23.064 173.852 22.792 173.521 22.6C173.201 22.408 172.833 22.312 172.417 22.312C172.001 22.312 171.628 22.408 171.297 22.6C170.967 22.792 170.705 23.064 170.513 23.416C170.321 23.768 170.225 24.1947 170.225 24.696C170.225 25.1867 170.321 25.6133 170.513 25.976C170.705 26.328 170.967 26.6 171.297 26.792C171.628 26.984 172.001 27.08 172.417 27.08ZM178.808 29V17.128H181.304V29H178.808ZM188.901 29V27.32L188.741 26.952V23.944C188.741 23.4107 188.575 22.9947 188.245 22.696C187.925 22.3973 187.429 22.248 186.757 22.248C186.298 22.248 185.845 22.3227 185.397 22.472C184.959 22.6107 184.586 22.8027 184.277 23.048L183.381 21.304C183.85 20.9733 184.415 20.7173 185.077 20.536C185.738 20.3547 186.41 20.264 187.093 20.264C188.405 20.264 189.423 20.5733 190.149 21.192C190.874 21.8107 191.237 22.776 191.237 24.088V29H188.901ZM186.277 29.128C185.605 29.128 185.029 29.016 184.549 28.792C184.069 28.5573 183.701 28.2427 183.445 27.848C183.189 27.4533 183.061 27.0107 183.061 26.52C183.061 26.008 183.183 25.56 183.429 25.176C183.685 24.792 184.085 24.4933 184.629 24.28C185.173 24.056 185.882 23.944 186.757 23.944H189.045V25.4H187.029C186.442 25.4 186.037 25.496 185.813 25.688C185.599 25.88 185.493 26.12 185.493 26.408C185.493 26.728 185.615 26.984 185.861 27.176C186.117 27.3573 186.463 27.448 186.901 27.448C187.317 27.448 187.69 27.352 188.021 27.16C188.351 26.9573 188.591 26.664 188.741 26.28L189.125 27.432C188.943 27.9867 188.613 28.408 188.133 28.696C187.653 28.984 187.034 29.128 186.277 29.128ZM197.016 29.128C196.002 29.128 195.213 28.872 194.648 28.36C194.082 27.8373 193.8 27.064 193.8 26.04V18.488H196.296V26.008C196.296 26.3707 196.392 26.6533 196.584 26.856C196.776 27.048 197.037 27.144 197.368 27.144C197.762 27.144 198.098 27.0373 198.376 26.824L199.048 28.584C198.792 28.7653 198.482 28.904 198.12 29C197.768 29.0853 197.4 29.128 197.016 29.128ZM192.472 22.504V20.584H198.44V22.504H192.472ZM204.455 29.128C203.474 29.128 202.61 28.936 201.863 28.552C201.127 28.168 200.557 27.6453 200.151 26.984C199.746 26.312 199.543 25.5493 199.543 24.696C199.543 23.832 199.741 23.0693 200.135 22.408C200.541 21.736 201.09 21.2133 201.783 20.84C202.477 20.456 203.261 20.264 204.135 20.264C204.978 20.264 205.735 20.4453 206.407 20.808C207.09 21.16 207.629 21.672 208.023 22.344C208.418 23.0053 208.615 23.8 208.615 24.728C208.615 24.824 208.61 24.936 208.599 25.064C208.589 25.1813 208.578 25.2933 208.567 25.4H201.575V23.944H207.255L206.295 24.376C206.295 23.928 206.205 23.5387 206.023 23.208C205.842 22.8773 205.591 22.6213 205.271 22.44C204.951 22.248 204.578 22.152 204.151 22.152C203.725 22.152 203.346 22.248 203.015 22.44C202.695 22.6213 202.445 22.8827 202.263 23.224C202.082 23.5547 201.991 23.9493 201.991 24.408V24.792C201.991 25.2613 202.093 25.6773 202.295 26.04C202.509 26.392 202.802 26.664 203.175 26.856C203.559 27.0373 204.007 27.128 204.519 27.128C204.978 27.128 205.378 27.0587 205.719 26.92C206.071 26.7813 206.391 26.5733 206.679 26.296L208.007 27.736C207.613 28.184 207.117 28.5307 206.519 28.776C205.922 29.0107 205.234 29.128 204.455 29.128Z" fill="white"/>
<path d="M68.176 46.144C67.48 46.144 66.864 45.984 66.328 45.664C65.8 45.336 65.384 44.868 65.08 44.26C64.776 43.652 64.624 42.92 64.624 42.064C64.624 41.432 64.712 40.864 64.888 40.36C65.072 39.856 65.324 39.428 65.644 39.076C65.972 38.716 66.356 38.444 66.796 38.26C67.236 38.076 67.716 37.984 68.236 37.984C68.78 37.984 69.236 38.084 69.604 38.284C69.98 38.484 70.28 38.708 70.504 38.956L69.952 39.58C69.76 39.372 69.528 39.2 69.256 39.064C68.992 38.928 68.66 38.86 68.26 38.86C67.732 38.86 67.272 38.992 66.88 39.256C66.488 39.512 66.184 39.876 65.968 40.348C65.76 40.82 65.656 41.384 65.656 42.04C65.656 42.704 65.756 43.276 65.956 43.756C66.164 44.236 66.46 44.608 66.844 44.872C67.236 45.136 67.712 45.268 68.272 45.268C68.552 45.268 68.82 45.228 69.076 45.148C69.332 45.06 69.536 44.944 69.688 44.8V42.748H68.02V41.92H70.6V45.232C70.352 45.496 70.016 45.716 69.592 45.892C69.176 46.06 68.704 46.144 68.176 46.144ZM74.7543 46.144C74.2343 46.144 73.7583 46.024 73.3263 45.784C72.9023 45.536 72.5663 45.188 72.3183 44.74C72.0703 44.284 71.9463 43.732 71.9463 43.084C71.9463 42.452 72.0743 41.908 72.3303 41.452C72.5863 40.996 72.9143 40.644 73.3143 40.396C73.7143 40.148 74.1383 40.024 74.5863 40.024C75.0823 40.024 75.5023 40.14 75.8463 40.372C76.1983 40.596 76.4623 40.912 76.6383 41.32C76.8143 41.728 76.9023 42.208 76.9023 42.76C76.9023 42.864 76.8983 42.964 76.8903 43.06C76.8903 43.156 76.8783 43.252 76.8543 43.348H72.6543V42.568H76.0143C76.0143 42.008 75.8903 41.58 75.6423 41.284C75.4023 40.98 75.0543 40.828 74.5983 40.828C74.3343 40.828 74.0743 40.904 73.8183 41.056C73.5623 41.2 73.3503 41.436 73.1823 41.764C73.0223 42.092 72.9423 42.528 72.9423 43.072C72.9423 43.568 73.0263 43.984 73.1943 44.32C73.3703 44.656 73.6063 44.912 73.9023 45.088C74.1983 45.256 74.5223 45.34 74.8743 45.34C75.1543 45.34 75.4143 45.3 75.6543 45.22C75.9023 45.14 76.1263 45.032 76.3263 44.896L76.6863 45.544C76.4303 45.72 76.1423 45.864 75.8223 45.976C75.5103 46.088 75.1543 46.144 74.7543 46.144ZM80.0622 46.108C79.4462 46.108 79.0142 45.928 78.7662 45.568C78.5182 45.208 78.3942 44.74 78.3942 44.164V40.972H77.5302V40.228L78.4422 40.168L78.5622 38.296H79.3902V40.168H80.9742V40.972H79.3902V44.176C79.3902 44.528 79.4542 44.804 79.5822 45.004C79.7182 45.204 79.9542 45.304 80.2902 45.304C80.3942 45.304 80.5022 45.296 80.6142 45.28C80.7262 45.256 80.8382 45.216 80.9502 45.16L81.1662 45.856C81.0142 45.928 80.8422 45.988 80.6502 46.036C80.4582 46.084 80.2622 46.108 80.0622 46.108ZM86.0272 46.144C85.7072 46.144 85.4152 46.08 85.1512 45.952C84.8952 45.816 84.6912 45.628 84.5392 45.388C84.3872 45.14 84.3112 44.84 84.3112 44.488C84.3112 43.832 84.5992 43.336 85.1752 43C85.7512 42.664 86.6632 42.428 87.9112 42.292C87.9032 42.052 87.8632 41.82 87.7912 41.596C87.7272 41.372 87.6072 41.192 87.4312 41.056C87.2552 40.92 87.0112 40.852 86.6992 40.852C86.3632 40.852 86.0472 40.916 85.7512 41.044C85.4552 41.164 85.1912 41.3 84.9592 41.452L84.5752 40.78C84.7512 40.66 84.9592 40.544 85.1992 40.432C85.4392 40.312 85.6992 40.216 85.9792 40.144C86.2592 40.064 86.5552 40.024 86.8672 40.024C87.3392 40.024 87.7232 40.124 88.0192 40.324C88.3232 40.516 88.5432 40.792 88.6792 41.152C88.8232 41.512 88.8952 41.936 88.8952 42.424V46H88.0792L87.9952 45.304H87.9592C87.6792 45.536 87.3792 45.736 87.0592 45.904C86.7392 46.064 86.3952 46.144 86.0272 46.144ZM86.3032 45.328C86.5912 45.328 86.8592 45.264 87.1072 45.136C87.3632 45.008 87.6312 44.82 87.9112 44.572V43C87.2552 43.08 86.7352 43.184 86.3512 43.312C85.9752 43.432 85.7032 43.584 85.5352 43.768C85.3672 43.952 85.2832 44.172 85.2832 44.428C85.2832 44.748 85.3832 44.98 85.5832 45.124C85.7832 45.26 86.0232 45.328 86.3032 45.328ZM90.7301 46V40.168H91.5461L91.6301 41.008H91.6661C91.9461 40.728 92.2421 40.496 92.5541 40.312C92.8661 40.12 93.2221 40.024 93.6221 40.024C94.2381 40.024 94.6861 40.22 94.9661 40.612C95.2541 40.996 95.3981 41.56 95.3981 42.304V46H94.4141V42.436C94.4141 41.884 94.3261 41.488 94.1501 41.248C93.9821 41 93.7021 40.876 93.3101 40.876C93.0141 40.876 92.7461 40.952 92.5061 41.104C92.2741 41.256 92.0101 41.48 91.7141 41.776V46H90.7301ZM99.6949 46V40.168H100.679V46H99.6949ZM100.187 38.968C99.9949 38.968 99.8349 38.908 99.7069 38.788C99.5869 38.668 99.5269 38.512 99.5269 38.32C99.5269 38.128 99.5869 37.972 99.7069 37.852C99.8349 37.732 99.9949 37.672 100.187 37.672C100.379 37.672 100.535 37.732 100.655 37.852C100.783 37.972 100.847 38.128 100.847 38.32C100.847 38.512 100.783 38.668 100.655 38.788C100.535 38.908 100.379 38.968 100.187 38.968ZM102.648 46V40.168H103.464L103.548 41.008H103.584C103.864 40.728 104.16 40.496 104.472 40.312C104.784 40.12 105.14 40.024 105.54 40.024C106.156 40.024 106.604 40.22 106.884 40.612C107.172 40.996 107.316 41.56 107.316 42.304V46H106.332V42.436C106.332 41.884 106.244 41.488 106.068 41.248C105.9 41 105.62 40.876 105.228 40.876C104.932 40.876 104.664 40.952 104.424 41.104C104.192 41.256 103.928 41.48 103.632 41.776V46H102.648ZM110.735 46.144C110.311 46.144 109.907 46.072 109.523 45.928C109.147 45.776 108.827 45.568 108.563 45.304L109.019 44.728C109.275 44.936 109.539 45.096 109.811 45.208C110.091 45.32 110.411 45.376 110.771 45.376C111.155 45.376 111.443 45.288 111.635 45.112C111.827 44.928 111.923 44.712 111.923 44.464C111.923 44.264 111.855 44.1 111.719 43.972C111.591 43.836 111.427 43.724 111.227 43.636C111.035 43.54 110.827 43.452 110.603 43.372C110.315 43.268 110.039 43.148 109.775 43.012C109.511 42.868 109.295 42.692 109.127 42.484C108.967 42.268 108.887 42 108.887 41.68C108.887 41.208 109.063 40.816 109.415 40.504C109.775 40.184 110.271 40.024 110.903 40.024C111.263 40.024 111.599 40.088 111.911 40.216C112.223 40.336 112.491 40.492 112.715 40.684L112.259 41.248C112.051 41.104 111.839 40.992 111.623 40.912C111.407 40.832 111.167 40.792 110.903 40.792C110.535 40.792 110.263 40.876 110.087 41.044C109.919 41.212 109.835 41.408 109.835 41.632C109.835 41.808 109.887 41.956 109.991 42.076C110.095 42.188 110.239 42.288 110.423 42.376C110.615 42.464 110.831 42.548 111.071 42.628C111.375 42.74 111.663 42.868 111.935 43.012C112.215 43.148 112.439 43.328 112.607 43.552C112.783 43.768 112.871 44.052 112.871 44.404C112.871 44.724 112.787 45.016 112.619 45.28C112.459 45.536 112.219 45.744 111.899 45.904C111.587 46.064 111.199 46.144 110.735 46.144ZM115.84 46.108C115.224 46.108 114.792 45.928 114.544 45.568C114.296 45.208 114.172 44.74 114.172 44.164V40.972H113.308V40.228L114.22 40.168L114.34 38.296H115.168V40.168H116.752V40.972H115.168V44.176C115.168 44.528 115.232 44.804 115.36 45.004C115.496 45.204 115.732 45.304 116.068 45.304C116.172 45.304 116.28 45.296 116.392 45.28C116.504 45.256 116.616 45.216 116.728 45.16L116.944 45.856C116.792 45.928 116.62 45.988 116.428 46.036C116.236 46.084 116.04 46.108 115.84 46.108ZM119.144 46.144C118.824 46.144 118.532 46.08 118.268 45.952C118.012 45.816 117.808 45.628 117.656 45.388C117.504 45.14 117.428 44.84 117.428 44.488C117.428 43.832 117.716 43.336 118.292 43C118.868 42.664 119.78 42.428 121.028 42.292C121.02 42.052 120.98 41.82 120.908 41.596C120.844 41.372 120.724 41.192 120.548 41.056C120.372 40.92 120.128 40.852 119.816 40.852C119.48 40.852 119.164 40.916 118.868 41.044C118.572 41.164 118.308 41.3 118.076 41.452L117.692 40.78C117.868 40.66 118.076 40.544 118.316 40.432C118.556 40.312 118.816 40.216 119.096 40.144C119.376 40.064 119.672 40.024 119.984 40.024C120.456 40.024 120.84 40.124 121.136 40.324C121.44 40.516 121.66 40.792 121.796 41.152C121.94 41.512 122.012 41.936 122.012 42.424V46H121.196L121.112 45.304H121.076C120.796 45.536 120.496 45.736 120.176 45.904C119.856 46.064 119.512 46.144 119.144 46.144ZM119.42 45.328C119.708 45.328 119.976 45.264 120.224 45.136C120.48 45.008 120.748 44.82 121.028 44.572V43C120.372 43.08 119.852 43.184 119.468 43.312C119.092 43.432 118.82 43.584 118.652 43.768C118.484 43.952 118.4 44.172 118.4 44.428C118.4 44.748 118.5 44.98 118.7 45.124C118.9 45.26 119.14 45.328 119.42 45.328ZM123.847 46V40.168H124.663L124.747 41.008H124.783C125.063 40.728 125.359 40.496 125.671 40.312C125.983 40.12 126.339 40.024 126.739 40.024C127.355 40.024 127.803 40.22 128.083 40.612C128.371 40.996 128.515 41.56 128.515 42.304V46H127.531V42.436C127.531 41.884 127.443 41.488 127.267 41.248C127.099 41 126.819 40.876 126.427 40.876C126.131 40.876 125.863 40.952 125.623 41.104C125.391 41.256 125.127 41.48 124.831 41.776V46H123.847ZM132.246 46.108C131.63 46.108 131.198 45.928 130.95 45.568C130.702 45.208 130.578 44.74 130.578 44.164V40.972H129.714V40.228L130.626 40.168L130.746 38.296H131.574V40.168H133.158V40.972H131.574V44.176C131.574 44.528 131.638 44.804 131.766 45.004C131.902 45.204 132.138 45.304 132.474 45.304C132.578 45.304 132.686 45.296 132.798 45.28C132.91 45.256 133.022 45.216 133.134 45.16L133.35 45.856C133.198 45.928 133.026 45.988 132.834 46.036C132.642 46.084 132.446 46.108 132.246 46.108ZM138.859 46.144C138.123 46.144 137.535 45.88 137.095 45.352C136.663 44.816 136.447 44.064 136.447 43.096C136.447 42.464 136.563 41.92 136.795 41.464C137.035 41 137.347 40.644 137.731 40.396C138.115 40.148 138.531 40.024 138.979 40.024C139.323 40.024 139.615 40.084 139.855 40.204C140.103 40.316 140.355 40.48 140.611 40.696L140.563 39.7V37.456H141.559V46H140.743L140.659 45.316H140.623C140.399 45.54 140.135 45.736 139.831 45.904C139.527 46.064 139.203 46.144 138.859 46.144ZM139.075 45.316C139.347 45.316 139.603 45.248 139.843 45.112C140.083 44.976 140.323 44.776 140.563 44.512V41.464C140.323 41.24 140.087 41.084 139.855 40.996C139.623 40.9 139.387 40.852 139.147 40.852C138.835 40.852 138.551 40.948 138.295 41.14C138.047 41.324 137.847 41.584 137.695 41.92C137.543 42.248 137.467 42.636 137.467 43.084C137.467 43.78 137.607 44.328 137.887 44.728C138.167 45.12 138.563 45.316 139.075 45.316ZM145.887 46.144C145.367 46.144 144.891 46.024 144.459 45.784C144.035 45.536 143.699 45.188 143.451 44.74C143.203 44.284 143.079 43.732 143.079 43.084C143.079 42.452 143.207 41.908 143.463 41.452C143.719 40.996 144.047 40.644 144.447 40.396C144.847 40.148 145.271 40.024 145.719 40.024C146.215 40.024 146.635 40.14 146.979 40.372C147.331 40.596 147.595 40.912 147.771 41.32C147.947 41.728 148.035 42.208 148.035 42.76C148.035 42.864 148.031 42.964 148.023 43.06C148.023 43.156 148.011 43.252 147.987 43.348H143.787V42.568H147.147C147.147 42.008 147.023 41.58 146.775 41.284C146.535 40.98 146.187 40.828 145.731 40.828C145.467 40.828 145.207 40.904 144.951 41.056C144.695 41.2 144.483 41.436 144.315 41.764C144.155 42.092 144.075 42.528 144.075 43.072C144.075 43.568 144.159 43.984 144.327 44.32C144.503 44.656 144.739 44.912 145.035 45.088C145.331 45.256 145.655 45.34 146.007 45.34C146.287 45.34 146.547 45.3 146.787 45.22C147.035 45.14 147.259 45.032 147.459 44.896L147.819 45.544C147.563 45.72 147.275 45.864 146.955 45.976C146.643 46.088 146.287 46.144 145.887 46.144ZM150.795 46L148.695 40.168H149.715L150.819 43.48C150.907 43.76 150.995 44.048 151.083 44.344C151.179 44.632 151.271 44.916 151.359 45.196H151.407C151.487 44.916 151.575 44.632 151.671 44.344C151.767 44.048 151.855 43.76 151.935 43.48L153.039 40.168H154.011L151.947 46H150.795ZM157.635 46V38.128H158.631V46H157.635ZM160.787 46V38.128H162.755C163.563 38.128 164.243 38.28 164.795 38.584C165.347 38.888 165.763 39.332 166.043 39.916C166.331 40.492 166.475 41.196 166.475 42.028C166.475 42.86 166.331 43.576 166.043 44.176C165.763 44.768 165.351 45.22 164.807 45.532C164.263 45.844 163.595 46 162.803 46H160.787ZM161.783 45.184H162.683C163.299 45.184 163.811 45.06 164.219 44.812C164.627 44.556 164.931 44.196 165.131 43.732C165.331 43.268 165.431 42.7 165.431 42.028C165.431 41.372 165.331 40.812 165.131 40.348C164.931 39.884 164.627 39.536 164.219 39.304C163.811 39.064 163.299 38.944 162.683 38.944H161.783V45.184ZM168.17 46V38.128H172.706V38.968H169.166V41.44H172.154V42.292H169.166V45.148H172.826V46H168.17ZM177.728 46L176.108 40.168H177.14L177.992 43.54C178.056 43.804 178.116 44.068 178.172 44.332C178.228 44.596 178.28 44.884 178.328 45.196H178.376C178.44 44.884 178.5 44.596 178.556 44.332C178.62 44.068 178.684 43.804 178.748 43.54L179.612 40.168H180.692L181.568 43.54C181.64 43.804 181.704 44.068 181.76 44.332C181.824 44.596 181.888 44.884 181.952 45.196H182C182.064 44.884 182.124 44.596 182.18 44.332C182.236 44.068 182.292 43.804 182.348 43.54L183.2 40.168H184.16L182.588 46H181.304L180.524 42.88C180.46 42.608 180.396 42.34 180.332 42.076C180.276 41.804 180.216 41.496 180.152 41.152H180.104C180.048 41.496 179.988 41.804 179.924 42.076C179.868 42.348 179.804 42.616 179.732 42.88L178.952 46H177.728ZM185.429 46V40.168H186.413V46H185.429ZM185.921 38.968C185.729 38.968 185.569 38.908 185.441 38.788C185.321 38.668 185.261 38.512 185.261 38.32C185.261 38.128 185.321 37.972 185.441 37.852C185.569 37.732 185.729 37.672 185.921 37.672C186.113 37.672 186.269 37.732 186.389 37.852C186.517 37.972 186.581 38.128 186.581 38.32C186.581 38.512 186.517 38.668 186.389 38.788C186.269 38.908 186.113 38.968 185.921 38.968ZM190.218 46.108C189.602 46.108 189.17 45.928 188.922 45.568C188.674 45.208 188.55 44.74 188.55 44.164V40.972H187.686V40.228L188.598 40.168L188.718 38.296H189.546V40.168H191.13V40.972H189.546V44.176C189.546 44.528 189.61 44.804 189.738 45.004C189.874 45.204 190.11 45.304 190.446 45.304C190.55 45.304 190.658 45.296 190.77 45.28C190.882 45.256 190.994 45.216 191.106 45.16L191.322 45.856C191.17 45.928 190.998 45.988 190.806 46.036C190.614 46.084 190.418 46.108 190.218 46.108ZM192.437 46V37.456H193.421V39.784L193.385 40.984C193.665 40.72 193.957 40.496 194.261 40.312C194.573 40.12 194.929 40.024 195.329 40.024C195.945 40.024 196.393 40.22 196.673 40.612C196.961 40.996 197.105 41.56 197.105 42.304V46H196.121V42.436C196.121 41.884 196.033 41.488 195.857 41.248C195.689 41 195.409 40.876 195.017 40.876C194.721 40.876 194.453 40.952 194.213 41.104C193.981 41.256 193.717 41.48 193.421 41.776V46H192.437ZM201.463 46V38.128H203.431C204.239 38.128 204.919 38.28 205.471 38.584C206.023 38.888 206.439 39.332 206.719 39.916C207.007 40.492 207.151 41.196 207.151 42.028C207.151 42.86 207.007 43.576 206.719 44.176C206.439 44.768 206.027 45.22 205.483 45.532C204.939 45.844 204.271 46 203.479 46H201.463ZM202.459 45.184H203.359C203.975 45.184 204.487 45.06 204.895 44.812C205.303 44.556 205.607 44.196 205.807 43.732C206.007 43.268 206.107 42.7 206.107 42.028C206.107 41.372 206.007 40.812 205.807 40.348C205.607 39.884 205.303 39.536 204.895 39.304C204.487 39.064 203.975 38.944 203.359 38.944H202.459V45.184ZM208.75 46V40.168H209.734V46H208.75ZM209.242 38.968C209.05 38.968 208.89 38.908 208.762 38.788C208.642 38.668 208.582 38.512 208.582 38.32C208.582 38.128 208.642 37.972 208.762 37.852C208.89 37.732 209.05 37.672 209.242 37.672C209.434 37.672 209.59 37.732 209.71 37.852C209.838 37.972 209.902 38.128 209.902 38.32C209.902 38.512 209.838 38.668 209.71 38.788C209.59 38.908 209.434 38.968 209.242 38.968ZM211.703 48.46V40.168H212.519L212.603 40.84H212.639C212.903 40.616 213.195 40.424 213.515 40.264C213.835 40.104 214.163 40.024 214.499 40.024C214.995 40.024 215.415 40.148 215.759 40.396C216.103 40.636 216.363 40.98 216.539 41.428C216.715 41.868 216.803 42.392 216.803 43C216.803 43.656 216.683 44.22 216.443 44.692C216.211 45.164 215.903 45.524 215.519 45.772C215.135 46.02 214.723 46.144 214.283 46.144C214.019 46.144 213.751 46.084 213.479 45.964C213.207 45.844 212.935 45.68 212.663 45.472L212.687 46.492V48.46H211.703ZM214.115 45.316C214.435 45.316 214.719 45.224 214.967 45.04C215.223 44.856 215.423 44.592 215.567 44.248C215.711 43.896 215.783 43.48 215.783 43C215.783 42.576 215.731 42.204 215.627 41.884C215.523 41.556 215.359 41.304 215.135 41.128C214.911 40.944 214.615 40.852 214.247 40.852C214.007 40.852 213.759 40.92 213.503 41.056C213.247 41.184 212.975 41.38 212.687 41.644V44.704C212.959 44.928 213.215 45.088 213.455 45.184C213.703 45.272 213.923 45.316 214.115 45.316ZM219.403 46.108C219.155 46.108 218.955 46.06 218.803 45.964C218.651 45.86 218.539 45.712 218.467 45.52C218.395 45.32 218.359 45.08 218.359 44.8V37.456H219.343V44.872C219.343 45.032 219.371 45.144 219.427 45.208C219.483 45.264 219.551 45.292 219.631 45.292C219.663 45.292 219.691 45.292 219.715 45.292C219.747 45.284 219.787 45.276 219.835 45.268L219.979 46.012C219.907 46.036 219.823 46.056 219.727 46.072C219.639 46.096 219.531 46.108 219.403 46.108ZM223.686 46.144C223.214 46.144 222.77 46.024 222.354 45.784C221.946 45.544 221.614 45.196 221.358 44.74C221.11 44.284 220.986 43.736 220.986 43.096C220.986 42.44 221.11 41.884 221.358 41.428C221.614 40.972 221.946 40.624 222.354 40.384C222.77 40.144 223.214 40.024 223.686 40.024C224.166 40.024 224.61 40.144 225.018 40.384C225.426 40.624 225.754 40.972 226.002 41.428C226.258 41.884 226.386 42.44 226.386 43.096C226.386 43.736 226.258 44.284 226.002 44.74C225.754 45.196 225.426 45.544 225.018 45.784C224.61 46.024 224.166 46.144 223.686 46.144ZM223.686 45.328C224.022 45.328 224.318 45.236 224.574 45.052C224.83 44.86 225.026 44.596 225.162 44.26C225.298 43.924 225.366 43.536 225.366 43.096C225.366 42.648 225.298 42.256 225.162 41.92C225.026 41.576 224.83 41.312 224.574 41.128C224.318 40.936 224.022 40.84 223.686 40.84C223.35 40.84 223.054 40.936 222.798 41.128C222.55 41.312 222.354 41.576 222.21 41.92C222.074 42.256 222.006 42.648 222.006 43.096C222.006 43.536 222.074 43.924 222.21 44.26C222.354 44.596 222.55 44.86 222.798 45.052C223.054 45.236 223.35 45.328 223.686 45.328ZM227.922 46V40.168H228.906V46H227.922ZM228.414 38.968C228.222 38.968 228.062 38.908 227.934 38.788C227.814 38.668 227.754 38.512 227.754 38.32C227.754 38.128 227.814 37.972 227.934 37.852C228.062 37.732 228.222 37.672 228.414 37.672C228.606 37.672 228.762 37.732 228.882 37.852C229.01 37.972 229.074 38.128 229.074 38.32C229.074 38.512 229.01 38.668 228.882 38.788C228.762 38.908 228.606 38.968 228.414 38.968Z" fill="white" fill-opacity="0.77"/>
<defs>
<linearGradient id="paint0_linear_1889_807" x1="0" y1="0" x2="212.853" y2="165.681" gradientUnits="userSpaceOnUse">
<stop stop-color="#6200EE"/>
<stop offset="1" stop-color="#EC609C"/>
</linearGradient>
</defs>
</svg>
