<svg width="522" height="422" viewBox="0 0 522 422" fill="none" xmlns="http://www.w3.org/2000/svg">
<defs>
    <linearGradient id="gradient-one">
      <stop class="start" offset="0%"></stop>
      <stop class="end" offset="100%"></stop>
    </linearGradient>
    <linearGradient id="gradient-three" x1="0" x2="0" y1="0" y2="1">
      <stop class="start" offset="0%"></stop>
      <stop class="end" offset="100%"></stop>
    </linearGradient>
  </defs>
  <style>
    .start {
      stop-color:  #6650fa;
    }
    .end {
      stop-color: #ec609c;
    }
  </style>
<path d="M298 24H310" stroke="#9660F7" stroke-width="4" stroke-linecap="round"/>
<path d="M304 18L304 30" stroke="#9660F7" stroke-width="4" stroke-linecap="round"/>
<path d="M475 153H487" stroke="#9660F7" stroke-width="4" stroke-linecap="round"/>
<path d="M481 147L481 159" stroke="#9660F7" stroke-width="4" stroke-linecap="round"/>
<path d="M261 327H273" stroke="#9660F7" stroke-width="4" stroke-linecap="round"/>
<path d="M267 321L267 333" stroke="#9660F7" stroke-width="4" stroke-linecap="round"/>
<path d="M43 378H55" stroke="#9660F7" stroke-width="4" stroke-linecap="round"/>
<path d="M49 372L49 384" stroke="#9660F7" stroke-width="4" stroke-linecap="round"/>
<path d="M382.728 111.157L382.728 111.157L369.129 116.104L369.102 116.114L369.092 116.141L364.149 129.741C364.149 129.742 364.149 129.742 364.149 129.742C363.91 130.386 363.479 130.942 362.915 131.335C362.351 131.727 361.68 131.938 360.993 131.938C360.305 131.938 359.634 131.727 359.07 131.335C358.506 130.942 358.075 130.386 357.836 129.741C357.836 129.741 357.836 129.741 357.836 129.741L352.891 116.126L352.881 116.099L352.854 116.089L339.258 111.158C339.258 111.158 339.258 111.158 339.258 111.158C338.613 110.918 338.058 110.488 337.665 109.923C337.273 109.359 337.062 108.688 337.062 108C337.062 107.312 337.273 106.641 337.665 106.077C338.058 105.513 338.613 105.082 339.258 104.842C339.258 104.842 339.258 104.842 339.258 104.842L352.869 99.8959L352.896 99.886L352.906 99.8585L357.836 86.2586C357.836 86.2585 357.836 86.2585 357.836 86.2584C358.075 85.6139 358.506 85.058 359.07 84.6655C359.634 84.2729 360.305 84.0625 360.993 84.0625C361.68 84.0625 362.351 84.2729 362.915 84.6655C363.479 85.058 363.91 85.6139 364.149 86.2585C364.149 86.2585 364.149 86.2585 364.149 86.2586L369.094 99.8735L369.104 99.901L369.132 99.911L382.728 104.843L382.728 104.843C383.379 105.074 383.941 105.502 384.337 106.068C384.733 106.634 384.943 107.309 384.937 108L384.937 108C384.943 108.691 384.733 109.366 384.337 109.932C383.941 110.498 383.379 110.926 382.728 111.157Z" fill="url(#gradient-one)" stroke="#9660F7" stroke-width="0.125"/>
<path d="M167.728 291.157L167.728 291.157L154.129 296.104L154.102 296.114L154.092 296.141L149.149 309.741C149.149 309.742 149.149 309.742 149.149 309.742C148.91 310.386 148.479 310.942 147.915 311.335C147.351 311.727 146.68 311.938 145.993 311.938C145.305 311.938 144.634 311.727 144.07 311.335C143.506 310.942 143.075 310.386 142.836 309.741C142.836 309.741 142.836 309.741 142.836 309.741L137.891 296.126L137.881 296.099L137.854 296.089L124.258 291.158C124.258 291.158 124.258 291.158 124.258 291.158C123.613 290.918 123.058 290.488 122.665 289.923C122.273 289.359 122.062 288.688 122.062 288C122.062 287.312 122.273 286.641 122.665 286.077C123.058 285.513 123.613 285.082 124.258 284.842C124.258 284.842 124.258 284.842 124.258 284.842L137.869 279.896L137.896 279.886L137.906 279.859L142.836 266.259C142.836 266.259 142.836 266.258 142.836 266.258C143.075 265.614 143.506 265.058 144.07 264.665C144.634 264.273 145.305 264.062 145.993 264.062C146.68 264.062 147.351 264.273 147.915 264.665C148.479 265.058 148.91 265.614 149.149 266.258C149.149 266.258 149.149 266.259 149.149 266.259L154.094 279.874L154.104 279.901L154.132 279.911L167.728 284.843L167.728 284.843C168.379 285.074 168.941 285.502 169.337 286.068C169.733 286.634 169.943 287.309 169.937 288L169.937 288C169.943 288.691 169.733 289.366 169.337 289.932C168.941 290.498 168.379 290.926 167.728 291.157Z" fill="url(#gradient-three)" stroke="#9660F7" stroke-width="0.125"/>
</svg>
