<svg width="42" height="42" viewBox="0 0 42 42" fill="none" xmlns="http://www.w3.org/2000/svg">
<g clip-path="url(#clip0_604_10)">
<path d="M21.0336 -7.62939e-06C11.6643 -7.62939e-06 3.72972 6.13993 1.02848 14.6164L3.42075 13.5467C5.65567 12.5252 12.2291 9.78012 12.2291 9.78012L13.8246 13.5888C13.8246 13.5888 6.96456 16.5066 4.58611 17.6031C3.84506 17.9338 3.17582 18.2494 2.57817 18.5495L1.73559 18.9553C1.46064 19.1508 1.24558 19.4213 1.09004 19.7666C0.934946 20.1124 0.857178 20.4731 0.857178 20.8483C0.857178 21.2241 0.934946 21.5809 1.09004 21.919C1.24558 22.2569 1.45483 22.5161 1.71771 22.6965L2.57817 23.1245C3.17582 23.4252 3.84506 23.7408 4.58611 24.0712C6.96456 25.1681 14.4718 28.1863 14.4718 28.1863L12.8764 31.995C12.8764 31.995 5.65567 29.1494 3.42075 28.1275L0.919755 27.0331C1.83422 30.0883 3.42431 32.8515 5.51794 35.1478C9.31017 37.9011 15.1143 35.9758 16.1387 30.9556L22.5091 0.0520477C22.0216 0.0181656 21.5297 -7.62939e-06 21.0336 -7.62939e-06Z" fill="#289C6A"/>
<path d="M29.1968 31.9962L27.6033 28.1864C27.6033 28.1864 35.1094 25.1671 37.4886 24.0703C38.23 23.7417 38.9002 23.4265 39.495 23.1245L40.3561 22.6982C40.618 22.5162 40.8311 22.2586 40.9864 21.9211C41.1418 21.5792 41.2173 21.2241 41.2173 20.8467C41.2173 20.4736 41.1418 20.114 40.9864 19.7677C40.8311 19.4213 40.6136 19.1504 40.3384 18.9551L39.495 18.551C38.9002 18.249 38.23 17.9338 37.4886 17.6053C35.1094 16.5085 28.2513 13.5868 28.2513 13.5868L29.8449 9.7815C29.8449 9.7815 36.4188 12.5256 38.6561 13.5469L41.0308 14.5992C40.2718 12.2192 39.0955 10.0213 37.5907 8.0942C37.5862 8.0942 37.5862 8.08977 37.5862 8.08977C37.5108 7.98762 37.4309 7.88991 37.3466 7.78783C37.28 7.7123 37.2179 7.63683 37.1557 7.5658C36.5565 6.87315 35.975 6.37135 35.6908 6.14488C35.6864 6.14052 35.682 6.13601 35.6776 6.13601C31.8513 3.6095 26.3116 5.6521 25.3173 10.5053L18.9519 41.8979C19.6355 41.9646 20.3325 42.0001 21.0338 42.0001C30.5329 42.0001 38.5584 35.6904 41.1462 27.0275L38.6561 28.1286C36.4188 29.15 29.1968 31.9962 29.1968 31.9962Z" fill="#EE7C3C"/>
</g>
<defs>
<clipPath id="clip0_604_10">
<rect width="42" height="42" fill="white"/>
</clipPath>
</defs>
</svg>