<svg width="324" height="430" viewBox="0 0 324 430" fill="none" xmlns="http://www.w3.org/2000/svg">
<defs>
    <linearGradient id="gradient-one">
      <stop class="start" offset="0%"></stop>
      <stop class="end" offset="100%"></stop>
    </linearGradient>
    <linearGradient id="gradient-three" x1="0" x2="0" y1="0" y2="1">
      <stop class="start" offset="0%"></stop>
      <stop class="end" offset="100%"></stop>
    </linearGradient>
  </defs>
  <style>
    .start {
      stop-color:  #6650fa;
    }
    .end {
      stop-color: #ec609c;
    }
  </style>

<path d="M166 4C166 1.79086 164.209 0 162 0C159.791 0 158 1.79086 158 4H166ZM158 4V103H166V4H158Z" fill="#DC699B"/>
<path d="M159.172 428.828C160.734 430.391 163.266 430.391 164.828 428.828L190.284 403.373C191.846 401.81 191.846 399.278 190.284 397.716C188.722 396.154 186.19 396.154 184.627 397.716L162 420.343L139.373 397.716C137.81 396.154 135.278 396.154 133.716 397.716C132.154 399.278 132.154 401.81 133.716 403.373L159.172 428.828ZM158 327V426H166V327H158Z" fill="#DC699B"/>
<path fill-rule="evenodd" clip-rule="evenodd" d="M103.096 136.361H195.731L240.638 215H207.88L177.942 162.647H118.066L103.096 136.361Z" fill="url(#paint0_linear_1823_798)"/>
<path fill-rule="evenodd" clip-rule="evenodd" d="M192.911 293.638H103.097L118.066 267.353H177.942L207.879 215H240.638L195.731 293.638H192.911Z" fill="url(#paint1_linear_1823_798)"/>
<path fill-rule="evenodd" clip-rule="evenodd" d="M118.066 162.646L88.1277 215H148.004L177.942 162.646H118.066Z" fill="url(#paint2_linear_1823_798)"/>
<path fill-rule="evenodd" clip-rule="evenodd" d="M118.066 267.353L88.1277 215H148.004L177.942 267.353H118.066Z" fill="url(#paint3_linear_1823_798)"/>
<path d="M54 248H66" stroke="#9660F7" stroke-width="4" stroke-linecap="round"/>
<path d="M60 242L60 254" stroke="#9660F7" stroke-width="4" stroke-linecap="round"/>
<path d="M286 36H298" stroke="#9660F7" stroke-width="4" stroke-linecap="round"/>
<path d="M292 30L292 42" stroke="#9660F7" stroke-width="4" stroke-linecap="round"/>
<path d="M277 176H289" stroke="#9660F7" stroke-width="4" stroke-linecap="round"/>
<path d="M283 170L283 182" stroke="#9660F7" stroke-width="4" stroke-linecap="round"/>
<path d="M113 357H125" stroke="#9660F7" stroke-width="4" stroke-linecap="round"/>
<path d="M119 351L119 363" stroke="#9660F7" stroke-width="4" stroke-linecap="round"/>
<path d="M3 403H15" stroke="#9660F7" stroke-width="4" stroke-linecap="round"/>
<path d="M9 397L9 409" stroke="#9660F7" stroke-width="4" stroke-linecap="round"/>
<path d="M286.728 98.1573L286.728 98.1575L273.129 103.104L273.102 103.114L273.092 103.141L268.149 116.741C268.149 116.742 268.149 116.742 268.149 116.742C267.91 117.386 267.479 117.942 266.915 118.335C266.351 118.727 265.68 118.938 264.993 118.938C264.305 118.938 263.634 118.727 263.07 118.335C262.506 117.942 262.075 117.386 261.836 116.741C261.836 116.741 261.836 116.741 261.836 116.741L256.891 103.126L256.881 103.099L256.854 103.089L243.258 98.1576C243.258 98.1576 243.258 98.1576 243.258 98.1576C242.613 97.9183 242.058 97.4875 241.665 96.9231C241.273 96.3587 241.062 95.6876 241.062 95C241.062 94.3124 241.273 93.6413 241.665 93.0769C242.058 92.5125 242.613 92.0818 243.258 91.8425C243.258 91.8424 243.258 91.8424 243.258 91.8424L256.869 86.8959L256.896 86.886L256.906 86.8585L261.836 73.2586C261.836 73.2585 261.836 73.2585 261.836 73.2584C262.075 72.6139 262.506 72.058 263.07 71.6655C263.634 71.2729 264.305 71.0625 264.993 71.0625C265.68 71.0625 266.351 71.2729 266.915 71.6655C267.479 72.058 267.91 72.6139 268.149 73.2585C268.149 73.2585 268.149 73.2585 268.149 73.2586L273.094 86.8735L273.104 86.901L273.132 86.911L286.728 91.8425L286.728 91.8427C287.379 92.074 287.941 92.5023 288.337 93.0681C288.733 93.6338 288.943 94.3089 288.937 94.9995L288.937 95.0005C288.943 95.6911 288.733 96.3662 288.337 96.9319C287.941 97.4977 287.379 97.926 286.728 98.1573Z" fill="url(#gradient-one)" stroke="#9660F7" stroke-width="0.125"/>
<path d="M63.7283 312.157L63.7279 312.157L50.1295 317.104L50.1021 317.114L50.0921 317.141L45.1493 330.741C45.1493 330.742 45.1493 330.742 45.1492 330.742C44.91 331.386 44.4794 331.942 43.9152 332.335C43.3509 332.727 42.68 332.938 41.9927 332.938C41.3053 332.938 40.6345 332.727 40.0702 332.335C39.5059 331.942 39.0752 331.386 38.8361 330.741C38.836 330.741 38.836 330.741 38.836 330.741L33.8911 317.126L33.8812 317.099L33.8537 317.089L20.2579 312.158C20.2579 312.158 20.2578 312.158 20.2578 312.158C19.6134 311.918 19.0577 311.488 18.6653 310.923C18.2729 310.359 18.0625 309.688 18.0625 309C18.0625 308.312 18.2729 307.641 18.6653 307.077C19.0577 306.513 19.6133 306.082 20.2576 305.842C20.2577 305.842 20.2578 305.842 20.2579 305.842L33.8687 300.896L33.8962 300.886L33.9061 300.859L38.836 287.259C38.8361 287.259 38.8361 287.258 38.8361 287.258C39.0753 286.614 39.5059 286.058 40.0702 285.665C40.6345 285.273 41.3053 285.062 41.9927 285.062C42.68 285.062 43.3509 285.273 43.9152 285.665C44.4794 286.058 44.9101 286.614 45.1493 287.258C45.1493 287.258 45.1493 287.259 45.1493 287.259L50.0942 300.874L50.1042 300.901L50.1317 300.911L63.7279 305.843L63.7283 305.843C64.3788 306.074 64.9411 306.502 65.337 307.068C65.7329 307.634 65.9427 308.309 65.9374 309L65.9374 309C65.9427 309.691 65.7329 310.366 65.337 310.932C64.9411 311.498 64.3788 311.926 63.7283 312.157Z" fill="url(#gradient-three)" stroke="#9660F7" stroke-width="0.125"/>
<defs>
<linearGradient id="paint0_linear_1823_798" x1="171.868" y1="136.361" x2="171.868" y2="215" gradientUnits="userSpaceOnUse">
<stop stop-color="#842EFF"/>
<stop offset="0.995" stop-color="#3D04BD"/>
</linearGradient>
<linearGradient id="paint1_linear_1823_798" x1="171.868" y1="215" x2="171.868" y2="293.638" gradientUnits="userSpaceOnUse">
<stop stop-color="#BA89FF"/>
<stop offset="1" stop-color="#EBDCFF"/>
</linearGradient>
<linearGradient id="paint2_linear_1823_798" x1="133.035" y1="162.646" x2="133.035" y2="214.998" gradientUnits="userSpaceOnUse">
<stop stop-color="#FFACCF"/>
<stop offset="1" stop-color="#FFCEE3"/>
</linearGradient>
<linearGradient id="paint3_linear_1823_798" x1="133.035" y1="215" x2="133.035" y2="267.353" gradientUnits="userSpaceOnUse">
<stop stop-color="#F685B6"/>
<stop offset="1" stop-color="#CA4A87"/>
</linearGradient>
</defs>
</svg>
