<svg width="128" height="128" viewBox="0 0 128 128" fill="none" xmlns="http://www.w3.org/2000/svg">
<path d="M124.707 55.2646C121.648 53.2147 113.613 52.3398 107.772 53.9069C107.459 48.1151 104.455 43.2338 98.9673 38.9744L96.9361 37.6175L95.5819 39.6541C92.9208 43.6748 91.7982 49.0345 92.1955 53.9069C92.5091 56.9093 93.5569 60.2822 95.5819 62.7305C87.9798 67.1209 80.9701 66.1239 49.9317 66.1239H2.01059C1.87161 73.1015 2.99773 86.5204 11.5701 97.4447C12.518 98.6519 13.555 99.819 14.6829 100.943C21.6534 107.892 32.1848 112.987 47.9325 113C71.9577 113.022 92.5403 100.094 105.062 68.8403C109.182 68.9062 120.059 69.5753 125.382 59.337C125.512 59.165 126.736 56.6233 126.736 56.6233L124.707 55.2664V55.2646ZM33.2851 48.8848H19.8092V62.2984H33.2851V48.8848ZM50.6916 48.8848H37.2166V62.2984H50.6916V48.8848ZM68.1009 48.8848H54.6259V62.2984H68.1009V48.8848ZM85.511 48.8848H72.0352V62.2984H85.511V48.8848ZM15.8749 48.8848H2.39993V62.2984H15.8749V48.8848ZM33.2851 31.9433H19.8092V45.3568H33.2851V31.9433ZM50.6916 31.9433H37.2166V45.3568H50.6916V31.9433ZM68.1009 31.9433H54.6259V45.3568H68.1009V31.9433ZM68.1009 15H54.6259V28.4135H68.1009V15Z" fill="#1D63ED"/>
</svg>
