<svg width="34" height="34" viewBox="0 0 34 34" fill="none" xmlns="http://www.w3.org/2000/svg">
<g clip-path="url(#clip0_2258_4814)">
<path d="M15.5184 3.125C8.48987 3.86222 3.02419 9.82011 3.04967 17.0391L3.05552 17.3984C3.26937 24.8112 9.26541 30.7653 16.6795 30.9268L17.0389 30.9297C24.2252 30.9042 30.12 25.4459 30.8514 18.458L33.0243 20.6309C31.3723 27.9357 24.8559 33.4021 17.0477 33.4297C7.968 33.4617 0.581785 26.1276 0.549665 17.0479C0.521963 9.1993 5.99838 2.61687 13.3485 0.955078L15.5184 3.125Z" fill="white" fill-opacity="0.2"/>
<path d="M30.8524 18.459C30.1205 25.4465 24.2249 30.9042 17.0389 30.9297C9.33987 30.9569 3.07687 24.7381 3.04965 17.0391C3.02416 9.82008 8.48983 3.8622 15.5184 3.125L30.8524 18.459Z" fill="#ECA946"/>
<path d="M30.8524 18.459C30.1205 25.4465 24.2249 30.9042 17.0389 30.9297C9.33987 30.9569 3.07687 24.7381 3.04965 17.0391C3.02416 9.82008 8.48983 3.8622 15.5184 3.125L30.8524 18.459Z" fill="url(#paint0_radial_2258_4814)" fill-opacity="0.2"/>
<path d="M14.6204 17.5945C14.6185 17.3414 14.8067 17.1291 15.0585 17.1045C15.8079 17.0313 17.3544 16.8944 18.4507 16.8926C19.5467 16.8907 21.0926 17.0224 21.8423 17.093C22.0943 17.1168 22.2857 17.3285 22.2876 17.5815C22.2897 17.876 22.037 18.1065 21.7436 18.0793C20.9617 18.007 19.5048 17.887 18.458 17.8888C17.4109 17.8906 15.9533 18.0155 15.1715 18.0905C14.8786 18.1185 14.6225 17.8889 14.6204 17.5945Z" fill="#202328"/>
<path d="M4.78566 17.5945C4.78378 17.3414 4.97202 17.1291 5.22381 17.1045C5.97324 17.0313 7.51964 16.8944 8.61595 16.8926C9.71199 16.8908 11.2579 17.0224 12.0075 17.093C12.2597 17.1168 12.451 17.3285 12.4528 17.5815C12.455 17.876 12.2023 18.1065 11.909 18.0793C11.127 18.007 9.67003 17.887 8.62335 17.8888C7.57626 17.8906 6.11856 18.0155 5.33683 18.0905C5.04393 18.1185 4.78784 17.8889 4.78566 17.5945Z" fill="#202328"/>
<path d="M10.9731 21.9765C10.9731 21.9766 10.9734 22.5984 13.6671 22.5984C16.361 22.5984 16.3611 21.9955 16.3611 21.9955V21.8761C16.3611 21.6748 16.1178 21.5361 15.9315 21.6123C15.5102 21.7846 14.7694 21.9955 13.6671 21.9955C12.5693 21.9955 11.8301 21.7797 11.4079 21.6023C11.2207 21.5237 10.9731 21.6631 10.9731 21.866V21.9765Z" fill="#202328"/>
<path d="M6.53809 18.8232C6.53744 19.0064 6.671 19.1622 6.85259 19.1863C7.28097 19.2433 8.05708 19.3352 8.61677 19.3372C9.17631 19.3392 9.95178 19.2528 10.38 19.1988C10.5617 19.1759 10.6964 19.0211 10.697 18.838C10.6978 18.6123 10.4982 18.4379 10.2742 18.4651C9.83245 18.5188 9.13445 18.5919 8.61942 18.5901C8.10412 18.5882 7.40538 18.5102 6.96345 18.4533C6.73966 18.4246 6.53889 18.5975 6.53809 18.8232Z" fill="#202328"/>
<path d="M16.3643 18.8232C16.3636 19.0064 16.4972 19.1621 16.6788 19.1863C17.1071 19.2433 17.8833 19.3352 18.4429 19.3372C19.0025 19.3392 19.7779 19.2528 20.2062 19.1988C20.3879 19.1759 20.5226 19.0211 20.5232 18.838C20.524 18.6123 20.3244 18.4379 20.1004 18.4651C19.6586 18.5188 18.9606 18.5919 18.4456 18.5901C17.9303 18.5882 17.2316 18.5102 16.7896 18.4533C16.5658 18.4246 16.3651 18.5975 16.3643 18.8232Z" fill="#202328"/>
<path d="M15.5826 3.18945C15.5533 3.5699 15.5393 3.95455 15.5406 4.34277L15.5465 4.70801C15.7638 12.2407 21.8572 18.291 29.3912 18.4551L29.7565 18.458C30.1103 18.4567 30.461 18.4418 30.8082 18.415L33.0553 20.6621C31.9919 20.8785 30.8919 20.995 29.7652 20.999C20.5388 21.0316 13.0325 13.5789 12.9996 4.35254C12.9955 3.18478 13.1124 2.0443 13.3365 0.943359L15.5826 3.18945Z" fill="white" fill-opacity="0.2"/>
<path d="M30.8084 18.415C30.461 18.4418 30.1098 18.4577 29.7557 18.459C21.9323 18.4864 15.5685 12.1662 15.5409 4.34277C15.5395 3.95454 15.5535 3.56991 15.5829 3.18945L30.8084 18.415Z" fill="#FFD699"/>
</g>
<defs>
<radialGradient id="paint0_radial_2258_4814" cx="0" cy="0" r="1" gradientUnits="userSpaceOnUse" gradientTransform="translate(22.5 10) rotate(135) scale(22.6274 22.6258)">
<stop offset="0.216346"/>
<stop offset="0.620192" stop-opacity="0"/>
</radialGradient>
<clipPath id="clip0_2258_4814">
<rect width="34" height="34" fill="white"/>
</clipPath>
</defs>
</svg>
