<svg width="33" height="32" viewBox="0 0 33 32" fill="none" xmlns="http://www.w3.org/2000/svg">
<g clip-path="url(#clip0_2258_4807)">
<path d="M16.4022 2.40084C16.1529 2.41332 15.9087 2.47477 15.6838 2.58158L5.88092 7.2385C5.6272 7.35897 5.40426 7.53426 5.22867 7.75135C5.05308 7.96844 4.92934 8.22175 4.86666 8.49247L2.44822 18.9531C2.39237 19.1941 2.38612 19.4437 2.42984 19.6872C2.47356 19.9306 2.56635 20.1629 2.70273 20.3704C2.73579 20.4211 2.77136 20.4702 2.80929 20.5174L9.59445 28.9051C9.77008 29.1222 9.99304 29.2974 10.2468 29.4178C10.5005 29.5382 10.7785 29.6007 11.0601 29.6007L21.9411 29.5982C22.2226 29.5984 22.5005 29.5361 22.7543 29.4159C23.008 29.2957 23.231 29.1207 23.4067 28.9039L30.1894 20.515C30.3651 20.2978 30.4889 20.0444 30.5517 19.7736C30.6144 19.5027 30.6144 19.2214 30.5517 18.9506L28.1295 8.48998C28.0668 8.21926 27.9431 7.96595 27.7675 7.74886C27.5919 7.53176 27.369 7.35647 27.1153 7.236L17.3111 2.58158C17.0283 2.44722 16.7157 2.38507 16.4022 2.40084Z" stroke="white" stroke-opacity="0.2" stroke-width="4"/>
<path d="M16.4022 2.40084C16.1529 2.41332 15.9087 2.47477 15.6838 2.58158L5.88092 7.2385C5.6272 7.35897 5.40426 7.53426 5.22867 7.75135C5.05308 7.96844 4.92934 8.22175 4.86666 8.49247L2.44822 18.9531C2.39237 19.1941 2.38612 19.4437 2.42984 19.6872C2.47356 19.9306 2.56635 20.1629 2.70273 20.3704C2.73579 20.4211 2.77136 20.4702 2.80929 20.5174L9.59445 28.9051C9.77008 29.1222 9.99304 29.2974 10.2468 29.4178C10.5005 29.5382 10.7785 29.6007 11.0601 29.6007L21.9411 29.5982C22.2226 29.5984 22.5005 29.5361 22.7543 29.4159C23.008 29.2957 23.231 29.1207 23.4067 28.9039L30.1894 20.515C30.3651 20.2978 30.4889 20.0444 30.5517 19.7736C30.6144 19.5027 30.6144 19.2214 30.5517 18.9506L28.1295 8.48998C28.0668 8.21926 27.9431 7.96595 27.7675 7.74886C27.5919 7.53176 27.369 7.35647 27.1153 7.236L17.3111 2.58158C17.0283 2.44722 16.7157 2.38507 16.4022 2.40084Z" fill="#326CE5"/>
<path d="M16.4994 5.96094C16.1753 5.96097 15.9126 6.25116 15.9126 6.60912C15.9126 6.61461 15.9138 6.61986 15.9139 6.62532C15.9134 6.67396 15.911 6.73255 15.9126 6.7749C15.9204 6.98136 15.9656 7.13938 15.9929 7.32959C16.0422 7.73672 16.0836 8.0742 16.0581 8.38787C16.0332 8.50615 15.9456 8.61433 15.8675 8.68952L15.8537 8.93633C15.5016 8.96533 15.1471 9.01845 14.7931 9.09837C13.2695 9.4423 11.9578 10.2225 10.9592 11.276C10.8944 11.2321 10.781 11.1512 10.7473 11.1264C10.6425 11.1405 10.5366 11.1726 10.3987 11.0928C10.1362 10.917 9.89702 10.6745 9.60764 10.3823C9.47505 10.2425 9.37903 10.1094 9.2215 9.97466C9.18572 9.94407 9.13112 9.90268 9.09111 9.8712C8.96795 9.77357 8.82268 9.72266 8.68239 9.71788C8.50202 9.71174 8.32838 9.78186 8.21475 9.92356C8.01275 10.1755 8.07742 10.5605 8.35893 10.7836C8.36179 10.7859 8.36483 10.7877 8.36771 10.7899C8.40639 10.821 8.45376 10.861 8.48932 10.8871C8.65649 11.0098 8.8092 11.0726 8.97577 11.1701C9.32669 11.3855 9.61761 11.5642 9.84836 11.7796C9.93847 11.8751 9.95422 12.0434 9.96621 12.1161L10.1543 12.2832C9.14754 13.7895 8.68162 15.6501 8.95696 17.5459L8.71123 17.6169C8.64647 17.7001 8.55495 17.8309 8.45923 17.87C8.15733 17.9645 7.81755 17.9992 7.40735 18.042C7.21477 18.0579 7.0486 18.0484 6.84443 18.0869C6.7995 18.0953 6.73688 18.1116 6.68772 18.123C6.68601 18.1234 6.68441 18.1239 6.6827 18.1243C6.68002 18.1249 6.6765 18.1262 6.67393 18.1268C6.32809 18.2098 6.10593 18.5259 6.17745 18.8373C6.24899 19.1487 6.58679 19.3381 6.9347 19.2636C6.93721 19.263 6.94086 19.2629 6.94348 19.2623C6.9474 19.2614 6.95086 19.2595 6.95476 19.2586C7.00326 19.248 7.06404 19.2362 7.10646 19.2249C7.30719 19.1715 7.45257 19.093 7.63303 19.0242C8.02126 18.8858 8.3428 18.7701 8.65607 18.7251C8.7869 18.7149 8.92475 18.8053 8.99332 18.8435L9.24908 18.7999C9.83763 20.6141 11.0711 22.0805 12.6329 23.0006L12.5263 23.2549C12.5647 23.3536 12.6071 23.4872 12.5785 23.5847C12.4646 23.8783 12.2695 24.1882 12.0474 24.5338C11.9398 24.6934 11.8298 24.8173 11.7327 25C11.7095 25.0437 11.6799 25.1108 11.6575 25.157C11.5067 25.4778 11.6173 25.8473 11.907 25.9859C12.1985 26.1255 12.5603 25.9783 12.7169 25.6569C12.7171 25.6564 12.7179 25.6561 12.7181 25.6556C12.7183 25.6553 12.718 25.6547 12.7181 25.6544C12.7404 25.6088 12.772 25.5489 12.7908 25.506C12.874 25.3167 12.9016 25.1544 12.9601 24.9713C13.1153 24.5836 13.2006 24.1768 13.4144 23.9233C13.4729 23.8539 13.5683 23.8272 13.6672 23.8008L13.8001 23.5615C15.1617 24.0811 16.6857 24.2205 18.2082 23.8769C18.5555 23.7985 18.8908 23.697 19.2149 23.5752C19.2523 23.6411 19.3217 23.7677 19.3403 23.7996C19.4408 23.8321 19.5506 23.8489 19.64 23.9803C19.7998 24.2519 19.9092 24.5732 20.0424 24.9613C20.1009 25.1444 20.1298 25.3067 20.2129 25.4961C20.2319 25.5392 20.2633 25.6 20.2856 25.6456C20.4419 25.9681 20.8048 26.1158 21.0968 25.976C21.3864 25.8372 21.4972 25.4678 21.3463 25.147C21.3238 25.1009 21.293 25.0337 21.2698 24.99C21.1727 24.8073 21.0627 24.6847 20.9551 24.525C20.733 24.1795 20.5487 23.8925 20.4348 23.5989C20.3872 23.4475 20.4428 23.3533 20.4799 23.2549C20.4577 23.2295 20.4102 23.0865 20.3822 23.0193C22.0053 22.0664 23.2025 20.5454 23.7647 18.7887C23.8406 18.8005 23.9726 18.8237 24.0155 18.8323C24.1037 18.7744 24.1848 18.6989 24.3439 18.7114C24.6572 18.7564 24.9787 18.8721 25.367 19.0105C25.5474 19.0793 25.6928 19.159 25.8935 19.2125C25.936 19.2238 25.9967 19.2343 26.0452 19.2449C26.0491 19.2458 26.0526 19.2477 26.0565 19.2486C26.0591 19.2492 26.0628 19.2493 26.0653 19.2499C26.4132 19.3243 26.7511 19.135 26.8225 18.8236C26.894 18.5122 26.6719 18.196 26.3261 18.1131C26.2758 18.1017 26.2044 18.0824 26.1556 18.0732C25.9514 18.0347 25.7852 18.0442 25.5926 18.0283C25.1824 17.9856 24.8427 17.9508 24.5408 17.8563C24.4177 17.8088 24.3301 17.6632 24.2875 17.6032L24.0506 17.5347C24.1734 16.651 24.1403 15.7313 23.9277 14.8111C23.7131 13.8823 23.3339 13.0328 22.8282 12.2844C22.889 12.2295 23.0037 12.1284 23.0363 12.0987C23.0458 11.994 23.0376 11.8843 23.1466 11.7684C23.3774 11.553 23.6683 11.3743 24.0192 11.1588C24.1858 11.0614 24.3397 10.9986 24.5069 10.8759C24.5447 10.8481 24.5963 10.8042 24.636 10.7724C24.9175 10.5492 24.9823 10.1642 24.7802 9.91234C24.5782 9.66048 24.1866 9.63676 23.9051 9.85999C23.8651 9.89153 23.8107 9.93268 23.7747 9.96345C23.6172 10.0982 23.5199 10.2313 23.3873 10.3711C23.098 10.6633 22.8588 10.9071 22.5962 11.0828C22.4825 11.1487 22.3158 11.1259 22.2402 11.1214L22.017 11.2797C20.7445 9.95305 19.0119 9.10484 17.1463 8.94007C17.1411 8.86234 17.1342 8.72184 17.1325 8.67955C17.0561 8.60689 16.9639 8.54485 16.9407 8.38787C16.9152 8.0742 16.9578 7.73672 17.0071 7.32959C17.0344 7.13938 17.0796 6.98136 17.0874 6.7749C17.0891 6.72797 17.0863 6.65986 17.0861 6.60912C17.0861 6.25116 16.8234 5.9609 16.4994 5.96094ZM15.7647 10.4857L15.5904 13.5459L15.5779 13.5521C15.5662 13.8259 15.3396 14.0445 15.0614 14.0445C14.9474 14.0445 14.8422 14.0081 14.7567 13.946L14.7517 13.9485L12.2279 12.1697C13.0036 11.4114 13.9957 10.851 15.1391 10.5929C15.3479 10.5458 15.5567 10.5108 15.7647 10.4857ZM17.2353 10.4857C18.5702 10.649 19.8047 11.2499 20.7508 12.171L18.2433 13.9385L18.2345 13.9348C18.012 14.0964 17.6984 14.0563 17.5249 13.8401C17.4539 13.7515 17.4166 13.6473 17.4121 13.5421L17.4096 13.5409L17.2353 10.4857ZM11.3127 13.3128L13.6171 15.362L13.6146 15.3745C13.8225 15.5543 13.8532 15.8662 13.6797 16.0825C13.6087 16.1711 13.5136 16.2305 13.4114 16.2583L13.4089 16.2682L10.4552 17.1159C10.3048 15.7491 10.6288 14.4205 11.3127 13.3128ZM21.6697 13.314C22.0121 13.8658 22.2714 14.482 22.4257 15.1501C22.5782 15.8102 22.6165 16.4691 22.5536 17.1059L19.5848 16.2558L19.5823 16.2433C19.3164 16.1711 19.1531 15.9022 19.2149 15.6325C19.2403 15.522 19.2993 15.4286 19.3792 15.3595L19.3779 15.3533L21.6697 13.314ZM16.0267 15.5203H16.9708L17.5575 16.2495L17.3469 17.1595L16.4994 17.5646L15.6493 17.1582L15.4387 16.2483L16.0267 15.5203ZM19.0532 18.0158C19.0933 18.0138 19.1333 18.0174 19.1723 18.0245L19.1773 18.0183L22.2327 18.5319C21.7855 19.7809 20.9299 20.8629 19.7866 21.587L18.6006 18.7388L18.6044 18.7338C18.4954 18.4821 18.6045 18.187 18.8551 18.0669C18.9193 18.0362 18.9863 18.0192 19.0532 18.0158ZM13.9217 18.0283C14.1549 18.0315 14.364 18.1924 14.4182 18.4284C14.4436 18.5389 14.4312 18.6483 14.3894 18.745L14.3981 18.7562L13.2246 21.5758C12.1275 20.8758 11.2536 19.8278 10.7861 18.5418L13.8151 18.0308L13.8202 18.037C13.854 18.0308 13.8884 18.0278 13.9217 18.0283ZM16.4806 19.2636C16.5618 19.2606 16.6442 19.2772 16.7225 19.3147C16.8252 19.3638 16.9045 19.4412 16.9545 19.5341H16.9658L18.4589 22.2165C18.2652 22.2811 18.0659 22.3363 17.8622 22.3823C16.7202 22.6401 15.5819 22.562 14.5511 22.2128L16.0405 19.5353H16.043C16.1324 19.3692 16.3019 19.2701 16.4806 19.2636Z" fill="white" stroke="white" stroke-width="0.25"/>
</g>
<defs>
<clipPath id="clip0_2258_4807">
<rect width="33" height="32" fill="white"/>
</clipPath>
</defs>
</svg>
