<svg width="151" height="56" viewBox="0 0 151 56" fill="none" xmlns="http://www.w3.org/2000/svg">
<path d="M27.1164 24.6344C27.1164 26.4686 26.6437 28.0559 25.6984 29.3963C24.7672 30.7367 23.4409 31.7737 21.7196 32.5074C20.0123 33.2411 17.9947 33.608 15.6667 33.608C14.1146 33.608 12.6966 33.4457 11.4127 33.1212C10.1287 32.7967 9.0071 32.3381 8.0476 31.7455L8.3439 29.8619C8.8518 30.2147 9.4021 30.511 9.9947 30.7508C10.5873 30.9766 11.2152 31.1529 11.8783 31.2799C12.5414 31.3928 13.2328 31.4492 13.9524 31.4492C15.2504 31.4492 16.4074 31.1812 17.4233 30.645C18.4391 30.1088 19.2363 29.3187 19.8148 28.2746C20.3933 27.2305 20.6825 25.9607 20.6825 24.4651C20.6825 22.7297 20.3369 21.227 19.6455 19.9572C18.9682 18.6873 18.0088 17.6997 16.7672 16.9942C15.5256 16.2887 14.0653 15.936 12.3862 15.936H10.7143V39.936C10.7143 40.2464 10.7989 40.5145 10.9683 40.7402C11.1376 40.9519 11.4056 41.0859 11.7725 41.1423L13.6138 41.3963C13.9665 41.4669 14.2205 41.5868 14.3757 41.7561C14.5309 41.9254 14.6085 42.1723 14.6085 42.4968C14.6085 42.7931 14.5026 43.033 14.291 43.2164C14.0935 43.3857 13.776 43.4704 13.3386 43.4704H2.291C1.8536 43.4704 1.5291 43.3857 1.3175 43.2164C1.1058 43.033 1 42.7931 1 42.4968C1 41.9607 1.2963 41.6009 1.8889 41.4175L3.1164 41.1423C3.455 41.0436 3.709 40.8954 3.8783 40.6979C4.0617 40.5004 4.1534 40.2464 4.1534 39.936V17.3752C4.1534 17.0648 4.0617 16.8108 3.8783 16.6133C3.709 16.4157 3.455 16.2676 3.1164 16.1688L1.8889 15.8937C1.2963 15.7103 1 15.3505 1 14.8143C1 14.5039 1.1058 14.2641 1.3175 14.0947C1.5291 13.9254 1.8536 13.8408 2.291 13.8408H12.5556C15.6314 13.8408 18.2557 14.3064 20.4286 15.2376C22.6014 16.1547 24.2593 17.4316 25.4021 19.0683C26.545 20.6909 27.1164 22.5462 27.1164 24.6344Z" fill="white"/>
<path d="M47.554 30.9626C47.554 31.7104 47.342 32.2888 46.919 32.698C46.495 33.0931 45.875 33.2906 45.056 33.2906H31.8499V31.6821H40.506C41.226 31.6821 41.585 31.3576 41.585 30.7086C41.585 28.8462 41.247 27.4352 40.569 26.4758C39.892 25.5022 38.982 25.0155 37.839 25.0155C36.964 25.0155 36.188 25.2835 35.511 25.8197C34.834 26.3559 34.305 27.1248 33.924 28.1266C33.543 29.1142 33.353 30.3135 33.353 31.7245C33.353 34.4476 33.987 36.4934 35.257 37.862C36.541 39.2306 38.248 39.9149 40.379 39.9149C41.621 39.9149 42.707 39.668 43.638 39.1742C44.584 38.6804 45.317 37.9749 45.839 37.0578C46.093 36.7756 46.291 36.5851 46.432 36.4864C46.587 36.3876 46.742 36.3382 46.897 36.3382C47.123 36.3382 47.285 36.444 47.384 36.6557C47.483 36.8532 47.532 37.0931 47.532 37.3753C47.476 38.5604 47.053 39.661 46.263 40.6768C45.472 41.6786 44.407 42.4828 43.067 43.0895C41.726 43.6962 40.188 43.9996 38.453 43.9996C36.407 43.9996 34.594 43.5834 33.014 42.7509C31.4336 41.9043 30.192 40.7262 29.289 39.2165C28.4001 37.6927 27.9557 35.9149 27.9557 33.8832C27.9557 31.7527 28.379 29.862 29.2255 28.2112C30.0862 26.5604 31.3137 25.2694 32.9081 24.3382C34.502 23.407 36.407 22.9414 38.622 22.9414C40.513 22.9414 42.121 23.2871 43.448 23.9784C44.788 24.6557 45.804 25.601 46.495 26.8144C47.201 28.0137 47.554 29.3964 47.554 30.9626Z" fill="white"/>
<path d="M69.276 30.9626C69.276 31.7104 69.065 32.2888 68.642 32.698C68.218 33.0931 67.597 33.2906 66.779 33.2906H53.573V31.6821H62.229C62.948 31.6821 63.308 31.3576 63.308 30.7086C63.308 28.8462 62.97 27.4352 62.292 26.4758C61.615 25.5022 60.705 25.0155 59.562 25.0155C58.687 25.0155 57.911 25.2835 57.234 25.8197C56.557 26.3559 56.028 27.1248 55.647 28.1266C55.266 29.1142 55.075 30.3135 55.075 31.7245C55.075 34.4476 55.71 36.4934 56.98 37.862C58.264 39.2306 59.971 39.9149 62.102 39.9149C63.343 39.9149 64.43 39.668 65.361 39.1742C66.306 38.6804 67.04 37.9749 67.562 37.0578C67.816 36.7756 68.014 36.5851 68.155 36.4864C68.31 36.3876 68.465 36.3382 68.62 36.3382C68.846 36.3382 69.008 36.444 69.107 36.6557C69.206 36.8532 69.255 37.0931 69.255 37.3753C69.199 38.5604 68.776 39.661 67.985 40.6768C67.195 41.6786 66.13 42.4828 64.79 43.0895C63.449 43.6962 61.911 43.9996 60.176 43.9996C58.13 43.9996 56.317 43.5834 54.737 42.7509C53.157 41.9043 51.915 40.7262 51.012 39.2165C50.123 37.6927 49.679 35.9149 49.679 33.8832C49.679 31.7527 50.102 29.862 50.948 28.2112C51.809 26.5604 53.037 25.2694 54.631 24.3382C56.225 23.407 58.13 22.9414 60.345 22.9414C62.236 22.9414 63.844 23.2871 65.171 23.9784C66.511 24.6557 67.527 25.601 68.218 26.8144C68.924 28.0137 69.276 29.3964 69.276 30.9626Z" fill="white"/>
<path d="M79.147 32.2536C79.147 30.2077 79.437 28.4934 80.015 27.1107C80.594 25.728 81.356 24.691 82.301 23.9996C83.246 23.2941 84.262 22.9414 85.349 22.9414C86.689 22.9414 87.726 23.3223 88.46 24.0843C89.193 24.8462 89.56 25.9396 89.56 27.3647C89.56 28.6345 89.299 29.5798 88.777 30.2007C88.255 30.8215 87.578 31.1319 86.745 31.1319C85.899 31.1319 85.257 30.9061 84.819 30.4546C84.382 30.0031 84.163 29.3753 84.163 28.571V27.8091C84.149 27.3576 84.043 27.026 83.846 26.8144C83.648 26.5887 83.324 26.4758 82.872 26.4758C82.379 26.4758 81.899 26.6804 81.433 27.0895C80.982 27.4987 80.608 28.1195 80.311 28.952C80.029 29.7844 79.888 30.8497 79.888 32.1477L79.147 32.2536ZM79.55 24.4017L79.888 29.2059V40.0631C79.888 40.4723 79.966 40.7756 80.121 40.9731C80.29 41.1566 80.587 41.2835 81.01 41.3541L82.83 41.6292C83.155 41.6857 83.394 41.7915 83.55 41.9467C83.719 42.1019 83.804 42.3135 83.804 42.5816C83.804 42.8638 83.698 43.0825 83.486 43.2377C83.289 43.3929 82.999 43.4705 82.618 43.4705H72.735C72.34 43.4705 72.05 43.3929 71.867 43.2377C71.684 43.0825 71.592 42.8708 71.592 42.6028C71.592 42.3911 71.655 42.2148 71.782 42.0737C71.909 41.9185 72.107 41.7915 72.375 41.6927L73.2 41.4811C73.454 41.3964 73.638 41.2553 73.751 41.0578C73.878 40.8461 73.941 40.5216 73.941 40.0842V27.9996C73.941 27.6328 73.885 27.3717 73.772 27.2165C73.673 27.0613 73.504 26.9626 73.264 26.9202L72.142 26.8356C71.888 26.7791 71.705 26.6874 71.592 26.5604C71.479 26.4335 71.423 26.2712 71.423 26.0737C71.423 25.8338 71.493 25.6433 71.634 25.5022C71.775 25.3611 72.029 25.2201 72.396 25.079L76.248 23.6821C76.939 23.4141 77.447 23.2447 77.772 23.1742C78.096 23.0895 78.35 23.0472 78.534 23.0472C78.844 23.0472 79.077 23.153 79.232 23.3647C79.387 23.5622 79.493 23.9079 79.55 24.4017Z" fill="white"/>
<path d="M99.317 13.3545V40.0846C99.317 40.522 99.374 40.8465 99.487 41.0582C99.614 41.2557 99.804 41.3968 100.058 41.4815L100.862 41.6931C101.13 41.7778 101.328 41.8977 101.455 42.0529C101.582 42.194 101.645 42.3774 101.645 42.6032C101.645 42.8712 101.554 43.0829 101.37 43.2381C101.187 43.3933 100.891 43.4709 100.481 43.4709H92.143C91.748 43.4709 91.459 43.3933 91.275 43.2381C91.092 43.0829 91 42.8712 91 42.6032C91 42.3915 91.063 42.2152 91.19 42.0741C91.317 41.9189 91.515 41.7919 91.783 41.6931L92.608 41.4815C92.862 41.3827 93.046 41.2346 93.159 41.037C93.286 40.8395 93.349 40.522 93.349 40.0846V16.9101C93.349 16.5573 93.293 16.3033 93.18 16.1481C93.081 15.9929 92.912 15.8942 92.672 15.8519L91.55 15.7672C91.296 15.6966 91.113 15.5979 91 15.4709C90.887 15.3439 90.831 15.1817 90.831 14.9841C90.831 14.7584 90.901 14.575 91.042 14.4339C91.183 14.2928 91.437 14.1517 91.804 14.0106L95.741 12.5714C96.305 12.3598 96.75 12.2116 97.074 12.127C97.399 12.0423 97.681 12 97.921 12C98.386 12 98.732 12.127 98.958 12.381C99.197 12.6208 99.317 12.9453 99.317 13.3545Z" fill="white"/>
<path d="M111.988 24.3812V40.0849C111.988 40.5223 112.044 40.8468 112.157 41.0585C112.284 41.256 112.474 41.3971 112.728 41.4818L113.533 41.6934C113.801 41.7781 113.998 41.898 114.125 42.0532C114.252 42.1943 114.316 42.3777 114.316 42.6035C114.316 42.8715 114.224 43.0832 114.041 43.2384C113.857 43.3936 113.561 43.4712 113.152 43.4712H104.813C104.418 43.4712 104.129 43.3936 103.945 43.2384C103.762 43.0832 103.67 42.8715 103.67 42.6035C103.67 42.3918 103.734 42.2155 103.861 42.0744C103.988 41.9192 104.185 41.7922 104.453 41.6934L105.279 41.4818C105.533 41.383 105.716 41.2349 105.829 41.0373C105.956 40.8398 106.019 40.5223 106.019 40.0849V27.958C106.019 27.5911 105.963 27.3301 105.85 27.1749C105.751 27.0197 105.582 26.9209 105.342 26.8786L104.221 26.7939C103.967 26.7375 103.783 26.6458 103.67 26.5188C103.557 26.3918 103.501 26.2296 103.501 26.032C103.501 25.7922 103.564 25.6017 103.691 25.4606C103.833 25.3195 104.094 25.1784 104.475 25.0373L108.411 23.5982C108.961 23.4006 109.399 23.2596 109.723 23.1749C110.062 23.0902 110.344 23.0479 110.57 23.0479C111.049 23.0479 111.402 23.1749 111.628 23.4289C111.868 23.6687 111.988 23.9862 111.988 24.3812ZM108.538 19.8098C107.409 19.8098 106.499 19.5206 105.808 18.9421C105.131 18.3495 104.792 17.5805 104.792 16.6352C104.792 15.6899 105.131 14.935 105.808 14.3707C106.499 13.7922 107.409 13.5029 108.538 13.5029C109.681 13.5029 110.591 13.7922 111.268 14.3707C111.96 14.935 112.305 15.6899 112.305 16.6352C112.305 17.5805 111.96 18.3495 111.268 18.9421C110.591 19.5206 109.681 19.8098 108.538 19.8098Z" fill="white"/>
<path d="M124.533 24.8462C123.559 24.8462 122.798 25.0931 122.247 25.5869C121.711 26.0666 121.443 26.6804 121.443 27.4282C121.443 27.8938 121.542 28.3171 121.739 28.698C121.951 29.0648 122.346 29.4035 122.925 29.7139C123.503 30.0243 124.35 30.3135 125.464 30.5816C127.637 31.0331 129.316 31.5975 130.501 32.2747C131.686 32.952 132.512 33.735 132.977 34.6239C133.443 35.4987 133.676 36.4793 133.676 37.5657C133.676 39.5269 132.985 41.0931 131.602 42.2641C130.219 43.4211 128.209 43.9996 125.57 43.9996C124.639 43.9996 123.877 43.9149 123.284 43.7456C122.692 43.5904 122.205 43.4352 121.824 43.28C121.443 43.1107 121.104 43.026 120.808 43.026C120.512 43.026 120.265 43.1107 120.067 43.28C119.884 43.4352 119.708 43.5904 119.538 43.7456C119.369 43.9149 119.143 43.9996 118.861 43.9996C118.607 43.9996 118.417 43.929 118.29 43.7879C118.163 43.6469 118.043 43.3858 117.93 43.0049L116.533 38.7509C116.378 38.2571 116.328 37.855 116.385 37.5446C116.455 37.2342 116.646 37.0155 116.956 36.8885C117.281 36.7756 117.563 36.7827 117.803 36.9096C118.043 37.0225 118.268 37.2412 118.48 37.5657C119.115 38.6663 119.792 39.5481 120.512 40.2112C121.231 40.8603 121.986 41.3329 122.776 41.6292C123.581 41.9255 124.399 42.0737 125.231 42.0737C126.445 42.0737 127.348 41.8267 127.94 41.3329C128.547 40.8391 128.85 40.183 128.85 39.3647C128.85 38.8708 128.724 38.4264 128.47 38.0313C128.216 37.6222 127.743 37.2553 127.052 36.9308C126.36 36.5922 125.358 36.2747 124.046 35.9784C122.226 35.5834 120.773 35.0754 119.686 34.4546C118.614 33.8197 117.838 33.0578 117.358 32.1689C116.893 31.28 116.66 30.25 116.66 29.079C116.66 27.8514 116.977 26.7791 117.612 25.862C118.247 24.9449 119.129 24.2324 120.258 23.7245C121.387 23.2024 122.692 22.9414 124.173 22.9414C125.133 22.9414 125.902 23.0261 126.48 23.1954C127.059 23.3647 127.531 23.541 127.898 23.7245C128.279 23.8938 128.625 23.9784 128.935 23.9784C129.274 23.9784 129.542 23.8938 129.739 23.7245C129.937 23.541 130.127 23.3647 130.311 23.1954C130.494 23.0261 130.72 22.9414 130.988 22.9414C131.2 22.9414 131.376 23.019 131.517 23.1742C131.672 23.3153 131.785 23.5693 131.856 23.9361L132.893 27.9784C132.992 28.5005 133.013 28.9096 132.956 29.2059C132.914 29.5022 132.731 29.7139 132.406 29.8409C132.096 29.9678 131.821 29.9537 131.581 29.7985C131.341 29.6433 131.101 29.3682 130.861 28.9731C129.986 27.4775 128.992 26.4193 127.877 25.7985C126.776 25.1636 125.662 24.8462 124.533 24.8462Z" fill="white"/>
<path d="M137.074 25.5027L136.1 25.2064C135.762 25.0936 135.522 24.9666 135.381 24.8255C135.24 24.6703 135.169 24.4939 135.169 24.2964C135.169 24.0142 135.261 23.8026 135.444 23.6615C135.642 23.5063 135.903 23.4287 136.227 23.4287H137.518C137.857 23.4287 138.139 23.3652 138.365 23.2382C138.591 23.1112 138.824 22.8855 139.063 22.5609L141.37 19.3228C141.667 18.956 141.949 18.6879 142.217 18.5186C142.485 18.3493 142.753 18.2646 143.021 18.2646C143.317 18.2646 143.55 18.3564 143.72 18.5398C143.889 18.7232 143.973 18.9913 143.973 19.344V37.4392C143.973 38.4269 144.164 39.1817 144.545 39.7038C144.94 40.2258 145.483 40.4869 146.175 40.4869C146.697 40.4869 147.099 40.3881 147.381 40.1906C147.677 39.9789 147.91 39.7392 148.079 39.4711C148.249 39.203 148.411 38.9701 148.566 38.7726C148.735 38.5609 148.947 38.4481 149.201 38.434C149.413 38.434 149.575 38.5045 149.688 38.6456C149.815 38.7867 149.878 39.0195 149.878 39.344C149.864 40.1482 149.596 40.896 149.074 41.5874C148.566 42.2787 147.854 42.8431 146.936 43.2805C146.019 43.7038 144.975 43.9154 143.804 43.9154C141.998 43.9154 140.58 43.4639 139.55 42.5609C138.534 41.6438 138.026 40.2682 138.026 38.434V26.7514C138.026 26.3846 137.949 26.1165 137.794 25.9472C137.653 25.7638 137.413 25.6156 137.074 25.5027ZM141.624 25.5239V23.4287H148.63C148.954 23.4287 149.208 23.4992 149.391 23.6403C149.589 23.7673 149.688 23.9578 149.688 24.2117C149.688 24.5786 149.504 24.889 149.137 25.143C148.771 25.3969 148.178 25.5239 147.36 25.5239H141.624Z" fill="white"/>
</svg>
