<svg width="32" height="33" viewBox="0 0 32 33" fill="none" xmlns="http://www.w3.org/2000/svg">
<path d="M22.1055 2.46191C24.1757 2.48666 26.8402 3.11614 28.791 5.6084V5.60938L28.8945 5.75098C29.386 6.48097 29.495 7.46609 29.4814 8.34375C29.4658 9.35251 29.2794 10.537 28.9561 11.7891C28.417 13.8759 27.4678 16.2593 26.1562 18.4971C26.469 18.4794 26.8775 18.4307 27.4033 18.3223L27.5771 18.29C27.753 18.2614 27.9358 18.2448 28.1172 18.251C28.3312 18.2583 28.713 18.3022 29.0605 18.5664C29.4962 18.8978 29.65 19.3944 29.6084 19.8281C29.5744 20.1819 29.4207 20.4554 29.3174 20.6113C29.0988 20.941 28.7777 21.2302 28.4707 21.459C28.1454 21.7013 27.7566 21.9348 27.332 22.1318V22.1309C26.4531 22.5393 25.1322 22.7306 24.1406 22.6855L24.1143 22.6846L24.0879 22.6816L24.0605 22.6787C24.0383 22.9093 24.0113 23.22 23.9756 23.5176L23.96 23.6436L23.9199 23.7637L23.8008 24.1182C23.7804 24.6521 23.7154 24.9509 23.6338 25.2471C23.5914 25.401 23.5488 25.5398 23.5137 25.8125L23.4814 26.1357C23.3969 27.2211 23.0375 28.2023 22.3115 28.9775C21.6848 29.6468 20.865 30.0777 19.9316 30.333L19.5244 30.4316C18.8242 30.5817 18.1769 30.5899 17.5918 30.4287C16.9916 30.2633 16.5358 29.9407 16.2012 29.5586C15.8801 29.192 15.6891 28.7926 15.5664 28.4824C15.5043 28.3254 15.4545 28.1776 15.416 28.0605L15.3271 27.7969C14.9617 26.8025 15.0174 25.5987 15.0537 24.3652L15.0557 23.9199C15.0521 23.7412 15.0422 23.5636 15.0293 23.3916C13.8955 23.91 12.7445 23.8311 12.0273 23.7012L11.6172 23.6123C11.3562 23.547 11.0685 23.4396 10.8076 23.2969C10.6547 23.2132 10.4029 23.0592 10.1846 22.8154C9.75283 23.1597 9.24714 23.398 8.66113 23.4229C7.78937 23.4597 7.09293 23.0157 6.60254 22.5391C5.65627 21.6193 4.91893 20.0437 4.35645 18.5137C3.77246 16.9251 3.29973 15.1607 2.9668 13.6748C2.68062 12.3975 2.48091 11.2525 2.41504 10.5742L2.39551 10.3135C2.26736 7.75109 2.85033 5.86315 4.04492 4.60059C5.22867 3.34955 6.81098 2.92743 8.22461 2.85059C9.63995 2.77368 11.0299 3.03221 12.0332 3.29199C12.4666 3.40423 12.8395 3.52275 13.127 3.61914C14.0873 3.05708 15.2552 2.73702 16.6465 2.75977L17.2725 2.7832C17.7564 2.81206 18.2133 2.86883 18.6465 2.94434C18.659 2.94053 18.6715 2.93555 18.6846 2.93164C18.8846 2.87199 19.1594 2.79867 19.4922 2.72754C20.1548 2.58594 21.0707 2.44959 22.1055 2.46191Z" stroke="white" stroke-opacity="0.2" stroke-width="2.5"/>
<path d="M27.6567 19.5461C24.5025 20.1968 24.2856 19.1289 24.2856 19.1289C27.6159 14.1872 29.0081 7.91448 27.8068 6.37925C24.5291 2.19145 18.8554 4.17202 18.7607 4.22336L18.7302 4.22887C18.107 4.09948 17.4097 4.02248 16.6258 4.00964C15.1986 3.98631 14.116 4.38383 13.2944 5.00683C13.2944 5.00683 3.17306 0.837159 3.64386 10.2509C3.74398 12.2535 6.51428 25.4041 9.8185 21.432C11.0262 19.9795 12.1932 18.7514 12.1932 18.7514C12.7727 19.1364 13.4666 19.3329 14.1939 19.2623L14.2505 19.2144C14.2328 19.3947 14.2409 19.5711 14.273 19.7799C13.4218 20.7309 13.672 20.8979 11.9704 21.2482C10.2485 21.6031 11.26 22.2348 11.9204 22.4C12.7211 22.6002 14.5733 22.8838 15.8248 21.1318L15.775 21.3317C16.1084 21.5988 16.3426 23.0693 16.3034 24.4023C16.2641 25.7353 16.2379 26.6505 16.5006 27.3654C16.7636 28.0802 17.0254 29.6886 19.2624 29.2093C21.1316 28.8087 22.1002 27.7707 22.235 26.0392C22.3306 24.8082 22.547 24.9902 22.5606 23.8896L22.7342 23.3687C22.9344 21.7 22.7661 21.1617 23.9176 21.4121L24.1976 21.4367C25.045 21.4752 26.1544 21.3003 26.8055 20.9977C28.2074 20.3471 29.0389 19.2607 27.6565 19.5461H27.6567Z" fill="#336791"/>
<path d="M13.8869 11.1467C13.6026 11.1071 13.3452 11.1437 13.215 11.2424C13.1418 11.2978 13.1191 11.3621 13.113 11.4063C13.0966 11.5235 13.1787 11.6531 13.2292 11.7199C13.372 11.9092 13.5805 12.0392 13.7869 12.0678C13.8168 12.0721 13.8466 12.074 13.8762 12.074C14.2203 12.074 14.5333 11.806 14.5609 11.6082C14.5954 11.3604 14.2357 11.1952 13.8869 11.1467ZM23.3034 11.1545C23.2762 10.9603 22.9307 10.905 22.6027 10.9506C22.2752 10.9962 21.9577 11.144 21.9842 11.3387C22.0054 11.49 22.2787 11.7484 22.6022 11.7484C22.6296 11.7484 22.6571 11.7466 22.6849 11.7426C22.9009 11.7127 23.0593 11.5756 23.1346 11.4966C23.2492 11.3761 23.3156 11.2418 23.3034 11.1545Z" fill="white"/>
<path d="M28.7064 19.4722C28.5861 19.1086 28.199 18.9916 27.5558 19.1244C25.6462 19.5185 24.9623 19.2455 24.7378 19.0801C26.2221 16.8189 27.4432 14.0855 28.1019 11.5353C28.414 10.3273 28.5863 9.20536 28.6004 8.2909C28.616 7.28725 28.4451 6.54971 28.0925 6.09916C26.6711 4.28287 24.5849 3.3086 22.0596 3.28187C20.3235 3.26236 18.8566 3.70665 18.5723 3.83159C17.9735 3.68268 17.3207 3.59125 16.61 3.57959C15.3067 3.55848 14.1801 3.87051 13.2474 4.50656C12.8423 4.35574 11.7952 3.9963 10.5148 3.79001C8.30107 3.43365 6.54194 3.70368 5.28661 4.59299C3.78872 5.65424 3.0972 7.55124 3.23116 10.2312C3.27623 11.1328 3.78999 13.9065 4.60072 16.5628C5.6679 20.059 6.82799 22.0382 8.04854 22.4453C8.1914 22.493 8.35611 22.5263 8.53779 22.5263C8.98304 22.5263 9.52893 22.3256 10.0969 21.6428C10.7896 20.8117 11.5062 20.0009 12.2458 19.2112C12.7256 19.4687 13.2527 19.6126 13.7918 19.627C13.7929 19.6411 13.7943 19.6552 13.7955 19.6692C13.7027 19.7799 13.6119 19.8921 13.523 20.0059C13.1494 20.4801 13.0717 20.5789 11.8693 20.8264C11.5272 20.8971 10.6188 21.0843 10.6054 21.721C10.591 22.4168 11.6793 22.709 11.8033 22.74C12.2354 22.8481 12.6517 22.9015 13.0487 22.9015C14.0141 22.9015 14.8638 22.5842 15.5428 21.9702C15.5219 24.4505 15.6253 26.8946 15.9231 27.6392C16.1671 28.2489 16.7629 29.7387 18.6451 29.7386C18.9212 29.7386 19.2252 29.7064 19.5596 29.6348C21.524 29.2137 22.377 28.3455 22.707 26.4314C22.8835 25.4084 23.1866 22.9658 23.3291 21.6555C23.6299 21.7494 24.0171 21.7923 24.4357 21.7922C25.3088 21.7922 26.3163 21.6067 26.9481 21.3134C27.6579 20.9838 28.9387 20.175 28.7064 19.4722ZM24.0285 10.6183C24.022 11.0051 23.9688 11.3563 23.9123 11.7228C23.8516 12.117 23.7888 12.5246 23.773 13.0194C23.7574 13.5009 23.8175 14.0015 23.8756 14.4857C23.9932 15.4636 24.1137 16.4703 23.647 17.4637C23.5694 17.3263 23.5004 17.1843 23.4402 17.0385C23.3821 16.8978 23.2561 16.6719 23.0817 16.3593C22.403 15.1421 20.8137 12.2918 21.6273 11.1288C21.8696 10.7826 22.4847 10.4266 24.0285 10.6183ZM22.1571 4.06513C24.4198 4.11509 26.2097 4.96156 27.4769 6.58089C28.4489 7.82296 27.3786 13.4746 24.2803 18.3503C24.2491 18.3107 24.2178 18.2712 24.1863 18.2319L24.1471 18.1829C24.9477 16.8606 24.7912 15.5523 24.6518 14.3925C24.5945 13.9165 24.5404 13.4669 24.5542 13.0445C24.5684 12.597 24.6276 12.213 24.6849 11.8418C24.7552 11.3844 24.8268 10.911 24.8071 10.353C24.8218 10.2945 24.8277 10.2253 24.82 10.1433C24.7696 9.60818 24.1587 8.00677 22.9136 6.55734C22.2324 5.76454 21.2392 4.87734 19.883 4.27895C20.4663 4.15804 21.264 4.0453 22.1571 4.06513ZM9.49584 21.143C8.87008 21.8954 8.43799 21.7512 8.29587 21.7039C7.36996 21.395 6.29557 19.438 5.34834 16.3346C4.5287 13.6494 4.04973 10.9492 4.01176 10.192C3.89213 7.7974 4.4726 6.12854 5.73716 5.23169C7.79516 3.7723 11.1787 4.64581 12.5383 5.08883C12.5188 5.10813 12.4984 5.12616 12.4791 5.14578C10.248 7.39893 10.3009 11.2485 10.3065 11.4839C10.3062 11.5746 10.3139 11.7032 10.3243 11.88C10.3627 12.5275 10.4342 13.7326 10.2432 15.0972C10.0659 16.3654 10.4569 17.6066 11.3156 18.5027C11.4038 18.5945 11.4964 18.6819 11.5932 18.7645C11.2109 19.1739 10.3802 20.0792 9.49584 21.143ZM11.88 17.9619C11.1878 17.2397 10.8735 16.2351 11.0174 15.2054C11.2189 13.7638 11.1446 12.5083 11.1046 11.8338C11.0989 11.7394 11.094 11.6566 11.0911 11.5914C11.417 11.3024 12.9274 10.4931 14.0046 10.7399C14.4961 10.8525 14.7956 11.1872 14.9201 11.7629C15.5645 14.7435 15.0054 15.9858 14.5561 16.9842C14.4635 17.1898 14.376 17.3842 14.3013 17.5853L14.2434 17.7408C14.0969 18.1339 13.9605 18.4993 13.8759 18.8464C13.1401 18.8443 12.4243 18.5299 11.88 17.9618V17.9619ZM11.9929 21.9816C11.7781 21.928 11.5848 21.8347 11.4714 21.7574C11.5661 21.7129 11.7347 21.6522 12.027 21.592C13.4415 21.3008 13.66 21.0953 14.1371 20.4896C14.2464 20.3506 14.3704 20.1932 14.5421 20.0015L14.5423 20.0013C14.798 19.7149 14.915 19.7635 15.1271 19.8515C15.2991 19.9226 15.4665 20.1381 15.5344 20.3752C15.5665 20.4872 15.6026 20.6998 15.4846 20.8652C14.488 22.2606 13.0358 22.2426 11.9929 21.9816ZM19.3959 28.8705C17.6654 29.2413 17.0527 28.3583 16.6489 27.3489C16.3883 26.6973 16.2602 23.7588 16.3511 20.5136C16.3522 20.4705 16.3461 20.4288 16.3342 20.3896C16.3236 20.3121 16.3074 20.2354 16.2858 20.1603C16.1507 19.6881 15.8214 19.2931 15.4263 19.1293C15.2694 19.0643 14.9813 18.945 14.6351 19.0336C14.7089 18.7294 14.8369 18.3859 14.9758 18.0139L15.034 17.8575C15.0996 17.6811 15.1819 17.4983 15.2688 17.3049C15.739 16.2604 16.3829 14.8298 15.6841 11.5978C15.4223 10.3872 14.5481 9.79601 13.223 9.93336C12.4286 10.0156 11.7018 10.3361 11.3393 10.5199C11.2613 10.5593 11.1901 10.5975 11.1234 10.6346C11.2246 9.41493 11.6069 7.13548 13.0368 5.69327C13.9371 4.78539 15.1361 4.33696 16.597 4.36115C19.4755 4.40824 21.3214 5.88545 22.3631 7.11649C23.2608 8.17721 23.7469 9.24577 23.9409 9.8221C22.482 9.67372 21.4898 9.96168 20.9869 10.6808C19.8926 12.2449 21.5855 15.2808 22.3991 16.7399C22.5483 17.0073 22.677 17.2384 22.7176 17.3366C22.9825 17.9787 23.3255 18.4074 23.5759 18.7203C23.6527 18.8161 23.7272 18.9092 23.7838 18.9904C23.3419 19.1178 22.5483 19.4121 22.6206 20.8833C22.5623 21.6214 22.1475 25.0775 21.9367 26.2986C21.6586 27.9118 21.0649 28.5126 19.3959 28.8706V28.8705ZM26.619 20.6045C26.1672 20.8142 25.4111 20.9715 24.6928 21.0053C23.8995 21.0425 23.4956 20.9165 23.4006 20.8389C23.3561 19.9221 23.6972 19.8264 24.0584 19.725C24.1151 19.7091 24.1705 19.6935 24.2239 19.6748C24.2571 19.7019 24.2935 19.7287 24.3334 19.755C24.971 20.1758 26.1083 20.2212 27.714 19.8898L27.7316 19.8863C27.515 20.0888 27.1444 20.3605 26.619 20.6045Z" fill="white"/>
</svg>
