<svg width="29" height="25" viewBox="0 0 29 25" fill="none" xmlns="http://www.w3.org/2000/svg">
<path d="M17.5361 1.12833C18.5022 0.815804 19.6796 0.709067 20.7812 1.2504L21 1.36758L21.2119 1.49942C22.2308 2.18274 22.7261 3.25502 22.9385 4.24747C23.165 5.30667 23.1266 6.49883 22.9355 7.6918C22.9317 7.71558 22.9268 7.73923 22.9229 7.76309C22.9457 7.77167 22.9686 7.77983 22.9912 7.78848C24.12 8.21948 25.1715 8.78236 25.9756 9.50821C26.7793 10.2339 27.5 11.2846 27.5 12.6273C27.4998 13.97 26.7793 15.0209 25.9756 15.7465C25.1715 16.4723 24.1199 17.0343 22.9912 17.4652C22.9687 17.4738 22.9455 17.4811 22.9229 17.4897C22.9268 17.5135 22.9317 17.5372 22.9355 17.5609C23.1266 18.7539 23.165 19.9461 22.9385 21.0053C22.7119 22.0641 22.1628 23.2138 21 23.8852C19.837 24.5565 18.5665 24.4577 17.5361 24.1244C16.5055 23.791 15.4933 23.1609 14.5557 22.3988C14.5369 22.3836 14.5188 22.3674 14.5 22.352C14.4811 22.3675 14.4633 22.3844 14.4443 22.3998C13.5068 23.1617 12.4934 23.791 11.4629 24.1244C10.4327 24.4576 9.16273 24.5563 8 23.8852C6.83717 23.2137 6.28709 22.0642 6.06055 21.0053C5.83398 19.946 5.87331 18.754 6.06445 17.5609C6.06825 17.5372 6.07224 17.5135 6.07617 17.4897C6.05376 17.4812 6.03106 17.4737 6.00879 17.4652C4.88009 17.0343 3.82848 16.4723 3.02441 15.7465C2.27082 15.0662 1.58997 14.1 1.50781 12.8754L1.5 12.6273L1.50781 12.3783C1.59002 11.154 2.271 10.1884 3.02441 9.50821C3.82848 8.78236 4.88003 8.21948 6.00879 7.78848C6.03116 7.77994 6.05366 7.77156 6.07617 7.76309C6.07224 7.73928 6.06825 7.71553 6.06445 7.6918C5.87331 6.49874 5.83398 5.30676 6.06055 4.24747C6.27295 3.25467 6.76951 2.1818 7.78906 1.49844L8 1.36758L8.21973 1.2504C9.32096 0.709633 10.4972 0.816024 11.4629 1.12833C12.4934 1.46171 13.5068 2.09101 14.4443 2.85293C14.4631 2.8682 14.4812 2.88438 14.5 2.89981C14.5186 2.88452 14.537 2.86905 14.5557 2.85391C15.4933 2.09185 16.5055 1.46176 17.5361 1.12833Z" fill="white" fill-opacity="0.3"/>
<path d="M14.5 14.6762C15.6321 14.6762 16.55 13.7584 16.55 12.6262C16.55 11.494 15.6321 10.5762 14.5 10.5762C13.3678 10.5762 12.45 11.494 12.45 12.6262C12.45 13.7584 13.3678 14.6762 14.5 14.6762Z" fill="#61DAFB"/>
<path d="M14.5 16.8268C20.5751 16.8268 25.5 14.9464 25.5 12.6268C25.5 10.3072 20.5751 8.42676 14.5 8.42676C8.42487 8.42676 3.5 10.3072 3.5 12.6268C3.5 14.9464 8.42487 16.8268 14.5 16.8268Z" stroke="#61DAFB"/>
<path d="M10.8626 14.7263C13.9002 19.9875 17.9911 23.3124 19.9999 22.1526C22.0087 20.9928 21.1748 15.7875 18.1372 10.5263C15.0996 5.26506 11.0087 1.9402 8.9999 3.1C6.99107 4.2598 7.82503 9.46506 10.8626 14.7263Z" stroke="#61DAFB"/>
<path d="M10.8626 10.5265C7.82503 15.7877 6.99107 20.993 8.9999 22.1528C11.0087 23.3126 15.0996 19.9877 18.1372 14.7265C21.1748 9.46526 22.0087 4.25999 19.9999 3.1002C17.9911 1.9404 13.9002 5.26526 10.8626 10.5265Z" stroke="#61DAFB"/>
</svg>
