
<svg width="24" height="24" viewBox="0 0 24 24" fill="none" xmlns="http://www.w3.org/2000/svg">
<g clip-path="url(#clip0_2037_2)">
<path d="M22.693 10.1333L16.2482 7.7518L13.8742 1.30203C13.7336 0.920104 13.4793 0.59049 13.1455 0.357662C12.8117 0.124835 12.4145 0 12.0075 0C11.6005 0 11.2033 0.124835 10.8695 0.357662C10.5357 0.59049 10.2814 0.920104 10.1408 1.30203L7.7518 7.7518L1.30203 10.1258C0.920103 10.2664 0.59049 10.5207 0.357663 10.8545C0.124835 11.1883 0 11.5855 0 11.9925C0 12.3995 0.124835 12.7967 0.357663 13.1305C0.59049 13.4643 0.920103 13.7186 1.30203 13.8592L7.7518 16.2482L10.1258 22.698C10.2664 23.0799 10.5207 23.4095 10.8545 23.6423C11.1883 23.8752 11.5855 24 11.9925 24C12.3995 24 12.7967 23.8752 13.1305 23.6423C13.4643 23.4095 13.7186 23.0799 13.8592 22.698L16.2482 16.2482L22.698 13.8742C23.0799 13.7336 23.4095 13.4793 23.6423 13.1455C23.8752 12.8117 24 12.4145 24 12.0075C24 11.6005 23.8752 11.2033 23.6423 10.8695C23.4095 10.5357 23.0799 10.2814 22.698 10.1408L22.693 10.1333ZM15.1237 14.5264C14.988 14.5764 14.8648 14.6553 14.7625 14.7575C14.6603 14.8598 14.5814 14.983 14.5314 15.1187L12 21.977L9.47357 15.1237C9.42365 14.9866 9.34431 14.8621 9.24113 14.7589C9.13795 14.6557 9.01343 14.5764 8.87632 14.5264L2.02298 12L8.87632 9.47357C9.01343 9.42364 9.13795 9.34431 9.24113 9.24113C9.34431 9.13795 9.42365 9.01343 9.47357 8.87632L12 2.02298L14.5264 8.87632C14.5764 9.012 14.6553 9.13522 14.7575 9.23747C14.8598 9.33972 14.983 9.41857 15.1187 9.46857L21.977 12L15.1237 14.5264Z" fill="white"/>
</g>
<defs>
<clipPath id="clip0_2037_2">
<rect width="24" height="24" fill="white"/>
</clipPath>
</defs>
</svg>
