<svg width="619" height="188" viewBox="0 0 619 188" fill="none" xmlns="http://www.w3.org/2000/svg">
<path d="M580 0H20C8.9543 0 0 8.9543 0 20V160C0 171.046 8.9543 180 20 180H580C591.046 180 600 171.046 600 160V20C600 8.9543 591.046 0 580 0Z" fill="#6200EE" style="fill:#6200EE;fill:color(display-p3 0.3843 0.0000 0.9333);fill-opacity:1;"/>
<path d="M588 8H28C16.9543 8 8 16.9543 8 28V168C8 179.046 16.9543 188 28 188H588C599.046 188 608 179.046 608 168V28C608 16.9543 599.046 8 588 8Z" fill="#6200EE" style="fill:#6200EE;fill:color(display-p3 0.3843 0.0000 0.9333);fill-opacity:1;"/>
<path d="M579 5H21C12.1634 5 5 12.1634 5 21V159C5 167.837 12.1634 175 21 175H579C587.837 175 595 167.837 595 159V21C595 12.1634 587.837 5 579 5Z" fill="white" style="fill:white;fill-opacity:1;"/>
<path d="M131 26H57C42.0883 26 30 38.0883 30 53V127C30 141.912 42.0883 154 57 154H131C145.912 154 158 141.912 158 127V53C158 38.0883 145.912 26 131 26Z" fill="black" style="fill:black;fill-opacity:1;"/>
<path d="M94 101.251L82.75 90.0009M94 101.251C99.2382 99.2587 104.263 96.7461 109 93.7509M94 101.251V120.001C94 120.001 105.363 117.939 109 112.501C113.05 106.426 109 93.7509 109 93.7509M82.75 90.0009C84.7455 84.8238 87.2583 79.8611 90.25 75.1884C94.6194 68.2021 100.704 62.4498 107.924 58.4787C115.144 54.5077 123.26 52.4498 131.5 52.5009C131.5 62.7009 128.575 80.6259 109 93.7509M82.75 90.0009H64C64 90.0009 66.0625 78.6384 71.5 75.0009C77.575 70.9509 90.25 75.0009 90.25 75.0009M65.875 106.876C60.25 111.601 58.375 125.626 58.375 125.626C58.375 125.626 72.4 123.751 77.125 118.126C79.7875 114.976 79.75 110.139 76.7875 107.214C75.3299 105.822 73.4099 105.018 71.3958 104.956C69.3818 104.894 67.4158 105.578 65.875 106.876Z" stroke="white" style="stroke:white;stroke-opacity:1;" stroke-width="7.5" stroke-linecap="round" stroke-linejoin="round"/>
<path d="M181.277 101.384V96.82H202.78V101.384H194.765V123.002H189.293V101.384H181.277ZM206.219 123.002V103.366H211.665V123.002H206.219ZM208.955 100.834C208.145 100.834 207.451 100.566 206.871 100.029C206.3 99.4833 206.015 98.8313 206.015 98.0728C206.015 97.3228 206.3 96.6794 206.871 96.1424C207.451 95.597 208.145 95.3242 208.955 95.3242C209.765 95.3242 210.455 95.597 211.026 96.1424C211.606 96.6794 211.895 97.3228 211.895 98.0728C211.895 98.8313 211.606 99.4833 211.026 100.029C210.455 100.566 209.765 100.834 208.955 100.834ZM221.474 111.65V123.002H216.028V103.366H221.218V106.83H221.448C221.883 105.688 222.612 104.785 223.634 104.12C224.657 103.447 225.897 103.11 227.354 103.11C228.718 103.11 229.907 103.408 230.921 104.005C231.935 104.601 232.724 105.454 233.286 106.562C233.849 107.661 234.13 108.974 234.13 110.499V123.002H228.684V111.471C228.693 110.269 228.386 109.332 227.764 108.658C227.141 107.976 226.285 107.636 225.194 107.636C224.461 107.636 223.813 107.793 223.251 108.109C222.697 108.424 222.262 108.884 221.947 109.489C221.64 110.086 221.482 110.806 221.474 111.65ZM241.081 130.366C240.391 130.366 239.743 130.31 239.138 130.199C238.542 130.097 238.047 129.965 237.655 129.803L238.883 125.738C239.522 125.934 240.097 126.04 240.608 126.057C241.128 126.074 241.576 125.955 241.951 125.699C242.334 125.444 242.645 125.009 242.884 124.395L243.204 123.564L236.16 103.366H241.887L245.952 117.786H246.157L250.26 103.366H256.026L248.394 125.124C248.027 126.181 247.529 127.101 246.898 127.886C246.276 128.678 245.488 129.288 244.533 129.714C243.579 130.148 242.428 130.366 241.081 130.366ZM258.915 123.002V96.82H264.451V118.438H275.675V123.002H258.915ZM284.838 123.373C283.585 123.373 282.469 123.155 281.489 122.721C280.509 122.278 279.733 121.626 279.162 120.765C278.599 119.895 278.318 118.813 278.318 117.518C278.318 116.427 278.519 115.511 278.919 114.769C279.32 114.028 279.865 113.431 280.555 112.979C281.246 112.528 282.03 112.187 282.908 111.957C283.794 111.726 284.723 111.564 285.695 111.471C286.837 111.351 287.757 111.241 288.456 111.138C289.155 111.028 289.662 110.866 289.977 110.653C290.293 110.439 290.45 110.124 290.45 109.707V109.63C290.45 108.82 290.195 108.194 289.683 107.751C289.18 107.307 288.465 107.086 287.536 107.086C286.555 107.086 285.776 107.303 285.196 107.738C284.617 108.164 284.233 108.701 284.046 109.349L279.009 108.94C279.264 107.746 279.767 106.715 280.517 105.846C281.267 104.968 282.234 104.295 283.419 103.826C284.612 103.349 285.993 103.11 287.561 103.11C288.652 103.11 289.696 103.238 290.693 103.493C291.699 103.749 292.59 104.145 293.365 104.682C294.149 105.219 294.767 105.91 295.219 106.753C295.671 107.589 295.896 108.59 295.896 109.758V123.002H290.732V120.279H290.578C290.263 120.893 289.841 121.434 289.313 121.903C288.784 122.363 288.149 122.725 287.408 122.989C286.666 123.245 285.81 123.373 284.838 123.373ZM286.398 119.614C287.199 119.614 287.906 119.457 288.52 119.141C289.134 118.817 289.615 118.383 289.965 117.837C290.314 117.292 290.489 116.674 290.489 115.984V113.9C290.318 114.011 290.084 114.113 289.786 114.207C289.496 114.292 289.168 114.373 288.801 114.449C288.435 114.518 288.068 114.582 287.702 114.641C287.335 114.692 287.003 114.739 286.705 114.782C286.065 114.876 285.507 115.025 285.03 115.229C284.553 115.434 284.182 115.711 283.918 116.06C283.653 116.401 283.521 116.827 283.521 117.339C283.521 118.08 283.79 118.647 284.327 119.039C284.872 119.422 285.563 119.614 286.398 119.614ZM312.714 114.641V103.366H318.16V123.002H312.931V119.435H312.727C312.283 120.586 311.546 121.511 310.515 122.209C309.492 122.908 308.244 123.258 306.769 123.258C305.457 123.258 304.302 122.959 303.305 122.363C302.308 121.766 301.528 120.918 300.965 119.819C300.411 118.719 300.13 117.403 300.122 115.868V103.366H305.568V114.897C305.576 116.056 305.887 116.972 306.501 117.645C307.114 118.319 307.937 118.655 308.968 118.655C309.624 118.655 310.238 118.506 310.809 118.208C311.38 117.901 311.84 117.449 312.19 116.853C312.548 116.256 312.722 115.519 312.714 114.641ZM327.962 111.65V123.002H322.516V103.366H327.706V106.83H327.937C328.371 105.688 329.1 104.785 330.123 104.12C331.145 103.447 332.385 103.11 333.843 103.11C335.206 103.11 336.395 103.408 337.41 104.005C338.424 104.601 339.212 105.454 339.775 106.562C340.337 107.661 340.618 108.974 340.618 110.499V123.002H335.172V111.471C335.181 110.269 334.874 109.332 334.252 108.658C333.63 107.976 332.773 107.636 331.682 107.636C330.949 107.636 330.302 107.793 329.739 108.109C329.185 108.424 328.75 108.884 328.435 109.489C328.128 110.086 327.971 110.806 327.962 111.65ZM353.783 123.386C351.771 123.386 350.041 122.959 348.592 122.107C347.152 121.246 346.044 120.053 345.269 118.528C344.501 117.002 344.118 115.246 344.118 113.261C344.118 111.249 344.506 109.485 345.281 107.968C346.065 106.442 347.178 105.253 348.618 104.401C350.058 103.54 351.771 103.11 353.757 103.11C355.47 103.11 356.97 103.421 358.257 104.043C359.544 104.665 360.563 105.539 361.313 106.664C362.063 107.789 362.476 109.11 362.553 110.627H357.413C357.269 109.647 356.885 108.859 356.263 108.262C355.649 107.657 354.844 107.354 353.847 107.354C353.003 107.354 352.266 107.584 351.635 108.045C351.013 108.496 350.527 109.157 350.178 110.026C349.828 110.895 349.653 111.948 349.653 113.184C349.653 114.437 349.824 115.502 350.165 116.38C350.514 117.258 351.004 117.927 351.635 118.387C352.266 118.847 353.003 119.077 353.847 119.077C354.469 119.077 355.027 118.949 355.521 118.694C356.024 118.438 356.438 118.067 356.761 117.582C357.094 117.087 357.311 116.495 357.413 115.805H362.553C362.467 117.305 362.058 118.626 361.325 119.768C360.601 120.901 359.599 121.788 358.321 122.427C357.043 123.066 355.53 123.386 353.783 123.386ZM371.486 111.65V123.002H366.039V96.82H371.332V106.83H371.562C372.005 105.671 372.721 104.763 373.71 104.107C374.699 103.442 375.939 103.11 377.43 103.11C378.794 103.11 379.983 103.408 380.997 104.005C382.02 104.593 382.812 105.441 383.375 106.549C383.946 107.648 384.227 108.965 384.218 110.499V123.002H378.772V111.471C378.781 110.261 378.474 109.319 377.852 108.645C377.238 107.972 376.378 107.636 375.27 107.636C374.528 107.636 373.872 107.793 373.301 108.109C372.738 108.424 372.295 108.884 371.971 109.489C371.656 110.086 371.494 110.806 371.486 111.65Z" fill="black" style="fill:black;fill-opacity:1;"/>
<path d="M182.816 79V55.7273H185.634V76.5H196.453V79H182.816ZM205.589 79.4091C204.483 79.4091 203.479 79.2008 202.578 78.7841C201.676 78.3598 200.96 77.75 200.43 76.9545C199.9 76.1515 199.634 75.1818 199.634 74.0455C199.634 73.0455 199.831 72.2348 200.225 71.6136C200.619 70.9848 201.146 70.4924 201.805 70.1364C202.464 69.7803 203.191 69.5152 203.987 69.3409C204.79 69.1591 205.596 69.0152 206.407 68.9091C207.468 68.7727 208.328 68.6705 208.987 68.6023C209.653 68.5265 210.138 68.4015 210.441 68.2273C210.752 68.053 210.907 67.75 210.907 67.3182V67.2273C210.907 66.1061 210.6 65.2348 209.987 64.6136C209.381 63.9924 208.46 63.6818 207.225 63.6818C205.945 63.6818 204.941 63.9621 204.214 64.5227C203.487 65.0833 202.975 65.6818 202.68 66.3182L200.134 65.4091C200.589 64.3485 201.195 63.5227 201.953 62.9318C202.718 62.3333 203.551 61.9167 204.453 61.6818C205.362 61.4394 206.256 61.3182 207.134 61.3182C207.695 61.3182 208.339 61.3864 209.066 61.5227C209.801 61.6515 210.509 61.9205 211.191 62.3295C211.881 62.7386 212.453 63.3561 212.907 64.1818C213.362 65.0076 213.589 66.1136 213.589 67.5V79H210.907V76.6364H210.771C210.589 77.0152 210.286 77.4205 209.862 77.8523C209.437 78.2841 208.873 78.6515 208.168 78.9545C207.464 79.2576 206.604 79.4091 205.589 79.4091ZM205.998 77C207.059 77 207.953 76.7917 208.68 76.375C209.415 75.9583 209.968 75.4205 210.339 74.7614C210.718 74.1023 210.907 73.4091 210.907 72.6818V70.2273C210.793 70.3636 210.543 70.4886 210.157 70.6023C209.778 70.7083 209.339 70.803 208.839 70.8864C208.346 70.9621 207.865 71.0303 207.396 71.0909C206.934 71.1439 206.559 71.1894 206.271 71.2273C205.574 71.3182 204.922 71.4659 204.316 71.6705C203.718 71.8674 203.233 72.1667 202.862 72.5682C202.498 72.9621 202.316 73.5 202.316 74.1818C202.316 75.1136 202.661 75.8182 203.35 76.2955C204.047 76.7652 204.93 77 205.998 77ZM229.484 71.8636V61.5455H232.166V79H229.484V76.0455H229.302C228.893 76.9318 228.257 77.6856 227.393 78.3068C226.529 78.9205 225.438 79.2273 224.12 79.2273C223.029 79.2273 222.06 78.9886 221.211 78.5114C220.363 78.0265 219.696 77.2992 219.211 76.3295C218.726 75.3523 218.484 74.1212 218.484 72.6364V61.5455H221.166V72.4545C221.166 73.7273 221.522 74.7424 222.234 75.5C222.953 76.2576 223.87 76.6364 224.984 76.6364C225.65 76.6364 226.328 76.4659 227.018 76.125C227.715 75.7841 228.298 75.2614 228.768 74.5568C229.245 73.8523 229.484 72.9545 229.484 71.8636ZM239.759 68.5V79H237.078V61.5455H239.668V64.2727H239.896C240.305 63.3864 240.926 62.6742 241.759 62.1364C242.593 61.5909 243.668 61.3182 244.987 61.3182C246.168 61.3182 247.203 61.5606 248.089 62.0455C248.975 62.5227 249.665 63.25 250.157 64.2273C250.65 65.197 250.896 66.4242 250.896 67.9091V79H248.214V68.0909C248.214 66.7197 247.858 65.6515 247.146 64.8864C246.434 64.1136 245.456 63.7273 244.214 63.7273C243.358 63.7273 242.593 63.9129 241.918 64.2841C241.252 64.6553 240.725 65.197 240.339 65.9091C239.953 66.6212 239.759 67.4848 239.759 68.5ZM262.887 79.3636C261.251 79.3636 259.842 78.9773 258.66 78.2045C257.478 77.4318 256.569 76.3674 255.933 75.0114C255.296 73.6553 254.978 72.1061 254.978 70.3636C254.978 68.5909 255.304 67.0265 255.955 65.6705C256.614 64.3068 257.531 63.2424 258.705 62.4773C259.887 61.7045 261.266 61.3182 262.842 61.3182C264.069 61.3182 265.175 61.5455 266.16 62C267.145 62.4545 267.952 63.0909 268.58 63.9091C269.209 64.7273 269.599 65.6818 269.751 66.7727H267.069C266.864 65.9773 266.41 65.2727 265.705 64.6591C265.008 64.0379 264.069 63.7273 262.887 63.7273C261.842 63.7273 260.925 64 260.137 64.5455C259.357 65.0833 258.747 65.8447 258.308 66.8295C257.876 67.8068 257.66 68.9545 257.66 70.2727C257.66 71.6212 257.872 72.7955 258.296 73.7955C258.728 74.7955 259.334 75.572 260.114 76.125C260.902 76.678 261.827 76.9545 262.887 76.9545C263.584 76.9545 264.217 76.8333 264.785 76.5909C265.353 76.3485 265.834 76 266.228 75.5455C266.622 75.0909 266.902 74.5455 267.069 73.9091H269.751C269.599 74.9394 269.224 75.8674 268.626 76.6932C268.035 77.5114 267.251 78.1629 266.274 78.6477C265.304 79.125 264.175 79.3636 262.887 79.3636ZM276.353 68.5V79H273.671V55.7273H276.353V64.2727H276.58C276.989 63.3712 277.603 62.6553 278.421 62.125C279.247 61.5871 280.346 61.3182 281.717 61.3182C282.906 61.3182 283.948 61.5568 284.842 62.0341C285.736 62.5038 286.429 63.2273 286.921 64.2045C287.421 65.1742 287.671 66.4091 287.671 67.9091V79H284.989V68.0909C284.989 66.7045 284.63 65.6326 283.91 64.875C283.198 64.1098 282.209 63.7273 280.944 63.7273C280.065 63.7273 279.277 63.9129 278.58 64.2841C277.891 64.6553 277.346 65.197 276.944 65.9091C276.55 66.6212 276.353 67.4848 276.353 68.5ZM292.578 79V61.5455H295.259V79H292.578ZM293.941 58.6364C293.418 58.6364 292.968 58.4583 292.589 58.1023C292.218 57.7462 292.032 57.3182 292.032 56.8182C292.032 56.3182 292.218 55.8902 292.589 55.5341C292.968 55.178 293.418 55 293.941 55C294.464 55 294.911 55.178 295.282 55.5341C295.661 55.8902 295.85 56.3182 295.85 56.8182C295.85 57.3182 295.661 57.7462 295.282 58.1023C294.911 58.4583 294.464 58.6364 293.941 58.6364ZM302.853 68.5V79H300.171V61.5455H302.762V64.2727H302.989C303.399 63.3864 304.02 62.6742 304.853 62.1364C305.686 61.5909 306.762 61.3182 308.08 61.3182C309.262 61.3182 310.296 61.5606 311.183 62.0455C312.069 62.5227 312.758 63.25 313.251 64.2273C313.743 65.197 313.989 66.4242 313.989 67.9091V79H311.308V68.0909C311.308 66.7197 310.952 65.6515 310.239 64.8864C309.527 64.1136 308.55 63.7273 307.308 63.7273C306.452 63.7273 305.686 63.9129 305.012 64.2841C304.346 64.6553 303.819 65.197 303.433 65.9091C303.046 66.6212 302.853 67.4848 302.853 68.5ZM325.936 85.9091C324.64 85.9091 323.526 85.7424 322.595 85.4091C321.663 85.0833 320.886 84.6515 320.265 84.1136C319.651 83.5833 319.163 83.0152 318.799 82.4091L320.936 80.9091C321.178 81.2273 321.485 81.5909 321.856 82C322.227 82.4167 322.735 82.7765 323.379 83.0795C324.03 83.3902 324.882 83.5455 325.936 83.5455C327.345 83.5455 328.507 83.2045 329.424 82.5227C330.341 81.8409 330.799 80.7727 330.799 79.3182V75.7727H330.572C330.375 76.0909 330.095 76.4848 329.731 76.9545C329.375 77.4167 328.86 77.8295 328.186 78.1932C327.519 78.5492 326.617 78.7273 325.481 78.7273C324.072 78.7273 322.807 78.3939 321.686 77.7273C320.572 77.0606 319.689 76.0909 319.038 74.8182C318.394 73.5455 318.072 72 318.072 70.1818C318.072 68.3939 318.386 66.8371 319.015 65.5114C319.644 64.178 320.519 63.1477 321.64 62.4205C322.761 61.6856 324.057 61.3182 325.526 61.3182C326.663 61.3182 327.564 61.5076 328.231 61.8864C328.905 62.2576 329.42 62.6818 329.776 63.1591C330.14 63.6288 330.42 64.0152 330.617 64.3182H330.89V61.5455H333.481V79.5C333.481 81 333.14 82.2197 332.458 83.1591C331.784 84.1061 330.875 84.7992 329.731 85.2386C328.595 85.6856 327.329 85.9091 325.936 85.9091ZM325.845 76.3182C326.92 76.3182 327.829 76.072 328.572 75.5795C329.314 75.0871 329.879 74.3788 330.265 73.4545C330.651 72.5303 330.845 71.4242 330.845 70.1364C330.845 68.8788 330.655 67.7689 330.276 66.8068C329.898 65.8447 329.337 65.0909 328.595 64.5455C327.852 64 326.936 63.7273 325.845 63.7273C324.708 63.7273 323.761 64.0152 323.004 64.5909C322.254 65.1667 321.689 65.9394 321.31 66.9091C320.939 67.8788 320.754 68.9545 320.754 70.1364C320.754 71.3485 320.943 72.4205 321.322 73.3523C321.708 74.2765 322.276 75.0038 323.026 75.5341C323.784 76.0568 324.723 76.3182 325.845 76.3182ZM359.754 65.4545L357.345 66.1364C357.193 65.7348 356.97 65.3447 356.674 64.9659C356.386 64.5795 355.992 64.2614 355.492 64.0114C354.992 63.7614 354.352 63.6364 353.572 63.6364C352.504 63.6364 351.614 63.8826 350.901 64.375C350.197 64.8598 349.845 65.4773 349.845 66.2273C349.845 66.8939 350.087 67.4205 350.572 67.8068C351.057 68.1932 351.814 68.5152 352.845 68.7727L355.436 69.4091C356.996 69.7879 358.159 70.3674 358.924 71.1477C359.689 71.9205 360.072 72.9167 360.072 74.1364C360.072 75.1364 359.784 76.0303 359.208 76.8182C358.64 77.6061 357.845 78.2273 356.822 78.6818C355.799 79.1364 354.61 79.3636 353.254 79.3636C351.473 79.3636 350 78.9773 348.833 78.2045C347.667 77.4318 346.928 76.303 346.617 74.8182L349.163 74.1818C349.405 75.1212 349.864 75.8258 350.538 76.2955C351.22 76.7652 352.11 77 353.208 77C354.458 77 355.451 76.7348 356.186 76.2045C356.928 75.6667 357.299 75.0227 357.299 74.2727C357.299 73.6667 357.087 73.1591 356.663 72.75C356.239 72.3333 355.587 72.0227 354.708 71.8182L351.799 71.1364C350.201 70.7576 349.026 70.1705 348.276 69.375C347.534 68.572 347.163 67.5682 347.163 66.3636C347.163 65.3788 347.439 64.5076 347.992 63.75C348.553 62.9924 349.314 62.3977 350.276 61.9659C351.246 61.5341 352.345 61.3182 353.572 61.3182C355.299 61.3182 356.655 61.697 357.64 62.4545C358.632 63.2121 359.337 64.2121 359.754 65.4545ZM371.2 79.3636C369.624 79.3636 368.241 78.9886 367.052 78.2386C365.87 77.4886 364.946 76.4394 364.279 75.0909C363.62 73.7424 363.291 72.1667 363.291 70.3636C363.291 68.5455 363.62 66.9583 364.279 65.6023C364.946 64.2462 365.87 63.1932 367.052 62.4432C368.241 61.6932 369.624 61.3182 371.2 61.3182C372.775 61.3182 374.154 61.6932 375.336 62.4432C376.525 63.1932 377.45 64.2462 378.109 65.6023C378.775 66.9583 379.109 68.5455 379.109 70.3636C379.109 72.1667 378.775 73.7424 378.109 75.0909C377.45 76.4394 376.525 77.4886 375.336 78.2386C374.154 78.9886 372.775 79.3636 371.2 79.3636ZM371.2 76.9545C372.397 76.9545 373.382 76.6477 374.154 76.0341C374.927 75.4205 375.499 74.6136 375.87 73.6136C376.241 72.6136 376.427 71.5303 376.427 70.3636C376.427 69.197 376.241 68.1098 375.87 67.1023C375.499 66.0947 374.927 65.2803 374.154 64.6591C373.382 64.0379 372.397 63.7273 371.2 63.7273C370.003 63.7273 369.018 64.0379 368.245 64.6591C367.472 65.2803 366.9 66.0947 366.529 67.1023C366.158 68.1098 365.972 69.197 365.972 70.3636C365.972 71.5303 366.158 72.6136 366.529 73.6136C366.9 74.6136 367.472 75.4205 368.245 76.0341C369.018 76.6477 370.003 76.9545 371.2 76.9545ZM390.293 79.3636C388.718 79.3636 387.335 78.9886 386.146 78.2386C384.964 77.4886 384.04 76.4394 383.373 75.0909C382.714 73.7424 382.384 72.1667 382.384 70.3636C382.384 68.5455 382.714 66.9583 383.373 65.6023C384.04 64.2462 384.964 63.1932 386.146 62.4432C387.335 61.6932 388.718 61.3182 390.293 61.3182C391.869 61.3182 393.248 61.6932 394.43 62.4432C395.619 63.1932 396.543 64.2462 397.203 65.6023C397.869 66.9583 398.203 68.5455 398.203 70.3636C398.203 72.1667 397.869 73.7424 397.203 75.0909C396.543 76.4394 395.619 77.4886 394.43 78.2386C393.248 78.9886 391.869 79.3636 390.293 79.3636ZM390.293 76.9545C391.49 76.9545 392.475 76.6477 393.248 76.0341C394.021 75.4205 394.593 74.6136 394.964 73.6136C395.335 72.6136 395.521 71.5303 395.521 70.3636C395.521 69.197 395.335 68.1098 394.964 67.1023C394.593 66.0947 394.021 65.2803 393.248 64.6591C392.475 64.0379 391.49 63.7273 390.293 63.7273C389.096 63.7273 388.112 64.0379 387.339 64.6591C386.566 65.2803 385.994 66.0947 385.623 67.1023C385.252 68.1098 385.066 69.197 385.066 70.3636C385.066 71.5303 385.252 72.6136 385.623 73.6136C385.994 74.6136 386.566 75.4205 387.339 76.0341C388.112 76.6477 389.096 76.9545 390.293 76.9545ZM404.978 68.5V79H402.296V61.5455H404.887V64.2727H405.114C405.524 63.3864 406.145 62.6742 406.978 62.1364C407.811 61.5909 408.887 61.3182 410.205 61.3182C411.387 61.3182 412.421 61.5606 413.308 62.0455C414.194 62.5227 414.883 63.25 415.376 64.2273C415.868 65.197 416.114 66.4242 416.114 67.9091V79H413.433V68.0909C413.433 66.7197 413.077 65.6515 412.364 64.8864C411.652 64.1136 410.675 63.7273 409.433 63.7273C408.577 63.7273 407.811 63.9129 407.137 64.2841C406.471 64.6553 405.944 65.197 405.558 65.9091C405.171 66.6212 404.978 67.4848 404.978 68.5ZM437.106 79.3636C435.53 79.3636 434.148 78.9886 432.958 78.2386C431.776 77.4886 430.852 76.4394 430.186 75.0909C429.526 73.7424 429.197 72.1667 429.197 70.3636C429.197 68.5455 429.526 66.9583 430.186 65.6023C430.852 64.2462 431.776 63.1932 432.958 62.4432C434.148 61.6932 435.53 61.3182 437.106 61.3182C438.682 61.3182 440.061 61.6932 441.242 62.4432C442.432 63.1932 443.356 64.2462 444.015 65.6023C444.682 66.9583 445.015 68.5455 445.015 70.3636C445.015 72.1667 444.682 73.7424 444.015 75.0909C443.356 76.4394 442.432 77.4886 441.242 78.2386C440.061 78.9886 438.682 79.3636 437.106 79.3636ZM437.106 76.9545C438.303 76.9545 439.288 76.6477 440.06 76.0341C440.833 75.4205 441.405 74.6136 441.776 73.6136C442.148 72.6136 442.333 71.5303 442.333 70.3636C442.333 69.197 442.148 68.1098 441.776 67.1023C441.405 66.0947 440.833 65.2803 440.06 64.6591C439.288 64.0379 438.303 63.7273 437.106 63.7273C435.909 63.7273 434.924 64.0379 434.151 64.6591C433.379 65.2803 432.807 66.0947 432.436 67.1023C432.064 68.1098 431.879 69.197 431.879 70.3636C431.879 71.5303 432.064 72.6136 432.436 73.6136C432.807 74.6136 433.379 75.4205 434.151 76.0341C434.924 76.6477 435.909 76.9545 437.106 76.9545ZM451.791 68.5V79H449.109V61.5455H451.7V64.2727H451.927C452.336 63.3864 452.957 62.6742 453.791 62.1364C454.624 61.5909 455.7 61.3182 457.018 61.3182C458.2 61.3182 459.234 61.5606 460.12 62.0455C461.007 62.5227 461.696 63.25 462.188 64.2273C462.681 65.197 462.927 66.4242 462.927 67.9091V79H460.245V68.0909C460.245 66.7197 459.889 65.6515 459.177 64.8864C458.465 64.1136 457.488 63.7273 456.245 63.7273C455.389 63.7273 454.624 63.9129 453.95 64.2841C453.283 64.6553 452.757 65.197 452.37 65.9091C451.984 66.6212 451.791 67.4848 451.791 68.5Z" fill="black" style="fill:black;fill-opacity:1;"/>
</svg>
