<svg width="909" height="909" viewBox="0 0 909 909" fill="none" xmlns="http://www.w3.org/2000/svg">
<circle cx="454.162" cy="454.161" r="452.567" transform="rotate(-0.202329 454.162 454.161)" fill="#ECA946"/>
<path d="M377.244 473.797C377.183 465.58 383.294 458.686 391.468 457.888C415.797 455.513 466.001 451.069 501.592 451.009C537.174 450.949 587.36 455.222 611.697 457.516C619.881 458.287 626.093 465.159 626.154 473.375V473.375C626.224 482.933 618.019 490.416 608.496 489.535C583.111 487.187 535.812 483.292 501.831 483.35C467.838 483.407 420.515 487.463 395.137 489.897C385.628 490.808 377.314 483.354 377.244 473.797V473.797Z" fill="#202328"/>
<path d="M57.9672 473.793C57.9063 465.576 64.0174 458.682 72.1914 457.884C96.5211 455.509 146.724 451.065 182.315 451.005C217.897 450.946 268.084 455.218 292.42 457.512C300.605 458.283 306.816 465.155 306.877 473.371V473.371C306.948 482.929 298.743 490.412 289.22 489.531C263.835 487.183 216.535 483.288 182.555 483.346C148.562 483.403 101.239 487.459 75.8607 489.893C66.3519 490.804 58.038 483.35 57.9672 473.793V473.793Z" fill="#202328"/>
<path d="M258.842 616.058C258.842 616.058 258.842 616.058 258.842 616.058C258.842 616.062 258.851 636.248 346.3 636.247C433.756 636.247 433.757 616.676 433.757 616.676C433.757 616.676 433.757 616.676 433.757 616.676L433.757 612.798C433.757 606.263 425.86 601.76 419.812 604.234C406.134 609.828 382.084 616.676 346.3 616.676C310.661 616.676 286.661 609.67 272.955 603.912C266.879 601.36 258.842 605.883 258.842 612.472L258.842 616.058Z" fill="#202328"/>
<path d="M114.858 513.701C114.837 519.647 119.173 524.705 125.068 525.488C138.975 527.338 164.171 530.323 182.341 530.387C200.506 530.451 225.681 527.646 239.584 525.894C245.483 525.151 249.854 520.126 249.875 514.18V514.18C249.901 506.854 243.421 501.192 236.148 502.076C221.807 503.819 199.147 506.192 182.427 506.133C165.698 506.073 143.014 503.538 128.667 501.693C121.402 500.759 114.884 506.375 114.858 513.701V513.701Z" fill="#202328"/>
<path d="M433.858 513.704C433.837 519.651 438.173 524.708 444.068 525.492C457.975 527.342 483.171 530.327 501.341 530.391C519.506 530.455 544.681 527.65 558.584 525.898C564.483 525.155 568.854 520.13 568.875 514.184V514.184C568.901 506.858 562.421 501.196 555.148 502.08C540.807 503.823 518.147 506.195 501.427 506.136C484.698 506.077 462.014 503.542 447.667 501.697C440.402 500.763 433.884 506.379 433.858 513.704V513.704Z" fill="#202328"/>
</svg>
