<svg width="2370" height="1200" viewBox="0 0 2370 1200" fill="none" xmlns="http://www.w3.org/2000/svg">
<path d="M604.9 67.0547C611.264 67.0804 617.206 68.5331 620.694 72.1201C625.259 80.0863 635.852 75.5062 643.339 77.6084C646.309 80.9803 640.346 87.8842 648.77 76.9932C649.89 75.8469 669.042 71.5069 670.368 73.3535C669.124 74.4872 651.287 86.9756 655.594 90.2188C659.875 91.6662 663.472 93.6278 663.49 94.5273C663.005 98.1 651.643 100.154 648.665 103.462C634.128 104.739 637.379 107.822 650.857 108.284C659.799 108.147 660.655 107.985 662.445 106.118C667.434 101.014 674.272 97.085 686.188 92.25C688.905 90.7574 693.891 85.0006 698.846 83.6328C704.048 81.5018 703.743 75.8488 709.499 73.1387C711.188 71.6667 721.493 69.1387 723.895 69.4717C727.833 69.9916 731.642 69.4908 735.381 70.7295C736.636 72.0335 710.378 79.4341 706.502 83.6055C707.24 90.152 707.082 123.871 728.229 93.8604C721.096 96.4663 717.432 88.849 728.393 80.6074C735.416 74.3351 751.876 69.2507 757.726 71.5332C768.951 72.8399 774.913 72.7226 784.703 72.2568C791.52 72.7442 794.552 74.0544 794.553 76.5117C788.727 83.2967 834.361 87.9157 814.25 102.64C819.025 107.415 832.385 110.766 837.589 115.617C831.4 120.344 824.523 124.378 816.871 126.514C807.021 121.365 797.791 123.766 809.464 137.144C804.376 142.063 805.478 144.728 799.16 140.518C792.64 139.341 795.681 149.001 800.786 147.877C801.56 151.935 773.979 143.452 770.331 137.622C769.997 126.435 759.719 130.647 744.827 130.29C740.717 124.698 778.649 124.568 775.282 116.611C782.83 111.606 780.646 109.7 762.436 111.952C760.646 108.4 772.699 104.062 757.296 106.599C764.155 96.9253 748.932 96.3945 747.07 104.218C740.495 106.622 728.922 124.047 728.102 135.834C718.627 138.956 719.781 129.27 711.022 135.91C699.863 138.367 706.929 140.164 698.15 136.047C693.449 136.169 688.181 130.664 681.287 134.951C670.91 141.47 657.463 145.318 646.763 152.639C643.971 154.737 641.411 156.458 641.086 156.467C630.171 169.579 637.884 167.936 638.576 171.593C637.163 175.139 636.197 179.601 636.83 179.594C642.311 178.489 645.868 178.095 651.389 180.905C660.747 183.874 666.666 195.372 680.747 192.922C686.395 198.246 665.446 215.217 677.218 218.14C678.36 227.101 695.937 205.327 692.583 195.2C701.015 193.725 708.776 190.977 715.921 185.855C717.702 184.254 720.897 177.59 720.897 175.475C719.835 161.845 716.49 165.316 732.536 147.499C733.709 138.652 749.496 143.534 757.8 142.548C764.632 150.195 764.924 149.99 772.951 153.547C767.754 158.369 765.761 165.361 772.473 170.01C775.87 172.644 785.234 165.495 788.127 162.864C789.082 161.97 796.82 157.456 797.461 155.151C795.916 172.384 801.822 178.002 801.83 191.878C812.739 193.328 819.758 200.287 819.097 210.294C817.331 216.646 808.377 218.641 815.773 220.709C813.13 225.725 814.249 222.503 807.825 228.315C813.165 229.433 812.483 235.681 820.596 231.706C820.481 233.641 823.215 234.238 821.528 236.658C816.951 239.077 818.863 244.784 822.813 244.265C824.326 248.382 812.775 263.105 813.771 249.91C815.123 248.42 816.81 248.616 794.979 247.742C779.999 246.841 788.855 241.74 805.685 223.604C807.549 221.79 811.655 219.219 806.893 219.853C796.153 220.005 794.094 231.481 770.759 228.495C764.176 228.472 752.452 226.315 745.682 232.752C748.368 235.54 744.947 237.774 753.176 235.006C761.954 234.91 755.096 244.854 751.163 251.168C757.252 255.938 762.423 259.732 776.778 251.407C778.709 253.399 773.424 255.956 778.277 257.78C777.807 260.215 771.348 261.102 767.898 264.849C753.617 266.721 748.668 277.993 735.858 276.061C730.383 270.266 742.902 267.984 746.161 263.536C737.036 261.464 727.721 273.496 718.327 273.387C713.006 275.232 707.702 278.516 704.273 284.419C703.567 285.004 708.895 293.763 693.062 294.373C695.622 294.596 690.81 296.634 684.85 297.851C680.525 298.741 679.916 299.136 678.88 301.791C678.237 303.41 676.096 306.074 674.117 307.701C670.05 311.033 669.511 311.204 669.511 309.312C669.511 308.575 669.15 308.206 668.705 308.48C668.268 308.755 668.114 310.219 668.362 311.743C669.539 320.595 662.041 330.497 649.246 342.34C644.62 342.601 629.354 353.867 625.378 356.876C616.999 361.181 609.473 371.219 612.454 382.462C613.121 385.212 618.965 412.584 607.949 413.514C602.498 409.587 599.201 402.606 597.895 393.812C597.758 392.69 598.221 390.694 598.906 389.375C598.536 370.145 595.616 387.723 582.796 375.421C564.295 366.964 573.516 384.81 547.039 381.451C540.592 375.888 524.897 381.612 518.271 386.239C505.882 393.704 500.125 413.764 495.303 432.709C494.431 438.795 501.258 457.33 505.288 459.424C516.888 462.219 531.149 467.666 540.29 443.921C542.415 439.521 561.847 436.848 563.817 440.417C565.473 450.912 545.167 465.946 545.994 480.729C549.779 480.257 557.684 482.316 562.721 480.411C566.452 478.157 581.202 482.877 581.271 488.411C579.324 491.572 575.456 511.937 575.2 517.405C581.049 528.823 584.471 536.472 596.575 530.193C605.684 525.471 610.621 532.153 617.91 536.593C617.347 533.545 624.975 530.311 626.586 527.574C625.815 522.709 630.55 515.727 634.019 516.601C638.264 517.584 652.528 507.164 656.397 507.229C653.501 521.495 660.773 518.949 663.918 508.223C665.94 505.986 669.408 511.246 675.507 518.416C675.622 521.701 696.598 519.351 698.279 523.023C707.667 517.495 708.734 521.252 722.02 518.312C724.962 517.26 718.43 527.395 723.228 532.258C721.485 534.806 733.344 537.067 736.416 541.328C740.736 546.626 741.624 555.691 754.323 554.742C765.412 551.701 785.545 566.005 785.962 572.112C786.222 581.918 792.773 595.936 799.904 599.876C807.517 602.001 818.642 609.489 825.384 607.874C837.954 617.893 852.619 619.859 870.346 628.725C875.241 633.427 878.429 635.293 888.417 637.213C892.243 646.452 893.652 653.815 891.329 664.058C887.146 673.957 874.501 685.128 870.432 695.244C864.971 695.512 870.848 727.573 866.15 732.582C866.105 732.628 860.815 757.964 858.459 760.104C858.865 761.707 851.666 770.094 847.915 769.664C832.371 770.18 826.915 778.096 814.173 787.112C811.993 787.351 817.589 807.416 813.017 811.927C811.013 813.049 808.401 817.957 807.399 822.471C805.487 830.559 795.633 839.241 792.761 848.571C787.577 863.986 780.883 856.229 763.48 853.068C760.704 850.569 762.974 855.835 765.271 856.451C772.689 860.703 776.503 872.113 773.997 880.435C769.679 892.819 744.801 885.946 748.629 890.371C755.478 899.638 748.021 908.116 734.764 901.85C735.726 914.76 742.386 903.021 746.24 916.24C733.967 920.635 746.115 932.786 733.795 941.165C736.237 945.304 754.692 947.048 746.376 956.241C739.226 962.604 746.224 965.366 738.026 972.001C738.47 978.794 748.133 984.257 751.378 990.333C762.252 1000.75 780.213 999.74 768.481 1003.61C766.199 1004.94 763.111 1010.9 753.923 1006.86C739.769 1006.82 735.445 999.818 725.18 996.413C716.046 987.919 699.495 971.373 687.172 944.849C687.853 936.013 685.65 922.948 682.735 910.414C679.897 896.371 672.938 879.06 675.961 866.131C678.262 843.565 674.641 831.809 671.251 811.258C673.727 801.608 668.908 752.18 667.532 739.599C661.717 723.136 628.436 720.744 624.651 700.009C624.778 699.223 609.176 673.057 607.821 668.691C604.308 660.879 599.682 651.442 592.784 646.473C589.481 644.761 584.095 629.298 590.505 626.935C590.579 621.897 590.955 622.296 589.622 614.754C591.341 614.377 591.837 591.218 598.907 591.097C603.779 589.219 601.764 582.857 607.42 579.61C613.573 576.225 615.562 553.617 610.151 544.629C602.29 533.161 596.507 535.144 594.574 545.588C590.531 547.514 583.797 538.803 574.686 536.781C574.093 536.732 565.656 523.193 560.452 521.149C559.599 510.587 544.882 499.806 530.416 496.386C525.714 495.632 523.119 493.602 517.783 486.458C514.58 482.158 510.289 479.392 506.812 479.392C495.3 480.721 493.212 484.343 478.927 475.966C472.2 475.027 450.478 461.463 443.624 453.936C440.417 448.872 444.538 446.958 444.344 440.847C444.33 426.098 434.446 419.115 425.425 407.519C426.585 403.735 422.402 397.096 417.477 389.29C410.054 381.469 414.868 388.844 413.435 375.747C412.715 370.148 414.633 367.006 407.199 365.065C403.831 363.638 402.05 374.606 404.279 378.341C409.485 386.465 410.118 379.932 409.795 393.871C412.752 395.651 416.165 408.648 416.535 412.578C418.538 421.042 426.181 426.37 417.931 429.359C415.039 427.712 411.285 419.406 405.727 415.2C406.908 409.097 411.358 405.36 401.633 400.913C397.852 394.534 400.611 385.177 399.757 384.767C396.98 380.515 393.177 376.343 393.71 370.181C390.832 356.282 393.801 349.669 377.841 340.629C377.571 330.22 376.079 323.232 374.843 312.148C374.138 310.557 376.16 298.736 378.371 296.353C385.599 287.469 389.021 273.472 399.466 264.559C401.616 262.339 406.524 253.225 407.945 248.788C410.078 242.133 410.43 241.686 413.033 241.883C416.225 242.112 397.323 226.779 402.891 226.063C402.88 225.553 413.703 225.996 410.173 215.947C412.714 211.581 407.288 196.456 404.63 196.485C396.974 195.802 405.417 186.849 401.976 179.517C407.315 172.33 396.602 159.077 383.965 160.106C374.563 160.711 372.921 161.09 363.308 159.895C358.557 162.154 337.349 163.479 332.074 165.11C332.502 160.198 288.508 178.99 286.656 181.736C275.876 183.97 264.321 192.13 253.042 194.156C251.731 190.268 229 199.831 224.855 198.628C229.986 191.733 235.884 190.277 258.497 187.355C272.619 182.385 314.25 162.447 288.044 169.847C288.638 166.32 270.871 172.221 274.932 168.461C295.921 159.955 260.144 166.735 280.446 147.372C287.542 145.572 296.699 138.953 304.881 137.95C307.401 138.352 326.106 134.469 326.858 130.771C316.881 130.604 308.937 135.351 305.789 123.542C300.757 121.439 325.316 117.758 328.219 116.715C329.389 116.466 351.012 118.379 338.924 106.359C359.095 90.691 396.164 88.2492 419.859 88.0811C424.479 98.4186 471.706 88.7374 480.717 97.9814C480.735 106.189 522.573 85.3601 530.527 93.3477C527.704 101.056 560.634 91.1284 554.884 96.9873C594.857 92.2667 595.536 88.4874 561.222 82.8809C565.3 78.4794 576.961 75.5847 582.582 72.5244C587.837 69.3487 596.717 67.0246 604.898 67.0576L604.9 67.0547ZM2192.03 853.728C2196.91 858.195 2198.61 863.656 2195.46 869.317C2193.45 873.433 2203.76 865.527 2200.17 873C2197.7 876.322 2201.74 882.415 2206.67 878.568C2218.87 872.576 2205.68 887.926 2200.68 889.274C2196 886.811 2186.99 901.323 2182.09 902.979C2173.6 909.76 2174.3 903.617 2167.36 906.921C2160.9 913.747 2150.32 918.493 2145.01 924.052C2139.7 924.823 2135.76 926.706 2132.08 930.047C2128.16 933.708 2122.94 938.344 2116.58 941.183C2102.58 947.594 2106.62 942.671 2099.62 941.096C2096.19 941.095 2096.11 938.268 2099.45 936.213C2108.21 930.336 2119.28 924.32 2130.02 920.11C2137.45 916.936 2149.11 910.359 2157 902.893C2170.68 892.565 2170.46 902.337 2175.67 900.838C2183.85 899.701 2178.25 893.193 2174.81 890.815C2180.45 886.382 2185.38 885.706 2189.37 877.968C2190.81 875.141 2191.66 858.39 2190.4 854.669C2190.4 854.155 2191.17 853.728 2192.03 853.728ZM1996.48 897.71C1996.7 897.648 1996.8 897.86 1996.67 898.526C1996.61 902.903 2005.48 903.175 2009.43 901.524C2015.17 899.897 2016.2 900.84 2013.63 905.037C2010.2 910.34 2000.97 923.435 1991.28 921.566C1986.47 919.535 1991.97 904.541 1993.93 900.667C1994.04 900.53 1995.81 897.896 1996.48 897.71ZM2048.19 678.131C2048.45 678.148 2048.7 678.251 2048.88 678.422C2052.07 689.579 2050.73 686.055 2052.73 701.258C2052.66 702.473 2059.27 707.917 2062.41 722.697C2065.92 727.915 2058.65 740.738 2068.31 742.08C2082.67 744.282 2075.34 760.735 2085.62 768.396C2085.08 772.395 2093.81 788.672 2097.35 782.632C2097.69 781.664 2097.78 781.741 2097.86 782.957C2097.4 794.742 2088.67 809.097 2081.67 827.84C2081.53 830.703 2073.81 838.908 2070.8 841.331C2059.6 847.496 2049.54 863.215 2041.42 873.684C2040.82 880.472 2016.54 883.056 2010.59 888.674C2006.78 881.479 1996.55 887.557 1986.7 883.448C1975.32 878.99 1980.66 871.076 1979.76 865.804C1976.92 858.715 1956.14 859.863 1958.95 854.069C1960.42 846.654 1945.59 829.056 1935.91 833.521C1920.42 834.719 1900.58 838.539 1888.8 851.053C1876.94 850.446 1865.6 850.832 1854.72 857.152C1854.01 862.917 1826.46 855.088 1837.5 847.73C1846.05 847.266 1844.62 813.279 1843.16 804.371C1840.53 776.385 1841.66 802.947 1845.73 774.734C1849.09 769.441 1850.16 757.095 1853.78 762.793C1861.61 749.074 1890.75 750.815 1901.57 740.985C1917.85 717.698 1911.5 717.506 1930.43 709.636C1935.54 700.269 1942.54 699.771 1956.12 708.462C1959.32 708.264 1964.15 693.248 1971.19 689.315C1982.6 685.535 1997.08 680.091 2008.62 693.574C2004.71 700.489 2006.81 700.292 1997.92 708.726C2005.82 716.294 2013.61 720.199 2025.49 729.523C2032.43 729.29 2037 709.265 2037.57 704.76C2038.07 699.831 2042.58 680.188 2048.19 678.131ZM1582.05 49.5312C1596.42 50.0796 1601.74 53.9992 1615.88 55.0459C1620.35 55.0816 1638.1 57.0383 1639.61 64.041C1642.05 67.9017 1646.43 70.7353 1652.28 72.792C1678.85 72.3431 1677.82 75.2049 1697.42 75.9521C1694.03 72.1053 1692.38 70.6974 1699.99 71.5879C1711.43 74.0972 1723.66 74.2181 1732.7 82.0547C1735.84 84.8717 1753.31 95.6214 1748.29 84.5176C1747.98 83.2341 1769.6 87.1018 1769.53 84.5176C1779.69 84.5473 1788.18 87.6871 1775.01 80.6621C1774.69 79.6528 1772.33 74.745 1792.91 78.0928C1815.58 80.2627 1836.56 88.3389 1860.05 88.2939C1876.14 87.6571 1883.82 91.6895 1900.39 96.6963C1901.68 96.5079 1917.44 96.5772 1924.37 96.7998C1945.02 97.8032 1944.99 95.5959 1962.06 95.2236C1966.08 95.412 1972.85 96.1146 1977.04 96.7998C1989.63 98.8387 2028.08 108.439 2032.71 110.692C2045.58 116.384 2067.85 112.045 2081.1 124.938C2070.21 123.532 2063.23 121.047 2073.39 130.771C2072.9 131.081 2061.25 129.261 2056.01 128.201C2046.35 127.476 2033.33 120.391 2023.29 119.61C2026.01 123.285 2032.07 120.193 2028 129.676C2029.64 134.082 2046.66 137.484 2049.42 142.926C2049.39 144.512 2020.31 145.308 2023.04 158.532C2024.99 162.683 1998.45 153.967 1990.58 160.675C1989.78 160.553 1993.93 175.736 1998.37 173.977C2003.7 172.814 2004.8 180.716 2010.1 182.14C2011.73 182.174 2015.67 186.207 2014.9 187.013C2003.43 184.331 2017.53 190.828 2012.16 199.399C2011.04 202.951 2018.93 205.521 2017.04 207.57C2009.78 210.746 2017.23 215.215 2014.73 220.686C2011.93 226.096 2004.77 214.974 2000.6 212.007C1986.98 201.06 1992.01 206.17 1985.44 198.73C1975.5 190.165 1971.05 184.314 1971.74 180.717C1969.24 176.853 1967.67 177.391 1969.59 174.457C1972.48 174.416 1975.94 169.573 1975.16 165.891C1974.25 160.505 1979.17 154.639 1978.84 150.472C1974.18 149.775 1975.8 140.752 1969.68 142.627C1969.52 142.724 1979.2 158.248 1962.14 153.444C1961.38 153.767 1950.93 143.499 1946.21 148.093C1942.11 148.504 1938.46 160.538 1944.42 162.388C1957.23 165.763 1936.59 167.382 1932.25 167.631C1931.13 167.614 1925.85 160.9 1917.35 161.934C1915.49 161.405 1918.2 166.937 1909.99 164.794C1906.22 164.674 1903.31 164.856 1903.48 165.224C1903.73 165.583 1903.13 165.892 1902.19 165.892C1901.25 165.892 1900.22 165.479 1899.97 164.982C1899.28 163.963 1887.03 164.101 1884.21 165.172C1882.83 165.681 1877.8 180.81 1877.1 183.69C1878.21 184.059 1876.84 186.696 1873.16 191.398C1866.79 200.552 1888.06 199.923 1901.85 200.479C1912.57 206.035 1919.13 217.002 1915.04 201.172C1912.81 199.819 1912.56 199.424 1913.75 198.97C1917.07 198.072 1931.76 215.602 1937.73 221.139C1941.93 224.907 1946.81 229.549 1948.7 231.468C1951.45 234.13 1955.03 236.19 1957.77 238.887C1957.73 240.273 1948.07 232.718 1946.21 236.771C1949.56 244.909 1950.4 247.03 1958.8 252.402C1960.17 252.402 1962.91 255.855 1962.91 257.466C1962.78 258.933 1959.29 254.922 1957.43 254.784C1954.59 254.244 1955.76 257.616 1956.23 260.541C1951.84 256.417 1949.25 251.87 1946.64 246.757C1945.06 242.465 1940.59 239.726 1938.76 235.348C1935.22 228.055 1928.88 220.558 1921.8 216.426C1919.49 216.427 1922.83 225.558 1926 227.751C1928 229.423 1932.46 239.628 1931.91 242.98C1929.5 249.157 1932.01 267.15 1926.94 273.817C1926.94 275.899 1922.15 281.431 1919.41 282.459C1915.65 283.259 1898.14 277.709 1903.22 293.192C1906.5 299.662 1894.67 301.702 1896.45 306.606C1900.28 311.874 1908.24 313.9 1911.78 319.882C1915.89 323.728 1920.95 332.635 1920.95 336.054C1920.74 340.643 1911.44 343.348 1907.25 344.242C1903.73 344.448 1903.39 344.302 1903.39 342.504C1903.35 339.759 1900.3 337.501 1902.36 334.126C1902.88 333.552 1902.11 332.43 1898.51 328.473C1896.03 325.844 1895.51 324.354 1896.97 324.354C1901.69 323.544 1885.77 315.436 1884.12 317.5C1883.17 318.816 1883.54 306.775 1881.55 306.392C1876.07 303.285 1868.58 304.477 1864.34 308.833C1862.45 310.769 1860.65 312.36 1860.23 312.36C1860.1 312.335 1858.45 303.658 1859.29 301.894C1861.3 297.529 1853.66 293.835 1851.58 299.676C1848.01 307.074 1841.26 306.772 1838.73 310.974C1838.99 317.01 1849.77 313.652 1850.72 320.309C1851.88 323.877 1856.5 324.216 1857.06 319.968C1855.86 317.324 1877.21 322.364 1873.85 323.977C1873.81 327.288 1860.24 329.948 1859.88 338.221C1859.37 340.182 1859.71 340.61 1863.57 342.417C1867.51 344.318 1871.28 348.233 1874.7 354.255C1877.09 358.456 1881.27 359.156 1884.12 363.565C1887.34 370.146 1884.88 377.35 1889.95 372.32C1892.85 381.476 1888.15 385.078 1885.84 395.901C1885.74 398.083 1881.25 412.388 1878.47 414.052C1880.44 418.004 1868.68 423.601 1867.25 427.191C1865.74 430.986 1856.16 430.206 1853.29 434.07C1853 438.367 1847.38 428.24 1848.58 432.279C1849.57 439.063 1836.98 436.993 1834.02 440.443C1830.52 441.051 1830.23 442.589 1830.34 444.29C1833.08 443.938 1835.8 444.067 1834.83 447.57C1831.7 453 1831.92 460.335 1822.75 457.096C1818.81 454.858 1820.18 445.866 1825.16 444.86C1824.64 443.475 1824.39 442.105 1824.69 441.299C1825.35 439.422 1821.29 440.283 1819.63 439.56C1814.29 437.623 1802.09 450.071 1802.08 455.782C1802.1 459.582 1805.44 462.87 1807.9 466.62C1807.9 467.873 1818 477.504 1819.98 478.131C1823.93 479.396 1829.43 493.076 1829.91 497.618C1830.57 503.109 1833.49 509.572 1829.05 515.368C1824.76 516.829 1822.34 521.578 1817.24 522.005C1816.18 522.698 1809.52 534.457 1804.22 535.925C1802.59 535.924 1802.25 526.513 1803.79 525.569C1806.52 523.335 1793.39 522.959 1795.14 521.363C1793.85 521.363 1790.77 518.184 1790.77 516.865C1789.52 511.334 1783.23 506.82 1778.35 505.781C1773.79 505.815 1777.81 500.075 1772.96 499.255C1769.13 499.721 1770.75 510.543 1768.85 514.51C1767.69 518.878 1764.95 535.744 1771.67 525.971C1772.89 527.521 1777.06 543.135 1781.35 547.326C1782.71 547 1795.03 560.678 1795.65 562.051C1798.34 569.924 1795.01 576.997 1801.31 585.073C1801.42 586.461 1802.28 589.818 1802.08 589.784C1808.07 590.137 1801.85 595.93 1801.05 593.34C1800.98 589.054 1790.69 589.351 1788.37 582.658C1783.83 579.601 1782.21 577.954 1782.21 576.584C1781.99 573.898 1774.61 564.057 1775.18 558.118C1775.09 548.055 1772.05 557.423 1770.22 547.084C1767.83 543.92 1765.6 539.174 1761.91 541.115C1760.79 542.304 1759.68 534.819 1760.54 531.213C1761.52 526.904 1761.37 521.66 1758.23 517.773C1768.2 517.511 1758.62 515.87 1757.37 511.512C1764.19 514.086 1754.1 490.229 1753.6 486.671C1752.83 482.362 1747.18 470.474 1747.09 473.153C1746.89 478.842 1735.33 483.148 1729.79 480.862C1730.25 473.994 1731.2 470.573 1729.02 464.05C1725.27 455.727 1722.48 464.986 1722.85 454.789C1723.13 453.909 1707.17 441.918 1709.41 437.521C1709.35 435.959 1707.03 432.621 1705.04 431.021C1703.34 436.02 1701.99 435.991 1694.33 438.249C1689.29 439.864 1685.53 436.575 1680.29 440.014C1677.71 443.133 1681.06 446.228 1677.55 449.701C1673.93 452.979 1669.05 454.321 1666.42 458.807C1662.53 464.375 1654.92 468.103 1652.88 474.114C1652.85 474.993 1644.38 482.119 1643.12 482.337C1639.69 481.489 1639.27 483.922 1640.98 493.096C1642.18 499.682 1642.09 506.678 1640.72 508.298C1637.73 512.618 1644.35 523.371 1636.1 525.432C1634.74 529.983 1640.42 531.266 1636.78 531.265C1629.28 529.058 1631.42 539.491 1623.76 538.493C1621.54 537.302 1616.91 530.201 1616.91 527.974C1616.38 518.275 1607.41 510.489 1605.18 501.13C1603.71 495.321 1600.59 489.347 1597.64 483.81C1593.2 474.74 1591.53 464.419 1588.48 454.413C1584.99 442.171 1590.01 439.917 1575.63 445.932C1573.92 445.974 1562.1 434.813 1562.1 433.186C1559.85 429.366 1566.22 430.527 1554.22 422.856C1549.49 422.603 1547.77 407.846 1537.86 411.584C1525.21 413.458 1509.83 412.31 1496.07 410.437C1489.09 409.621 1485.11 407.663 1482.19 399.087C1479.92 396.047 1477.73 401.285 1473.63 401.768C1462.79 403.119 1462.45 399.736 1449.91 393.229C1442.67 390.588 1441.5 379.324 1435.17 376.226C1429.85 377.708 1419.29 378.991 1430.38 391.165C1436.68 398.876 1433.52 404.865 1448.79 405.537C1447.52 420.557 1457.52 435.627 1477.74 405.487C1479.54 401.899 1480.57 402.908 1480.57 408.244C1480.79 420.773 1497.83 423.415 1504.72 432.76C1503.83 452.13 1496.48 458.162 1473.37 473.395C1455.76 473.472 1441.82 499.247 1420.44 499.947C1414.69 500.052 1403.01 514.157 1400.66 499.092C1399.11 483.955 1392.91 483.258 1387.13 472.324C1395.73 473.533 1384.26 460.1 1383.96 457.224C1383.92 453.182 1366.73 442.358 1369.06 433.993C1369.69 430.2 1365.06 420.893 1361.52 419.433C1360.18 419.266 1353.54 405.081 1350.99 402.035C1348.94 398.171 1346.08 393.365 1342.94 391.167C1341.05 391.21 1339.79 392.963 1338.14 393.736C1334.53 393.028 1329.33 379.899 1328.29 383.242C1328.44 385.912 1344.42 408.715 1343.88 412.905C1350.6 425.552 1356.2 429.764 1360.49 447.726C1360.98 460.986 1371.85 462.768 1374.54 478.133C1376.66 487.227 1386.03 486.305 1399.2 503.188C1402.15 506.307 1397.42 526.108 1415.22 519.754C1422.07 515.723 1440.62 516.612 1448.36 510.981C1454.15 505.628 1455.78 521.074 1451.62 525.912C1451.33 539.812 1441.03 552.027 1434.49 564.458C1434.4 566.711 1420.87 581.599 1416.25 584.485C1409.14 588.914 1397.58 601.384 1393.89 608.631C1387.95 618.995 1375.29 627.876 1373.68 643.853C1376.4 651.481 1378.61 656.185 1378.56 667.273C1380.51 675.747 1384.83 668.693 1383.96 688.849C1383.88 695.74 1385.74 703.257 1384.64 710.478C1381.87 717.866 1375.73 724.135 1368.29 726.889C1365.37 728.084 1346.18 745.503 1344.56 749.742C1344.72 759.864 1352.38 774.808 1339 784.433C1328.73 788.711 1334.72 797.351 1324.87 812.596C1315.48 814.132 1313.68 833.827 1303.88 837.575C1297.05 845.103 1286.59 849.447 1277.33 851.998C1270.16 852.157 1255.49 849.992 1248.81 855.681C1246.67 857.565 1244.96 857.565 1243.08 855.424C1238.22 850.2 1235.18 852.578 1233.91 841.933C1242.3 833.087 1218.17 805.555 1216.53 793.247C1213.87 778.817 1214.36 766.651 1207.1 753.922C1202.18 741.885 1192.8 732.028 1196.57 715.805C1203.12 707.495 1203.3 692.019 1209.33 683.255C1209.42 680.668 1208.56 677.062 1206.68 672.309C1204.73 667.399 1205.28 650.378 1198.97 640.289C1198.15 630.08 1174.67 613.988 1177.39 603.063C1181.21 605.152 1180.86 589.683 1181.75 587.481C1185.04 580.481 1183.03 566.47 1174.73 565.615C1168 566.364 1158.34 570.343 1155.29 562.83C1154.92 555.837 1148.77 551.301 1142.18 552.012C1136.51 552.21 1130.2 553.459 1124.29 556.483C1117.39 556.825 1111.72 564.175 1104.93 563.438C1100.91 561.426 1097.05 560.842 1089.86 561.193C1083.35 561.51 1081.12 562.025 1076.58 564.218C1068.79 568.004 1066.22 567.199 1055.86 557.819C1050.73 553.214 1043.68 547.805 1035.82 542.137C1035.38 538.982 1031.64 528.93 1028.54 525.57C1022.41 519.053 1020.45 517.19 1013.12 509.725C1007.16 503.669 1015.49 496.166 1006.27 489.674C1011.46 482.834 1016.74 469.72 1015.26 457.338C1014.17 443.229 1011.1 446.563 1010.81 443.314C1013.49 431.797 1020.77 422.098 1026.83 411.965C1026.94 409.484 1039.55 392.284 1041.81 391.169C1064.81 383.51 1056.18 377.903 1062.62 363.004C1066.39 357.674 1066 353.568 1074.87 349.762C1080.18 347.226 1082.15 344.939 1085.06 337.847C1088.27 330.166 1089.39 335.488 1084.63 327.543C1081.09 319.344 1070.84 329.012 1069.3 322.643C1070.67 316.901 1066.55 315.763 1067.25 307.226C1070.39 302.326 1072.26 298.076 1072.3 290.624C1072.22 287.386 1071.7 283.772 1071.27 282.599C1070.01 279.011 1079.23 274.089 1082.83 275.291C1092.21 278.578 1101.32 274.936 1111.7 277.674C1114.1 278.436 1116.49 276.739 1117.44 273.604C1121.03 262.033 1115.01 246.605 1103.3 245.93C1101.03 245.782 1098.79 242.545 1101.33 239.608C1105.65 237.515 1110.68 238.654 1115.29 239.127C1118.81 239.144 1118.98 238.656 1117.18 232.865C1117.48 226.799 1124.68 236.467 1128.57 232.729C1130.84 229.032 1136.18 231.299 1137.05 226.142C1137.65 223.367 1138.25 222.861 1142.01 221.619C1148.44 219.512 1154.09 214.372 1154.95 209.815C1155.63 206.347 1159.32 204.086 1163.34 204.677C1166.71 205.128 1169.49 202.127 1173.19 203.05C1177.98 203.715 1177.94 198.8 1175.59 196.351C1175.29 194.401 1177.48 193.74 1175.67 191.426C1172.25 187.862 1175.42 178.74 1180.04 178.739C1182.86 178.695 1185.89 176.13 1187.66 174.457C1188.69 174.457 1188.78 179.443 1187.75 180.051C1184.62 182.209 1192.47 182.902 1189.55 186.02C1190.24 188.582 1192.3 185.974 1198.28 186.345C1200.08 184.483 1200.02 182.545 1197.69 180.29C1195.09 177.516 1192.22 173.259 1191.26 169.155C1191.23 168.472 1188.27 162.21 1187.92 164.281C1187.92 165.061 1186.21 166.541 1184.24 167.552C1182.18 168.562 1179.27 170.329 1177.64 171.485C1171.85 175.146 1164.18 171.54 1160.52 165.892C1160.29 165.845 1159.55 157.866 1158.8 152.537C1158.89 146.267 1158.97 146.011 1161.54 144.452C1166.26 141.637 1172.43 140.141 1177.3 135.132C1178.64 133.684 1182.14 135.27 1189.63 128.793C1189.92 128.68 1194.01 122.177 1198.11 118.163C1200.71 117.443 1210.44 108.202 1205.82 106.334C1202.84 106.974 1201.23 109.147 1198.97 107.593C1199.48 104.518 1206.52 106.316 1206.42 104.004C1205.45 100.748 1217.34 100.484 1222.35 96.9375C1225.43 96.612 1225.52 96.5423 1225.52 95.3008C1225.52 93.0569 1231.08 92.2181 1233.14 94.1533C1233.4 94.3875 1238.83 93.486 1241.36 91.3691C1240.59 88.5787 1253.49 89.5153 1256.78 87.9434C1259.91 85.7448 1261.14 89.2561 1268.86 87.9434C1271.43 87.9677 1281.1 91.8571 1284.27 92.3633C1283.31 93.5761 1281.01 94.6836 1279.05 95.2236C1283.82 95.7981 1290.15 94.0592 1294.89 96.9375C1299.85 100.643 1308.69 98.153 1314.59 101.459C1318.01 102.928 1323.33 104.889 1327.61 106.308C1329.75 104.939 1342.51 113.083 1335.31 116.989C1330 120.741 1325.04 120.75 1307.14 117.093C1301.83 116.005 1300.29 115.927 1300.63 116.74C1304.74 120.392 1306.54 117.706 1308.59 126.086C1310.76 128.193 1312.23 130.913 1316.39 131.551C1320.84 133.949 1326.06 134.249 1325.21 132.057C1323.36 130.054 1313.87 130.031 1318.44 125.658C1331.87 127.805 1340.24 133.054 1331.46 123.629C1333.57 121.939 1335.14 120.448 1337.71 119.636C1340.63 118.587 1342.18 115.369 1344.57 115.731C1346.49 119.361 1357.46 118.892 1350.99 113.478C1347.26 111.737 1351.08 106.06 1346.28 104.646C1340.57 100.7 1357.78 102.413 1362.81 108.073C1359.21 109.055 1354.32 110.624 1359.12 113.211C1371.46 116.668 1368.65 108.185 1373.25 107.669C1377.36 107.463 1380.45 103.519 1384.73 103.523C1387.86 103.165 1393.88 99.3174 1396.55 101.383C1393.65 105.808 1404.73 105.819 1405.97 103.148C1413.27 102.96 1417.84 99.5664 1420.87 103.499C1422.34 105.056 1427.44 102.357 1425.67 100.389C1422.2 97.2347 1412.43 97.1909 1412.91 92.0889C1415.33 89.7377 1423.92 96.3759 1427.64 95.5498C1440.13 96.3612 1453.71 101.832 1465.75 104.191C1467.97 100.543 1452.22 98.882 1452.48 93.8027C1452.43 89.5768 1444.92 90.3363 1450.76 85.8018C1452.24 84.9498 1454.37 77.7258 1455.22 74.4521C1454.88 71.7692 1468.88 75.2237 1461.9 76.0322C1458.44 76.2223 1469.86 77.1035 1471.83 79.1094C1472.82 80.5304 1469.18 83.8252 1478.43 91.1045C1479.39 95.4416 1482.18 100.099 1486.05 102.179C1490.71 104.256 1490.34 108.266 1487.17 112.809C1485.81 115.792 1480.71 115.871 1487.42 117.57C1489.32 117.948 1494.08 114.848 1495.3 112.458C1495.39 107.458 1492.14 104.08 1496.76 100.955C1502.52 99.3483 1489.62 101.813 1487.59 99.833C1485.03 93.8571 1481.43 88.8987 1476.29 85.5605C1487.59 75.791 1477.73 81.1291 1475.52 75.6562C1479.28 71.3673 1506.59 83.2922 1516.03 83.5576C1518.67 83.3396 1504.2 78.6146 1499.41 72.8457C1506.19 71.8228 1519.33 73.1809 1525.02 70.5977C1522.13 68.3537 1515.93 69.44 1516.37 67.0908C1517.51 64.4131 1521.92 68.6413 1522.28 64.8164C1529.52 62.2544 1537.35 61.4429 1544.55 59.1406C1546.09 57.6367 1562.61 56.3722 1561.76 57.8301C1562.93 58.7509 1574.96 56.0078 1575.04 55.0195C1573.49 53.1882 1575.21 50.5038 1578.46 49.7988C1579.29 49.6227 1580.37 49.5406 1581.55 49.5312H1582.05ZM1440.24 687.487L1440.24 687.488C1440.28 687.505 1440.33 687.545 1440.37 687.604C1455.47 712.652 1440.63 714.403 1439.77 731.527C1437.99 742.583 1431.93 752.006 1429.15 762.828C1426.5 768.777 1424.11 784.548 1417.16 786.058C1413.46 786.26 1409.52 790.033 1405.25 786.914C1397.68 786.536 1396.74 759.788 1400.54 756.153C1410.03 743.007 1401.72 739.688 1405.17 725.531C1406.83 722.849 1405.63 719.313 1408.77 718.389C1413.43 718.343 1422.98 712.311 1426.49 708.4C1429.07 703.381 1436.15 697.318 1440.11 687.5C1440.15 687.475 1440.2 687.471 1440.24 687.487ZM1987.07 601.041C1992.8 602.309 2000.7 607.16 1998.72 613.888C1994.7 616.047 2002.6 623.693 2004.12 623.312C2008.95 623.172 2009.28 614.921 2013.71 614.745C2018.47 614.671 2018.47 605.69 2027.76 612.467C2036.94 617.319 2070.13 625.949 2073.58 632.758C2075.86 630.787 2070.71 638.548 2078.46 641.059C2081.03 643.267 2084.94 643.106 2085.99 647.432C2085.73 650.071 2074.52 646.299 2083.25 655.783C2089.25 661.83 2093 670.323 2102.09 675.698C2101.3 676.201 2079.56 678.729 2074.86 664.323C2074.81 660.176 2068.1 657.977 2064.92 656.527C2060.57 652.915 2053.5 668.213 2051.56 672.134C2049.61 667.644 2055.82 667.756 2043.68 667.638C2034.82 667.687 2035.78 656.521 2026.13 660.76C2025.18 662.01 2017.48 662.062 2017.48 660.812C2030.85 649.265 2035.18 638.313 2005.32 632.407C2003.95 632.253 2002.06 631.543 2001.21 630.807C2000.35 630.07 1998.21 628.792 1996.5 627.97C1995.67 627.584 1991.19 626.234 1992.9 629.442C1995.41 633.664 1981.46 622.484 1982.36 619.986C1982.74 619.083 1997.82 621.364 1990.33 615.927C1987.08 616.14 1975.23 609.665 1972.94 604.972C1974.66 604.031 1980.88 606.764 1987.07 601.041ZM1743.25 556.693C1745.49 556.571 1749.99 559.864 1752.93 559.738C1759.3 559.767 1760.5 566.026 1765 569.589C1769.91 574.438 1776.35 580.769 1784.1 583.19C1784.28 583.227 1788.96 588.464 1790.53 588.545C1793.17 592.457 1797.33 591.237 1797.89 595.953C1800.91 598.757 1794.74 602.427 1797.81 604.973C1801.31 607.569 1806.59 617.503 1811.08 615.603C1807.66 612.421 1807.92 609.73 1814.17 611.963C1815.18 616.78 1825.4 622.98 1815.45 621.65C1813.39 620.546 1812.8 622.276 1812.37 631.021C1811.98 636.288 1808.37 646.724 1818.11 642.824C1825.62 641.658 1830.26 652.104 1838.66 649.488C1842.52 649.895 1838.23 644.454 1858.44 649.789C1862.13 649.669 1864.61 649.934 1864.87 650.482C1865.05 651.843 1848.52 653.977 1860.75 655.535C1868.29 657.667 1879.95 664.251 1890.99 659.022C1893 660.748 1898.5 658.595 1898.52 661.403C1903.17 659.967 1917.81 661.766 1927.13 659.553C1935.01 659.065 1937.23 659.331 1935.95 660.65C1932.76 663.321 1922.53 661.002 1918.14 663.811C1909.78 665.918 1892.47 660.964 1883.62 666.567C1879.91 666.597 1876.27 665.14 1872.74 663.356C1872 663.472 1863.43 662.59 1858.19 661.832C1857.07 660.83 1841.51 660.801 1838.57 658.456C1832.58 655.574 1820.46 657.746 1814.08 652.837C1813.96 649.111 1807.9 651.204 1806.28 648.605C1806.38 648.085 1816.65 640.562 1805.94 642.02C1803.29 642.953 1803.12 642.851 1795.58 635.407C1789.79 629.663 1782.76 622.444 1779.05 614.506C1778.53 610.206 1772.2 598.841 1769.8 598.018C1768.43 597.554 1765.09 588.878 1765.52 587.097C1757.71 577.526 1748.64 571.347 1742.14 560.68C1741.52 557.76 1742.07 556.757 1743.25 556.692L1743.25 556.693ZM1938.1 585.774V585.775C1938.49 585.809 1938.73 586.247 1939.03 587.011C1942.54 597.08 1926.43 595.988 1918.13 596.064C1907.25 595.319 1906.48 595.55 1905.63 599.893C1908.19 615.49 1916.57 605.905 1922.76 603.637C1925.41 602.249 1927.55 603.02 1927.55 605.323C1927.54 605.91 1918.53 610.8 1916.5 612.527C1915.28 613.985 1923.11 628.79 1925.41 631.312C1925.36 634.696 1924.36 643.125 1919.93 640.092C1917.02 636.883 1918.72 633.83 1910.59 622.645C1911.79 619.613 1911.28 618.652 1908.97 619.38C1907.43 619.868 1906.91 623.843 1906.74 637.23C1906.62 640.102 1902.64 642.542 1899.63 640.203C1899.31 636.274 1901.35 632.441 1900.83 628.374C1900.54 623.261 1893.93 627.49 1896.63 618.173C1901.41 617.497 1900.65 593.279 1907.85 592.021C1910.19 591.304 1910.91 586.371 1914.71 589.905C1926.1 594.913 1930.03 591.771 1937.92 585.784C1937.98 585.772 1938.04 585.769 1938.1 585.774ZM1885.29 545.107C1886.52 545.032 1887.63 546.912 1888.84 552.507C1888.6 554.463 1900.73 558.047 1893.64 567.153C1881.32 570.384 1900.51 591.913 1894.41 593.168C1886.14 592.777 1893.66 603.659 1885.33 608.106C1881.18 612.119 1882.12 620.657 1880.36 627.268C1880.29 627.452 1868.52 627.616 1868.46 627.67C1846.08 628.308 1859.25 619.825 1839.77 617.479C1837.77 604.138 1838.86 613.075 1833.17 600.775C1831.8 593.383 1831.72 590.264 1833.17 587.412C1834.8 584.038 1837.28 582.514 1837.97 584.415C1843.77 590.325 1848.09 574.356 1860.75 571.916C1868.08 563.037 1873.64 561.477 1879.42 551.359C1881.9 548.536 1883.7 545.206 1885.29 545.108V545.107ZM1930.8 505.231C1933.7 505.396 1937.32 507.231 1936.14 510.141C1936.42 521.634 1937.36 520.551 1941.79 526.896C1941.36 528.788 1941.45 529.911 1941.96 529.62C1944.16 532.112 1948.37 553.052 1943.42 551.839C1942.25 550.238 1942.81 547.816 1940.59 547.454C1938.61 547.942 1942 553.078 1940.08 558.134C1939.87 560.887 1935.11 555.113 1931.43 553.604C1928.01 550.785 1930.68 545.493 1927.49 541.91C1925.78 540.986 1925.99 544.774 1922.86 544.531C1922.22 545.452 1919.78 546.641 1915.41 546.887C1914.84 541.572 1917.14 540.291 1921.58 537.199C1922.91 534.731 1925.22 533.363 1927.57 535.752C1930.46 538.985 1931.98 532.884 1932.71 529.945C1936.22 532.024 1938.16 532.62 1936.74 526.784C1927.04 516.838 1935.28 521.891 1927.57 506.869C1927.59 505.636 1929.06 505.133 1930.8 505.231ZM1641.42 525.901C1645.06 526.357 1645.16 529.988 1648.7 533.295C1650.92 535.145 1654.35 543.325 1654.35 546.812C1654.35 550.46 1653.24 551.908 1648.78 554.144C1642.22 557.37 1641.4 550.972 1640.3 544.935C1639.66 540.98 1641.39 535.296 1638.93 531.581C1641.01 530.244 1638.48 530.012 1641.42 525.901ZM1898.46 513.91C1899.31 514.551 1899.76 514.753 1900 514.779C1898.85 515.709 1897.67 517.707 1900.17 519.427C1902.32 519.975 1901.97 521.687 1899.66 522.133C1895.07 523.268 1889.76 534.493 1885.7 537.491C1884.37 539.794 1883.58 535.486 1884.85 534.092C1887.53 529.058 1893.65 528.061 1894.01 522.451C1896.11 519.469 1895.27 515.591 1898.46 513.91ZM1912.77 510.57C1915.28 511.011 1917.26 512.691 1919.96 512.814C1922.57 512.845 1919.91 516.294 1922.53 517.097C1927.7 515.966 1931.56 521.287 1930.49 527.727C1926.89 529.021 1922.72 526.314 1921.07 531.23C1920.19 529.979 1918.44 529.772 1917.48 528.232C1914.8 523.59 1922.55 523.369 1913.62 517.876C1913.76 515.484 1912.51 512.507 1912.77 510.57ZM1902.04 454.905C1905.58 454.803 1909.71 456.719 1909.42 458.844C1909.48 464.005 1914.49 468.934 1909.59 474.365C1907.05 474.444 1906.47 480.307 1909.42 481.243C1910.87 481.269 1913.87 483.144 1913.87 484.001C1910.26 483.944 1908.52 487.052 1913.53 486.733C1916.86 486.348 1922.48 491.56 1925 489.38C1925 487.487 1926.46 487.77 1927.66 489.886C1928.43 491.307 1928.34 491.89 1927.4 492.455C1926.05 494.714 1925.34 493.968 1926.89 497.329C1926.4 499.625 1924.66 500.735 1926.2 503.386C1928.59 508.099 1924 502.744 1921.49 504.447C1920.98 505.243 1920.72 504.43 1920.72 502.066C1920.68 500.596 1912.51 489.548 1907.87 493.963C1910.01 495.83 1910.7 499.437 1909.24 501.347C1907.87 503.239 1906.59 502.546 1904.7 498.939C1902.89 495.45 1899.47 492.764 1899.57 489.782C1898.41 486.407 1898.88 483.057 1896.48 478.75C1894.26 471.864 1894.6 469.047 1897.34 472.438C1899.64 475.485 1896.19 460.108 1897.43 457.662C1898.02 455.756 1899.93 454.967 1902.04 454.905ZM653.043 450.631C658.46 450.624 669.218 452.505 671.274 454.225C672.48 455.786 682.827 458.552 677.913 464.83C669.727 462.6 664.406 461.47 659.5 469.188L657.734 466.809C654.635 463.033 642.475 469.271 640.392 461.48C642.34 457.986 658.638 466.616 649.915 453.694C647.064 453.694 647.252 452.349 650.317 450.962C650.826 450.734 651.793 450.633 653.043 450.631ZM619.502 461.821C624.053 461.911 630.215 463.831 626.737 466.542C622.618 466.585 622.413 469.858 617.103 465.42C613.398 462.789 615.963 461.751 619.502 461.821ZM691.444 461.524C693.791 461.482 696.408 462.133 697.718 463.091C701.602 466.519 687.87 467.76 686.799 464.11C687.021 462.302 689.098 461.567 691.444 461.524ZM597.693 426.763C607.827 426.884 616.185 434.208 622.777 433.377C623.068 433.086 623.308 433.308 623.309 433.855C623.309 435.834 628.414 440.16 632.037 441.248C633.872 441.814 641.604 447.517 645.07 449.334L642.527 450.346C638.75 451.862 620.699 452.247 621.243 450.8C620.314 444.052 612.703 438.447 602.754 435.705C591.955 435.32 593.205 433.716 578.241 437.607C574.185 436.763 582.172 429.962 587.176 428.905C589.394 428.357 592.349 427.585 593.762 427.191C594.815 426.9 596.177 426.771 597.692 426.763H597.693ZM1895.39 405.843C1897.19 405.957 1898.47 408.454 1897.9 414.143C1897.73 417.817 1897.05 422.416 1896.36 424.36C1895.94 425.51 1895.34 432.371 1893.36 429.725C1890.89 422.851 1886.25 422.935 1889.85 411.838C1891.3 407.998 1893.6 405.729 1895.39 405.843ZM1205.4 261.112C1204.26 261.119 1202.08 261.573 1201.55 261.987C1198.32 263.215 1198.63 271.16 1202.84 273.952C1209.43 278.011 1210.24 289.538 1222.11 288.326C1222.59 294.943 1233.88 293.325 1235.9 303.042C1235.13 304.738 1234.96 304.772 1233.67 303.504C1229.38 299.216 1223.27 302.214 1226.56 305.483C1230.65 308.156 1223.52 317.217 1219.37 317.954C1214.46 316.464 1219.92 327.355 1213.98 327.138C1210.91 326.361 1202.16 319.943 1199.59 318.357C1199.59 316.337 1201.04 315.873 1206.09 316.318C1211.63 316.73 1223.73 315.579 1220.57 307.195C1219.13 303.166 1210.04 295.878 1204.98 293.92C1197.19 293.027 1191.99 280.688 1185.97 282.836C1185.5 280.87 1190.46 270.38 1176.81 270.956C1171.47 274.25 1164.38 282.279 1158.22 279.462C1153 276.139 1143.92 277.646 1143.92 281.852C1144.02 288.41 1143.12 290.415 1133.55 294.374C1131.58 294.675 1119.52 305.983 1124.9 310.41C1126.56 311.799 1118.18 320.348 1116.6 321.22C1111.75 322.274 1111.23 329.743 1103.24 326.949C1097.96 327.013 1086.49 329.43 1093.39 336.449C1096.63 338.76 1101.8 336.427 1105.98 337.28C1111.99 342.013 1116.74 332.453 1122.08 332.629C1122.76 332.894 1123.36 332.713 1123.36 332.225C1123.36 330.486 1129.1 328.492 1138.78 326.873C1150.34 324.937 1152.74 324.834 1155.05 326.256C1159.4 329.016 1172.26 320.028 1179.03 323.42C1182.89 321.407 1186.4 321.922 1187.08 324.594C1187.56 326.472 1193.99 324.055 1190.25 333.828C1190.33 333.901 1193.43 342.205 1191.45 342.051C1180.44 342.698 1186.24 354.547 1196.33 353.452C1208 359.035 1213.52 354.644 1225.11 367.183C1228.7 367.183 1234.1 369.117 1237.61 371.627C1254.71 377.372 1250.13 368.288 1249.26 358.291C1253.11 355.045 1261.25 353.145 1262.54 355.19C1268.72 359.541 1276.38 360.735 1282.4 364.373C1291.04 362.985 1300.08 372.036 1308.01 368.228C1311.78 364.707 1321.2 363.706 1324.37 366.489C1328.65 369.775 1338.56 367.361 1339.19 359.576C1340.21 354.454 1343.3 344.973 1344.41 343.73C1345.1 342.874 1344.41 337.134 1343.38 336.021C1341.33 327.144 1344.73 327.353 1339.19 327.968C1336.8 326.497 1335.36 326.689 1333.66 328.74C1334.43 328.48 1335.19 328.254 1335.94 328.133C1336.11 329.039 1333.54 331.965 1333.12 333.89C1329.4 335.34 1328.94 338.115 1324.64 336.22C1321.9 334.824 1321.3 332.177 1323.69 332.177C1324.34 332.12 1324.98 331.984 1325.62 331.819C1323.97 331.754 1322.46 331.333 1321.54 330.486C1317.61 326.829 1310.67 324.628 1311.01 327.137C1311.71 333.824 1302.41 329.862 1298.42 327.25C1295.11 326.43 1298.01 333.787 1293.88 332.062C1293.08 330.856 1295.43 325.907 1288.57 327.704C1288.3 325.798 1292.84 321.71 1287.8 320.071C1275.99 319.004 1291.79 309.744 1281.98 309.468C1279.13 308.226 1277.43 304.156 1282.23 300.155C1285.4 296.953 1266.27 293.68 1270.76 300.02C1270.23 305.581 1263.9 300.782 1261.42 300.207C1257.42 306.514 1280.52 316.879 1275.81 321.09C1272.29 316.391 1266.33 320.014 1266.65 322.642C1262.99 322.119 1269.07 322.929 1264.68 331.207C1263.28 325.548 1261.59 326.08 1255.69 324.064C1253.94 316.76 1247.96 321.966 1247.98 314.367C1248.91 312.178 1249.29 308.165 1245.41 307.224C1244.03 307.127 1240.07 294.965 1241.47 289.664C1230.07 281.281 1208.51 275.445 1205.75 261.689C1206.4 261.267 1206.09 261.11 1205.4 261.114L1205.4 261.112ZM1955.91 261.828C1962.53 262.52 1967.24 271.457 1974.41 271.516C1978.66 273.05 1984.16 272.68 1985.29 272.157C1985.54 270.552 1987.04 267.868 1989.23 270.581C1986.21 272.728 1985.27 276.03 1989.23 278.239C1989.23 279.833 1986.4 281.476 1983.49 281.502C1973.61 281.786 1987.49 292.019 1973.21 285.759C1972.56 285.494 1971.54 285.386 1970.42 285.382C1971.13 285.644 1971.95 286.15 1972.96 287.046C1975.77 294.287 1985.05 298.306 1985.8 309.102C1983.66 310.225 1980.97 309.658 1984.09 313.334C1987.2 316.986 1985.33 321.943 1988.37 326.181C1989.76 327.789 1989.35 336.23 1985.29 333.514C1980.27 328.511 1984.49 340.296 1979.47 334.987C1976.58 329.636 1980.62 337.451 1974.24 336.89C1968.89 339.112 1968.37 340.977 1964.74 345.164C1962.19 344.597 1958.26 336.578 1957.88 341.198C1958.69 351.41 1951.18 340.072 1951.2 349.685C1953.15 354.963 1943.26 343.591 1943.75 347.973C1944.29 353.827 1945.17 357.244 1942.38 362.157C1940.78 363.826 1938.2 362.613 1936.56 360.445C1934.94 354.797 1933.01 351.951 1928.94 349.23C1926.37 346.457 1928.42 345.008 1931.68 342.431C1934.38 338.13 1936.05 334.964 1940.41 330.679C1940.51 328.794 1949.53 329.799 1951.63 328.726C1954.24 328.101 1956.72 329.48 1959.25 328.699C1960.25 327.202 1957.17 325.604 1959.08 323.612C1965.83 319.025 1956.99 319.207 1959.94 315.371C1962.2 313.833 1963.32 324.991 1970.73 311.619C1974.63 305.44 1965.8 299.321 1966.02 291.738C1964.96 292.603 1963.35 292.637 1962.17 290.572C1961.57 288.063 1957.88 285.28 1957.37 286.907C1952.96 278.428 1961.18 284.125 1961.31 275.052C1963.42 266.665 1948.56 267.128 1955.91 261.827L1955.91 261.828ZM1270.43 329.116C1274.41 328.912 1282.41 331.473 1285.68 332.179C1287.58 335.734 1268.33 334.057 1268.12 330.413C1268.23 329.56 1269.11 329.184 1270.43 329.116ZM1431.67 252.678C1431.36 252.68 1431.04 252.737 1430.71 252.857C1427.01 253.382 1408.09 258.3 1402.27 270.067C1405.19 271.267 1407.67 274.752 1407.67 277.57C1407.67 280.114 1408.78 281.742 1415.81 289.374C1419.34 293.15 1424.15 296.722 1428.22 300.725C1421.85 305.883 1423.41 304.59 1421.63 314.531C1422.51 319.652 1436.66 327.17 1442.35 327.354C1451.63 325.245 1453.63 326.991 1451.18 316.647C1450.11 310.229 1443.07 305.914 1441.58 298.068C1442.73 296.121 1442.36 296.484 1446.16 296.946C1449.31 296.991 1446.31 299.976 1452.15 296.518C1451.74 295.421 1447.38 288.724 1443.84 288.758C1441.02 289.705 1442.23 293.401 1438.24 290.95C1437.48 284.049 1441.87 286.85 1429.08 279.009C1429.04 275.426 1423.59 272.904 1421.37 270.392C1420.12 268.104 1423.79 269.457 1425.23 267.873C1425.05 261.768 1431.09 262.99 1435.93 263.969C1438.7 265.01 1436.32 252.642 1431.67 252.678ZM1181.92 274.309C1182.27 274.283 1182.44 275.181 1182.44 277.434C1182.41 281.462 1179.83 284.909 1182.09 288.039C1183.46 289.016 1183.64 290.162 1183.46 295.053C1183.21 302.419 1182.69 303.961 1180.98 303.293C1178.5 303.351 1178.5 306.626 1175.41 304.553C1172.58 302.235 1176.41 296.629 1174.39 293.203C1170.98 287.616 1175.77 290.716 1177.81 288.946C1181.02 286.817 1175.47 283.784 1176.27 278.908C1177.34 276.768 1180.44 276.257 1181.92 274.309ZM1349.09 251.119C1345.5 251.626 1341.68 253.093 1337.87 253.826C1335.04 254.247 1332.65 256.996 1330.68 259.095C1331.6 260.056 1333.28 262.571 1335.04 262.871C1336.69 263.541 1342.49 265.258 1337.1 266.109C1332.76 266.148 1329.13 269.579 1324.94 270.255C1321.96 269.899 1324.84 265.02 1316.54 263.643C1315.55 263.368 1320.1 260.153 1321.51 259.334C1318.82 257.673 1313.38 259.457 1310.04 256.233C1310.03 255.471 1309.18 254.974 1307.89 254.974C1302.7 255.052 1302.1 265.815 1298.22 268.011C1296.83 268.704 1293.38 279.192 1291.19 282.89C1290.17 283.986 1293.33 290.684 1295.56 291.857C1301.82 295.126 1311.29 295.083 1316.54 290.521C1319.54 288.782 1322.28 288.028 1327.51 287.549C1333.84 286.967 1334.53 287.053 1335.81 288.595C1337.65 290.816 1355.1 295.307 1360.05 294.805C1365.96 294.608 1368.87 294.084 1370.76 292.987C1374.18 290.949 1374.7 289.468 1372.81 285.759C1371.78 283.532 1370.16 282.119 1367.33 280.809C1365.1 279.798 1361.25 277.228 1358.68 275.104C1354.25 271.538 1346.27 264.186 1343.59 263.459C1347.76 262.575 1345.92 262.777 1346.52 260.619C1348.12 256.996 1347.91 257.26 1346 254.382C1346.68 252.869 1351.54 252.374 1353.29 250.527L1349.09 251.119ZM629.787 258.562C614.489 259.175 605.275 273.698 602.543 288.165C602.697 291.146 605.018 290.503 609.172 286.34C615.657 279.47 619.95 264.647 629.787 258.562ZM1968.36 285.496C1965.9 285.748 1963.83 286.391 1965.26 286.991C1966.05 287.351 1966.54 287.84 1966.82 288.37C1967.12 287.191 1967.56 286.045 1968.36 285.496ZM655.463 275.722C655.24 275.722 654.769 275.824 654.016 275.995C647.11 277.457 646.5 277.263 637.313 280.004C633.075 282.167 627.703 283.615 628.964 285.015C634.256 287.842 650.965 278.888 655.463 275.722ZM652.772 259.257C648.943 259.416 642.267 259.247 634.334 260.301C639.057 268.638 637.588 265.741 630.505 275.53C645.292 264.605 636.352 274.967 639.849 278.478C643.331 276.077 645.439 263.029 650.898 266.108C653.904 271.196 657.723 267.847 655.668 261.929C655.043 260.156 653.971 259.24 652.772 259.257ZM673.713 267.078C670.268 267.118 662.015 269.074 657.226 269.914C648.18 274.355 668.109 271.133 671.648 271.199C675.554 269.486 676.753 267.078 673.713 267.078ZM629.025 239.146C627.48 239.169 625.605 239.42 623.341 239.931C610.646 243.742 609.235 241.186 595.798 251.949C607.271 252.898 619.06 244.542 624.754 254.219C630.552 251.461 632.07 254.936 635.298 253.688C636.142 245.523 637.369 239.017 629.025 239.146ZM1117.29 163.906C1119.66 163.928 1119.87 170.225 1111.38 173.6C1109.89 175.391 1114.95 175.128 1116.52 175.313C1121.91 175.313 1123.37 176.264 1121.31 178.389C1119.57 180.094 1115.85 185.281 1118.06 187.332C1119.77 187.366 1122 190.218 1122.77 193.49C1123.8 197.074 1128.38 197.815 1129.88 201.439C1132.81 213.331 1129.36 203.826 1138.87 210.569C1141.21 215.475 1130.54 216.899 1137.07 220.763C1137.07 222.296 1129.96 224.719 1126.11 224.514C1121.57 224.284 1112.95 225.473 1109.06 226.707C1108.26 227.64 1097.91 229.722 1095.53 229.328C1097.64 226.483 1103.68 222.553 1107.01 220.711C1110.78 220.711 1107.7 218.861 1103.58 218.646C1091.58 217.841 1113.59 211.632 1101.53 210.594C1106.46 206.022 1102 205.796 1106.92 205.669C1110.84 206.151 1113.9 204.347 1111.21 199.752C1108.88 197.171 1111.28 194.185 1103.5 197.054C1102.02 196.578 1098.96 189.513 1095.11 188.941C1098.14 185.048 1102.08 185.147 1093.39 183.982C1094.29 181.135 1096.48 179.222 1096.31 176.196C1097.99 174.839 1101.67 176.136 1103.93 171.005C1106.41 167.465 1111.93 171.252 1114.46 166.318C1115.48 164.591 1116.51 163.9 1117.29 163.906ZM1090.52 191.985C1093.3 192.038 1096.25 192.902 1098.45 194.26C1100.87 197.245 1095.19 203.968 1094.86 211.391C1093.79 215.018 1088.87 214.737 1084.58 216.753C1080.2 219.022 1072.83 220.917 1071.13 217.285C1065.7 216.959 1080.88 208.521 1074.9 206.5C1072.76 205.935 1073.78 203.179 1073.62 200.154C1075.3 197.214 1083.37 201.489 1083.55 194.585C1085.1 192.692 1087.73 191.933 1090.52 191.985ZM1252.27 122.148C1250.37 122.146 1248.47 122.403 1246.74 123.113C1244.46 125.51 1242.11 132.412 1236.55 135.911C1231.67 136.182 1225.28 141.867 1223.88 146.112C1223.83 152.1 1219.93 152.03 1228.33 156.631C1239.3 161.748 1225.8 167.645 1221.82 170.072C1221.31 175.722 1219.32 182.916 1223.11 177.96C1223.53 178.414 1221.48 184.513 1220.45 185.566C1218.9 184.753 1215.69 186.165 1208.89 190.328C1208.63 191.707 1207.95 192.016 1204.78 192.016C1199.81 191.997 1201.32 186.642 1198.18 191.298C1198.4 198.445 1197.9 193.271 1191.08 200.206C1191.13 203.247 1201.55 194.435 1205.63 197.986C1205.79 202.288 1216.24 199.993 1219.77 197.986C1221.99 195.408 1234.15 194.235 1232.61 196.753C1233.73 201.489 1240.12 196.103 1240.49 194.158C1243.49 194.158 1244.95 191.691 1244.43 187.332C1244.51 171.346 1248.17 177.691 1248.03 171.673C1247.56 169.961 1250.02 166.305 1252.57 165.941C1259.55 170.56 1255.05 163.363 1266.44 162.225C1275.01 163.347 1279.29 163.371 1279.29 162.301C1282.77 158.252 1284.22 156.984 1274.58 156.974C1269.64 157.36 1264.41 159.789 1258.65 160.031C1254.62 161.11 1252.23 161.393 1252.05 160.828C1247.95 157.839 1243.41 159.091 1243.66 152.717C1243.97 144.861 1244.76 140.515 1250.22 133.918C1254.06 129.321 1263.51 124.374 1257.79 122.738C1256.29 122.454 1254.65 122.217 1252.99 122.161L1252.27 122.148ZM1022.8 20.6514C1034.36 20.6865 1044.72 21.3335 1048.24 22.417C1058.99 25.5708 1073.33 28.7664 1087.29 28.1709C1099.36 28.7037 1101.42 29.9288 1092.86 31.4629C1064.06 39.1058 1063.1 34.1865 1065.19 53.0391C1065.52 54.9192 1057.49 57.0672 1064.94 64.791C1061.4 66.336 1056.66 68.101 1052.01 69.9043C1034.09 80.8472 1031.09 79.0882 1038.39 87.8682C1033.87 92.2631 1026.79 98.3719 1018.09 100.767C1004.51 106.951 989.899 103.894 979.894 108.879C973.744 110.447 964.305 121.351 955.741 121.299C951.753 125.909 946.061 119.36 939.812 123.816C938.951 126.716 930.03 130.605 929.363 136.262C922.625 139.234 918.933 144.414 914.975 150.31C912.004 153.347 909.917 156.446 907.522 159.793C902.213 163.349 891.965 153.212 882.943 153.874C881.923 148.671 873.498 138.256 874.979 132.811C872.611 121.543 878.11 116.416 874.379 113.349C875.824 107.124 878.437 95.4916 882.344 85.751C876.466 77.4959 900.05 63.8641 879.003 59.7568C853.463 53.9386 856.113 66.0857 834.502 51.2178C832.118 42.8923 861.398 42.7257 866.67 41.7402C874.635 41.0832 878.66 39.921 878.66 38.2344C867.081 35.1378 860.357 36.4849 849.49 39.4922C843.879 40.0357 837.184 41.5999 830.221 46.0508C826.356 47.8391 814.328 47.9272 809.29 53.9199C809.085 55.7938 797.746 58.1359 796.948 60.5322C783.922 59.7984 769.745 53.5626 753.295 58.8203C744.383 66.2912 777.302 62.1815 793.017 62.3535C792.65 68.4 775.614 67.2393 771.1 67.4375C769.734 68.5652 741.279 67.9391 734.643 66.6348C731.62 65.7034 740.716 61.5624 739.412 59.3809C734.167 58.8906 727.798 68.3675 717.222 68.2412C715.482 68.1698 717.105 59.9422 705.585 65.0283C703.066 65.1145 693.377 62.3028 689.526 58.8203C688.268 58.8196 691.136 55.8934 693.14 55.126C709.288 57.4867 712.194 57.2639 719.844 55.5264C718.616 62.987 726.977 62.5242 726.405 55.3115C723.015 55.1468 735.853 50.5584 739.49 53.6807C747.313 53.7896 751.434 56.5064 761.784 53.2246C764.688 50.1833 771.684 49.0454 754.478 45.1152C745.731 33.0524 757.585 35.6282 768.609 31.4102C777.817 28.8346 774.249 29.5885 796.769 27.5547C820.314 26.2153 843.543 22.3418 869.068 23.2461C878.931 23.3114 895.233 21.7619 905.896 27.501C924.758 27.3982 956.858 22.0431 978.866 22.3887C985.204 22.1523 996.765 21.5831 1004.56 21.1309C1008.84 20.8842 1013.29 20.7299 1017.75 20.6768C1019.46 20.6559 1021.17 20.6445 1022.8 20.6494L1022.8 20.6514ZM1058.04 116.869C1059.79 116.802 1061.32 116.947 1062.44 117.419C1065.31 116.922 1061.54 121.671 1068.61 124.854C1068.11 129.764 1050.3 134.075 1045.31 136.015C1038.04 138.448 1031.59 135.41 1023.9 134.602C1020.82 134.781 1019.79 134.532 1019.79 133.667C1027.86 127.133 1022.94 128.951 1015.08 128.204C1014.48 127.236 1015.51 126.756 1019.53 126.199C1031.65 124.321 1014.53 124.738 1014.99 122.66C1018.83 119.724 1022.88 114.748 1027.93 118.061C1031.77 120.291 1034.01 124.673 1038.2 120.28C1038.74 121.432 1050.45 117.161 1058.04 116.869ZM1431.11 53.3115C1432.57 53.2514 1434.04 53.3834 1435.44 53.708C1442.63 55.6456 1439.64 57.55 1424.65 60.5059C1418.79 61.6754 1412.54 63.0061 1405.29 67.3867C1400.6 68.42 1397.87 76.0458 1394.25 78.5215C1387.65 84.6841 1406.32 92.1684 1406.92 90.5898C1405.09 94.5017 1377.39 88.6183 1375.4 83.0947C1380.35 74.2669 1383.27 73.7167 1386.62 64.5479C1386.31 62.2715 1395.19 61.9963 1396.82 59.5693C1400.45 55.7121 1418.31 58.4143 1424.39 55.207C1426.29 54.0452 1428.68 53.4118 1431.11 53.3115ZM704.625 70.0088C705.341 73.7703 702.549 77.4516 699.059 80.5293C693.673 85.6372 684.612 88.8658 679.281 85.2363C679.336 81.1737 671.097 81.6473 673.716 76.8623C678.856 74.2481 684.9 80.0118 685.432 72.4727C691.19 70.5823 692.829 71.6397 704.625 70.0088ZM646.089 50.8965C647.703 50.8889 653.783 51.3498 648.658 52.9297C647.018 53.2887 639.547 56.8046 648.231 56.5459C654.589 57.2834 654.49 61.3891 660.862 61.2832C666.473 61.1565 662.396 57.4072 669.881 55.3926C673.126 54.4302 676.964 54.6152 673.71 58.9014C692.548 58.0218 677.371 65.6422 666.293 65.377C661.805 65.6212 653.763 66.5657 648.419 67.4668C646.913 67.7209 637.575 71.3527 634.15 66.4766C632.691 65.1465 610.764 58.5347 608.028 59.2207C608.948 56.7677 639.073 50.7309 646.089 50.8965ZM1745.8 58.1699C1750.39 58.1396 1756.2 58.8534 1758.88 58.7129C1766.76 60.3466 1772.69 58.2399 1777.55 62.8359C1776.45 66.4118 1759.16 67.0645 1752.2 66.501C1742.35 64.2319 1739.36 62.7654 1739.36 60.3447C1739.4 58.6664 1742.23 58.1935 1745.8 58.1699ZM1226.76 34.4453C1235.99 34.4177 1248.36 36.7786 1254.04 36.7109C1260.16 40.148 1232.13 43.3012 1233.4 41.207C1218.85 44.016 1240.89 47.0753 1247.36 49.3975C1245.36 52.4263 1228.93 54.2556 1231.77 50.1729C1236.3 47.539 1220.95 44.2605 1216.53 53.6807C1215.84 56.7702 1213.87 56.9875 1208.82 54.5371C1190.01 45.5609 1192.03 47.8229 1187.58 39.7607C1187.34 37.911 1191.77 36.5835 1217.04 36.416C1219.02 34.9646 1222.56 34.4579 1226.76 34.4453ZM1563.1 40.498C1569.26 40.5966 1585.46 44.399 1582.49 46.3467C1580.86 46.7133 1563.13 48.541 1561.25 48.541C1560.41 46.1846 1560.97 43.3622 1561.16 40.6973C1561.55 40.5444 1562.22 40.484 1563.1 40.498ZM1528.4 31.1318C1532.92 31.0529 1537.08 32.0594 1538.04 34.541C1535.73 38.3721 1550.38 37.9602 1557.4 43.3477C1554.15 47.2654 1523.38 39.8556 1515.94 38.7441C1512.33 34.4085 1520.87 31.2635 1528.4 31.1318ZM1346.81 32.2334C1348.6 32.269 1350.94 32.8962 1352.7 33.9795C1349.19 36.336 1354.91 35.2341 1351.85 38.1279C1347.13 37.9355 1324.39 36.4673 1328.72 33.9531C1337.56 32.633 1339.76 36.6848 1345.25 32.3994C1345.68 32.275 1346.21 32.2216 1346.81 32.2334ZM1378.19 27.7119C1380.38 27.7696 1380.98 29.0133 1380.19 30.6055C1384.65 30.7404 1390.86 31.4288 1395.1 33.8994C1385.58 39.6267 1370.23 36.242 1366.15 36.0137C1361.13 34.4895 1365.98 35.2103 1359.81 36.9766C1358.81 36.8665 1354.39 36.397 1356.64 35.3164C1359.3 35.7507 1366.31 29.7136 1370.09 30.125C1373.82 28.3406 1376.49 27.6672 1378.19 27.7119Z" fill="white"/>
</svg>
