<svg width="747" height="815" viewBox="0 0 747 815" fill="none" xmlns="http://www.w3.org/2000/svg">
<circle cx="373.39" cy="373.39" r="373.39" fill="#ECA946" style="fill:#ECA946;fill:color(display-p3 0.9255 0.6627 0.2745);fill-opacity:1;"/>
<circle cx="494.741" cy="354.72" r="56.0085" fill="#202328" style="fill:#202328;fill:color(display-p3 0.1255 0.1373 0.1569);fill-opacity:1;"/>
<rect x="392.059" y="298.712" width="205.365" height="56.0085" rx="28.0043" fill="#202328" style="fill:#202328;fill:color(display-p3 0.1255 0.1373 0.1569);fill-opacity:1;"/>
<path d="M392.059 212.507C392.059 193.38 413.535 181.512 430.369 190.595C447.632 199.909 468.002 209.684 485.406 214.699C509.945 221.769 543.844 223.772 567.907 224.211C584.023 224.505 597.423 237.455 597.423 253.573C597.423 268.479 585.912 280.774 571.006 280.836C538.602 280.97 483.609 278.371 448.067 261.372C432.187 253.778 412.46 239.612 401.159 231.08C395.342 226.689 392.059 219.795 392.059 212.507Z" fill="#202328" style="fill:#202328;fill:color(display-p3 0.1255 0.1373 0.1569);fill-opacity:1;"/>
<circle cx="56.0085" cy="56.0085" r="56.0085" transform="matrix(-1 0 0 1 308.047 298.712)" fill="#202328" style="fill:#202328;fill:color(display-p3 0.1255 0.1373 0.1569);fill-opacity:1;"/>
<rect width="205.365" height="56.0085" rx="28.0043" transform="matrix(-1 0 0 1 354.721 298.712)" fill="#202328" style="fill:#202328;fill:color(display-p3 0.1255 0.1373 0.1569);fill-opacity:1;"/>
<path d="M191.925 528.648C196.565 511.331 216.623 503.182 232.436 511.631C256.383 524.426 289.882 540.731 317.383 548.1C345.776 555.708 386.343 558.766 415.229 559.993C433.025 560.749 446.012 577.762 441.403 594.966C438.247 606.741 427.612 614.933 415.426 614.604C387.288 613.842 336.538 611.217 302.887 602.2C269.55 593.268 227.4 571.204 204.134 558.179C193.72 552.348 188.836 540.178 191.925 528.648Z" fill="#202328" style="fill:#202328;fill:color(display-p3 0.1255 0.1373 0.1569);fill-opacity:1;"/>
<path d="M420.681 697.926V751.963L548.405 806V670.907L420.681 697.926Z" fill="#6200EE" style="fill:#6200EE;fill:color(display-p3 0.3843 0.0000 0.9333);fill-opacity:1;"/>
<path d="M324.888 697.926V751.963H420.681V697.926H324.888Z" fill="#EC609C" style="fill:#EC609C;fill:color(display-p3 0.9255 0.3765 0.6118);fill-opacity:1;"/>
<path d="M197.164 670.907V806L324.888 751.963V697.926L197.164 670.907Z" fill="#6200EE" style="fill:#6200EE;fill:color(display-p3 0.3843 0.0000 0.9333);fill-opacity:1;"/>
<path d="M324.888 751.963L197.164 806V670.907L324.888 697.926M324.888 751.963V697.926M324.888 751.963H420.681M324.888 697.926H420.681M420.681 697.926V751.963M420.681 697.926L548.405 670.907V806L420.681 751.963" stroke="#202328" style="stroke:#202328;stroke:color(display-p3 0.1255 0.1373 0.1569);stroke-opacity:1;" stroke-width="16.0558" stroke-linejoin="round"/>
<path d="M397.5 401.5H349V424.75H397.5V401.5Z" fill="black" style="fill:black;fill-opacity:1;"/>
<path fill-rule="evenodd" clip-rule="evenodd" d="M220.5 379H134V448H164L220.5 379ZM247 479H300V448H349V424.75V401.5V379H322.5L247 479Z" fill="black" style="fill:black;fill-opacity:1;"/>
<path fill-rule="evenodd" clip-rule="evenodd" d="M612.5 379H535L510.5 479H563.5V448H612.5V379ZM457.5 379H397.5V401.5V424.75V448H427.5L457.5 379Z" fill="black" style="fill:black;fill-opacity:1;"/>
<path d="M457.5 448V479H510.5L535 379H457.5L427.5 448H457.5Z" fill="white" style="fill:white;fill-opacity:1;"/>
<path d="M194 448V479H247L322.5 379H220.5L164 448H194Z" fill="white" style="fill:white;fill-opacity:1;"/>
<path d="M349 401.5V379H322.5M349 401.5H397.5M349 401.5V424.75M397.5 401.5V379H457.5M397.5 401.5V424.75M349 424.75V448H300V479H247M349 424.75H397.5M397.5 424.75V448H427.5M164 448H194V479H247M164 448H134V379H220.5M164 448L220.5 379M220.5 379H322.5M247 479L322.5 379M457.5 379L427.5 448M457.5 379H535M427.5 448H457.5V479H510.5M510.5 479H563.5V448H612.5V379H535M510.5 479L535 379" stroke="#202328" style="stroke:#202328;stroke:color(display-p3 0.1255 0.1373 0.1569);stroke-opacity:1;" stroke-width="16" stroke-linejoin="round"/>
</svg>
